<svg width="69" height="69" viewBox="0 0 69 69" fill="none" xmlns="http://www.w3.org/2000/svg">
<g clip-path="url(#clip0_128_51)">
<path d="M34.2984 10.921C31.3304 10.9206 28.4288 11.8004 25.9608 13.4491C23.4927 15.0978 21.569 17.4413 20.4329 20.1834C19.2968 22.9254 18.9993 25.9428 19.5781 28.8539C20.1569 31.7649 21.586 34.439 23.6846 36.5379C25.7832 38.6368 28.4571 40.0662 31.3681 40.6454C34.2792 41.2246 37.2965 40.9275 40.0387 39.7918C42.7809 38.656 45.1247 36.7326 46.7737 34.2648C48.4227 31.7969 49.3029 28.8955 49.3029 25.9275C49.3152 23.9535 48.9355 21.9968 48.1859 20.1707C47.4362 18.3446 46.3315 16.6855 44.9358 15.2896C43.54 13.8937 41.8811 12.7887 40.0551 12.0388C38.2291 11.2889 36.2724 10.909 34.2984 10.921ZM34.2984 36.6444C32.1784 36.6444 30.1061 36.0157 28.3434 34.8379C26.5806 33.6601 25.2068 31.986 24.3955 30.0274C23.5842 28.0688 23.3719 25.9136 23.7855 23.8343C24.1991 21.7551 25.22 19.8451 26.7191 18.3461C28.2181 16.847 30.128 15.8261 32.2073 15.4126C34.2866 14.999 36.4418 15.2112 38.4004 16.0225C40.359 16.8338 42.0331 18.2077 43.2109 19.9704C44.3887 21.7331 45.0173 23.8055 45.0173 25.9255C45.0313 27.337 44.7636 28.7371 44.2299 30.0439C43.6961 31.3507 42.9071 32.5379 41.909 33.536C40.9108 34.5341 39.7236 35.3232 38.4169 35.8569C37.1101 36.3906 35.71 36.6583 34.2984 36.6444ZM57.878 37.5023C59.6768 33.985 60.6309 30.0968 60.6647 26.1464C60.6415 22.7103 59.9406 19.3126 58.6022 16.1478C57.2637 12.9831 55.3141 10.1135 52.8648 7.70344C50.4156 5.29341 47.5149 3.39028 44.329 2.10307C41.143 0.815871 37.7344 0.169892 34.2984 0.202139C30.8625 0.169892 27.4539 0.815871 24.2679 2.10307C21.082 3.39028 18.1813 5.29341 15.7321 7.70344C13.2828 10.1135 11.3331 12.9831 9.9947 16.1478C8.65626 19.3126 7.95537 22.7103 7.93217 26.1464C7.9651 30.0988 8.91927 33.9891 10.7189 37.5082L0 55.7293C0 55.7293 6.85929 57.0152 13.7186 58.516C16.7566 61.9765 19.8295 65.4063 22.9366 68.8049L32.7976 52.0847H36.2272L46.0882 68.8049C46.0882 68.8049 50.5868 63.6555 55.3063 58.5101C59.8667 57.5211 64.44 56.5921 69.0249 55.7234L57.8839 37.5023H57.878ZM22.2937 61.0838C22.2937 61.0838 19.079 57.8691 15.8624 54.8674C11.5748 53.5816 7.07229 52.3036 7.07229 52.3036L13.2887 41.7997C16.9477 46.5378 22.0737 49.9299 27.8651 51.4457L22.2937 61.0838ZM34.2984 47.3632C30.0588 47.3632 25.9145 46.1061 22.3894 43.7507C18.8643 41.3953 16.1168 38.0475 14.4944 34.1306C12.8719 30.2137 12.4474 25.9037 13.2745 21.7455C14.1016 17.5874 16.1432 13.7679 19.1411 10.7701C22.1389 7.77221 25.9584 5.73065 30.1165 4.90355C34.2747 4.07644 38.5847 4.50094 42.5016 6.12337C46.4184 7.74579 49.7663 10.4933 52.1217 14.0184C54.477 17.5435 55.7342 21.6879 55.7342 25.9275C55.7181 31.6076 53.4545 37.0505 49.438 41.067C45.4215 45.0835 39.9786 47.3471 34.2984 47.3632ZM52.7345 54.8576C49.7328 57.8593 46.3032 61.0739 46.3032 61.0739L40.5148 51.4279C46.355 50.0227 51.5149 46.6081 55.0913 41.7819L61.3077 52.2858C61.5226 52.2858 57.0201 53.5717 52.7326 54.8497L52.7345 54.8576Z" fill="#4559FF"/>
</g>
<defs>
<clipPath id="clip0_128_51">
<rect width="69" height="69" fill="white"/>
</clipPath>
</defs>
</svg>
