<svg width="66" height="74" viewBox="0 0 66 74" fill="none" xmlns="http://www.w3.org/2000/svg">
<path d="M33.034 0C21.419 0 4.82267 6.67926 0 6.67926V46.2566C0.588728 51.1585 5.083 66.1812 33.034 73.0189C59.2529 66.6113 65.6491 49.2226 66 46.2566V6.67917C61.2567 6.67917 44.6491 0 33.034 0ZM61.1087 44.7615C60.8596 46.9124 58.7543 50.8287 55.1542 55.04C51.7579 59.0023 45.3284 64.7874 33.034 67.7987C21.2151 64.912 14.6157 60.542 10.7326 56.4552C6.45332 51.9383 5.16311 47.2862 4.89139 44.9993V11.1066C9.87251 10.8349 22.8226 5.05001 33.034 5.05001C43.234 5.05001 56.6256 10.8349 61.1199 11.1066L61.1087 44.7615Z" fill="#4559FF"/>
<path d="M22.3397 45.6308C23.2515 46.0867 24.3456 46.9073 25.9868 47.7735C28.9045 49.3235 32.9619 49.6427 37.8399 49.6427C42.8091 49.6427 49.6474 49.278 53.9783 48.7765C53.5224 49.8251 52.8842 51.7854 52.8385 52.925C49.6929 53.1074 42.0797 53.4265 37.7031 53.4265C32.3236 53.4265 28.403 52.8795 25.1663 51.1926C23.206 50.0985 21.7471 48.8221 20.6986 48.8221C19.103 48.8221 16.778 51.3294 14.4529 54.0192L11.8999 50.4632C14.0426 48.4117 16.2764 46.6793 18.2367 45.8132V32.638H12.5382V28.7174H22.3397V45.6308ZM20.1059 24.0218C18.8294 21.9247 15.9117 18.8246 13.45 16.5907L16.6868 14.3113C19.1485 16.3628 22.1118 19.3716 23.4794 21.4687L20.1059 24.0218ZM39.3899 39.8866C39.3899 41.0263 39.5266 42.5763 39.6178 43.4425C30.181 45.8587 28.6765 46.3146 27.6736 46.9528C27.4 45.9955 26.4882 44.3087 25.8044 43.6249C26.6706 43.0778 27.8103 42.0293 27.8103 40.0234V14.4938H49.1003V31.6351L49.4194 31.3615L52.6562 33.9601C50.4679 35.5101 48.0061 37.197 45.7722 38.4735C48.1428 40.5249 50.3767 42.5764 51.8356 44.2632L48.6899 46.7706C46.0458 43.4426 40.3017 38.3366 35.5604 34.9176L38.4325 32.7749C39.8913 33.7778 41.4413 35.0087 43.0825 36.2396C45.0884 34.9631 47.3223 33.1852 48.9179 31.8175H31.9374V41.619L39.3899 39.8866ZM31.9375 17.9585V21.4687H45.1555V17.9585H31.9375ZM45.1555 28.3527V24.6599H31.9375V28.3527H45.1555Z" fill="#4559FF"/>
</svg>
