<svg width="66" height="74" viewBox="0 0 66 74" fill="none" xmlns="http://www.w3.org/2000/svg">
<path d="M21.7878 31.041C21.5959 30.8239 21.3631 30.6467 21.1027 30.5196C20.8424 30.3925 20.5595 30.3178 20.2703 30.3C19.9811 30.2822 19.6912 30.3215 19.4172 30.4157C19.1432 30.5099 18.8905 30.6572 18.6734 30.8491C18.4563 31.041 18.2791 31.2738 18.152 31.5341C18.0248 31.7945 17.9502 32.0774 17.9324 32.3666C17.9146 32.6558 17.9539 32.9456 18.0481 33.2196C18.1423 33.4936 18.2896 33.7464 18.4815 33.9635L26.8762 43.4633C27.7453 44.4448 28.9562 44.9499 30.1781 44.9499C30.8334 44.9493 31.4803 44.8037 32.0726 44.5234C32.6648 44.2431 33.1877 43.8351 33.6035 43.3288L47.2235 26.5988C47.593 26.1451 47.767 25.5633 47.7075 24.9813C47.6479 24.3993 47.3596 23.8648 46.9059 23.4954C46.4523 23.126 45.8705 22.9519 45.2885 23.0115C44.7065 23.071 44.172 23.3594 43.8026 23.813L30.1825 40.5408L21.7878 31.041Z" fill="#4559FF"/>
<path d="M33.034 0C21.419 0 4.82267 6.67926 0 6.67926V46.2566C0.588728 51.1585 5.083 66.1812 33.034 73.0189C59.2529 66.6113 65.6491 49.2226 66 46.2566V6.67917C61.2567 6.67917 44.6491 0 33.034 0ZM61.1087 44.7615C60.8596 46.9124 58.7543 50.8287 55.1542 55.04C51.7579 59.0023 45.3284 64.7874 33.034 67.7987C21.2151 64.912 14.6157 60.542 10.7326 56.4552C6.45332 51.9383 5.16311 47.2862 4.89139 44.9993V11.1066C9.87251 10.8349 22.8226 5.05001 33.034 5.05001C43.234 5.05001 56.6256 10.8349 61.1199 11.1066L61.1087 44.7615Z" fill="#4559FF"/>
</svg>
