<svg width="76" height="65" viewBox="0 0 76 65" fill="none" xmlns="http://www.w3.org/2000/svg">
<path d="M30.206 37.0695V32.9901H21V28.1457H29.1313L21.5373 20.4238L24.9045 17L32.5343 24.7583L40.1642 17L43.5313 20.4238L35.9373 28.1457H44.9284V33.0265H35.006V37.106H45V41.9868H35.006V50H30.206V41.9868H21V37.106H30.206V37.0695Z" fill="#4559FF"/>
<path d="M62.0444 49.0422L56.5757 54.5108L53.9892 51.9243L59.4578 46.4556L54.3871 41.3849L57.0426 38.7295L62.1133 43.8002L67.4242 38.4893L70.0108 41.0758L64.6998 46.3867L69.7705 51.4574L67.1151 54.1129L62.0444 49.0422Z" fill="#4559FF"/>
<path d="M32.1781 4.91413C46.4326 4.69573 58.3844 15.252 60.1023 29.0844L65 28.6476C63.0994 12.4491 49.2835 0 32.6167 0C18.4353 0 5.8621 9.13665 1.5492 22.605C-2.7637 36.0734 2.134 50.743 13.6838 58.9696C24.466 66.6138 38.684 66.9778 49.7952 60.1344L46.9077 56.2031C38.7571 61.0809 28.6327 61.4813 20.0435 57.1132C10.7598 52.381 4.9118 42.8804 4.9118 32.5061C4.87525 17.3997 17.0464 5.13254 32.1781 4.91413Z" fill="#4559FF"/>
</svg>
