<svg width="138" height="33" viewBox="0 0 138 33" fill="none" xmlns="http://www.w3.org/2000/svg">
<path d="M38.5152 26V5.63636H45.6345C47.0531 5.63636 48.2231 5.88163 49.1445 6.37216C50.0659 6.85606 50.7519 7.509 51.2027 8.33097C51.6535 9.14631 51.8788 10.0511 51.8788 11.0455C51.8788 11.9205 51.7231 12.643 51.4115 13.2131C51.1066 13.7831 50.7022 14.2339 50.1984 14.5653C49.7013 14.8968 49.161 15.142 48.5777 15.3011V15.5C49.2008 15.5398 49.8272 15.7585 50.457 16.1562C51.0867 16.554 51.6137 17.1241 52.0379 17.8665C52.4622 18.6089 52.6743 19.517 52.6743 20.5909C52.6743 21.6117 52.4423 22.5298 51.9783 23.3452C51.5143 24.1605 50.7818 24.8068 49.7808 25.2841C48.7799 25.7614 47.4773 26 45.8732 26H38.5152ZM40.9811 23.8125H45.8732C47.484 23.8125 48.6274 23.5009 49.3036 22.8778C49.9863 22.2481 50.3277 21.4858 50.3277 20.5909C50.3277 19.9015 50.152 19.2652 49.8007 18.6818C49.4494 18.0919 48.9489 17.6212 48.2993 17.2699C47.6497 16.9119 46.8807 16.733 45.9925 16.733H40.9811V23.8125ZM40.9811 14.5852H45.555C46.2974 14.5852 46.9669 14.4394 47.5635 14.1477C48.1667 13.8561 48.644 13.4451 48.9953 12.9148C49.3533 12.3845 49.5323 11.7614 49.5323 11.0455C49.5323 10.1506 49.2207 9.39157 48.5976 8.76847C47.9745 8.13873 46.9868 7.82386 45.6345 7.82386H40.9811V14.5852ZM58.7841 5.63636V26H56.3181V5.63636H58.7841ZM63.3203 26V5.63636H70.4396C71.8582 5.63636 73.0282 5.88163 73.9496 6.37216C74.871 6.85606 75.557 7.509 76.0078 8.33097C76.4586 9.14631 76.6839 10.0511 76.6839 11.0455C76.6839 11.9205 76.5282 12.643 76.2166 13.2131C75.9117 13.7831 75.5073 14.2339 75.0035 14.5653C74.5064 14.8968 73.9661 15.142 73.3828 15.3011V15.5C74.0059 15.5398 74.6323 15.7585 75.2621 16.1562C75.8918 16.554 76.4188 17.1241 76.843 17.8665C77.2673 18.6089 77.4794 19.517 77.4794 20.5909C77.4794 21.6117 77.2474 22.5298 76.7834 23.3452C76.3194 24.1605 75.5869 24.8068 74.5859 25.2841C73.585 25.7614 72.2824 26 70.6783 26H63.3203ZM65.7862 23.8125H70.6783C72.2891 23.8125 73.4325 23.5009 74.1087 22.8778C74.7914 22.2481 75.1328 21.4858 75.1328 20.5909C75.1328 19.9015 74.9571 19.2652 74.6058 18.6818C74.2545 18.0919 73.754 17.6212 73.1044 17.2699C72.4548 16.9119 71.6858 16.733 70.7976 16.733H65.7862V23.8125ZM65.7862 14.5852H70.3601C71.1025 14.5852 71.772 14.4394 72.3686 14.1477C72.9718 13.8561 73.4491 13.4451 73.8004 12.9148C74.1584 12.3845 74.3373 11.7614 74.3373 11.0455C74.3373 10.1506 74.0258 9.39157 73.4027 8.76847C72.7796 8.13873 71.7919 7.82386 70.4396 7.82386H65.7862V14.5852ZM83.5891 5.63636V26H81.1232V5.63636H83.5891ZM104.512 12H102.046C101.9 11.2907 101.645 10.6676 101.28 10.1307C100.922 9.59375 100.485 9.14299 99.9677 8.77841C99.4573 8.4072 98.8905 8.12879 98.2674 7.94318C97.6443 7.75758 96.9947 7.66477 96.3186 7.66477C95.0856 7.66477 93.9687 7.97633 92.9677 8.59943C91.9734 9.22254 91.1813 10.1406 90.5913 11.3537C90.008 12.5668 89.7163 14.0549 89.7163 15.8182C89.7163 17.5814 90.008 19.0696 90.5913 20.2827C91.1813 21.4957 91.9734 22.4138 92.9677 23.0369C93.9687 23.66 95.0856 23.9716 96.3186 23.9716C96.9947 23.9716 97.6443 23.8788 98.2674 23.6932C98.8905 23.5076 99.4573 23.2325 99.9677 22.8679C100.485 22.4967 100.922 22.0426 101.28 21.5057C101.645 20.9621 101.9 20.339 102.046 19.6364H104.512C104.326 20.6771 103.988 21.6084 103.498 22.4304C103.007 23.2524 102.397 23.9517 101.668 24.5284C100.939 25.0985 100.12 25.5327 99.212 25.831C98.3105 26.1293 97.346 26.2784 96.3186 26.2784C94.5818 26.2784 93.0373 25.8542 91.6851 25.0057C90.3328 24.1572 89.2689 22.9508 88.4933 21.3864C87.7177 19.822 87.3299 17.9659 87.3299 15.8182C87.3299 13.6705 87.7177 11.8144 88.4933 10.25C89.2689 8.68561 90.3328 7.47917 91.6851 6.63068C93.0373 5.7822 94.5818 5.35795 96.3186 5.35795C97.346 5.35795 98.3105 5.5071 99.212 5.8054C100.12 6.10369 100.939 6.54119 101.668 7.1179C102.397 7.68797 103.007 8.384 103.498 9.20597C103.988 10.0213 104.326 10.9527 104.512 12ZM125.27 15.8182C125.27 17.9659 124.883 19.822 124.107 21.3864C123.331 22.9508 122.267 24.1572 120.915 25.0057C119.563 25.8542 118.018 26.2784 116.282 26.2784C114.545 26.2784 113 25.8542 111.648 25.0057C110.296 24.1572 109.232 22.9508 108.456 21.3864C107.681 19.822 107.293 17.9659 107.293 15.8182C107.293 13.6705 107.681 11.8144 108.456 10.25C109.232 8.68561 110.296 7.47917 111.648 6.63068C113 5.7822 114.545 5.35795 116.282 5.35795C118.018 5.35795 119.563 5.7822 120.915 6.63068C122.267 7.47917 123.331 8.68561 124.107 10.25C124.883 11.8144 125.27 13.6705 125.27 15.8182ZM122.884 15.8182C122.884 14.0549 122.589 12.5668 121.999 11.3537C121.416 10.1406 120.624 9.22254 119.623 8.59943C118.628 7.97633 117.515 7.66477 116.282 7.66477C115.049 7.66477 113.932 7.97633 112.931 8.59943C111.936 9.22254 111.144 10.1406 110.554 11.3537C109.971 12.5668 109.679 14.0549 109.679 15.8182C109.679 17.5814 109.971 19.0696 110.554 20.2827C111.144 21.4957 111.936 22.4138 112.931 23.0369C113.932 23.66 115.049 23.9716 116.282 23.9716C117.515 23.9716 118.628 23.66 119.623 23.0369C120.624 22.4138 121.416 21.4957 121.999 20.2827C122.589 19.0696 122.884 17.5814 122.884 15.8182Z" fill="black"/>
<path d="M17.3293 32.1776H1.52094C1.30246 32.1776 1.08653 32.1306 0.887854 32.0397C0.68918 31.9487 0.512419 31.8161 0.369611 31.6508C0.131071 31.3762 -0.000193294 31.0246 2.13644e-07 30.6609V20.3627C0.000406045 19.5794 0.305059 18.8269 0.849684 18.264C1.13239 17.9671 1.4725 17.7308 1.84935 17.5694C2.2262 17.408 2.63193 17.3249 3.04188 17.3251H17.3336C18.4582 17.3238 19.5683 17.5787 20.5797 18.0704C21.5912 18.5621 22.4773 19.2778 23.1709 20.163C24.2112 21.4709 24.7773 23.0929 24.7768 24.7641C24.7779 25.7395 24.5864 26.7055 24.2131 27.6066C23.8398 28.5077 23.2921 29.3262 22.6016 30.0151C21.9092 30.7059 21.0867 31.2526 20.1818 31.6238C19.2769 31.995 18.3074 32.1832 17.3293 32.1776Z" fill="#1231FD"/>
<path d="M14.8567 9.80262e-06H1.52095C1.17123 -0.00111228 0.831927 0.118995 0.560798 0.339885C0.385944 0.482213 0.244925 0.661632 0.147936 0.865161C0.0509472 1.06869 0.000411668 1.29124 3.74384e-06 1.5167V15.5365C-0.000322033 15.6085 0.0206199 15.679 0.0602139 15.7391C0.0998079 15.7992 0.1563 15.8463 0.222564 15.8744C0.288827 15.9026 0.361918 15.9105 0.432677 15.8973C0.503436 15.884 0.568708 15.8501 0.620283 15.7999C1.28859 15.208 2.14514 14.8723 3.03764 14.8525H14.8567C16.7372 14.8544 18.5478 14.1405 19.9209 12.8557C20.6661 12.1615 21.2602 11.3211 21.6659 10.3868C22.0716 9.45262 22.2802 8.44476 22.2787 7.42625C22.2806 6.37577 22.0588 5.33692 21.6281 4.3788C21.1973 3.42067 20.5676 2.56522 19.7807 1.86932C18.4247 0.662474 16.672 -0.00294562 14.8567 9.80262e-06Z" fill="#1231FD"/>
</svg>
