<svg width="1354" height="200" viewBox="0 0 1354 200" fill="none" xmlns="http://www.w3.org/2000/svg">
<path d="M36.2445 119.528H39.6045V135.908C39.6045 137.644 39.2125 138.484 38.0365 139.016C36.8605 139.492 35.1525 139.576 32.7725 139.576C32.6045 138.652 32.0445 137.28 31.5685 136.412C33.2205 136.496 35.0405 136.468 35.5445 136.468C36.0485 136.44 36.2445 136.3 36.2445 135.852V119.528ZM29.3005 114.712H44.4205V117.736H29.3005V114.712ZM43.2725 114.712H44.1405L44.8405 114.544L47.1085 116.196C44.9805 118.492 41.8445 120.816 38.7085 122.244C38.2885 121.6 37.3645 120.648 36.8325 120.116C39.3805 118.968 42.0965 116.868 43.2725 115.356V114.712ZM33.4725 122.72H42.6005V125.352H33.4725V122.72ZM25.5205 120.732H31.5125V123.756H25.5205V120.732ZM32.7725 127.116H43.2445V129.776H32.7725V127.116ZM31.4005 131.596H44.6445V134.34H31.4005V131.596ZM48.5085 120.536L51.1685 122.636C49.5725 124.54 47.6405 126.724 46.1565 128.124L44.0565 126.304C45.4845 124.848 47.4165 122.412 48.5085 120.536ZM45.4565 120.032C46.2685 126.08 48.0325 131.736 51.5045 134.592C50.7205 135.236 49.5725 136.524 49.0405 137.476C45.2045 133.92 43.4685 127.732 42.4605 120.508L45.4565 120.032ZM30.2245 120.732H30.8405L31.4285 120.62L33.5005 121.376C32.5205 128.544 30.1405 134.34 27.0045 137.392C26.4725 136.636 25.2965 135.32 24.5685 134.816C27.5085 132.156 29.4965 127.2 30.2245 121.432V120.732ZM61.3325 115.86H79.0005V118.772H61.3325V115.86ZM61.1365 123.252H79.1965V126.248H61.1365V123.252ZM66.5685 135.516H75.2485V138.456H66.5685V135.516ZM64.9725 113.228H68.2205V120.844H64.9725V113.228ZM72.1685 113.228H75.4165V120.844H72.1685V113.228ZM64.6925 128.964H77.7405V139.408H74.4925V131.932H67.8005V139.52H64.6925V128.964ZM67.3245 120.34L70.5445 120.928C69.1725 126.5 66.5405 131.008 62.7605 133.78C62.3125 133.136 61.1085 131.876 60.4365 131.288C63.9365 129.02 66.2605 125.128 67.3245 120.34ZM54.2205 115.692L56.3765 113.676C57.9165 114.908 59.9605 116.7 60.9405 117.904L58.6445 120.228C57.7485 118.968 55.7325 117.064 54.2205 115.692ZM56.5725 139.016L55.9285 136.048L56.7405 134.984L61.6405 131.904C61.8085 132.828 62.1725 134.2 62.5085 134.9C57.9725 137.896 57.0485 138.484 56.5725 139.016ZM53.0445 121.852H58.1125V125.072H53.0445V121.852ZM56.5725 139.016C56.2085 138.4 55.1165 137.308 54.5285 136.86C55.2565 136.244 56.2925 134.9 56.2925 133.164V121.852H59.5405V134.76C59.5405 134.76 56.5725 137.756 56.5725 139.016ZM82.4309 137L90.644 120.733V120.604H81.0389V116.636H95.7349V120.634L87.492 137H82.4309ZM112.616 125.072C114.212 130.868 117.712 134.816 124.292 136.3C123.508 137.056 122.5 138.568 121.968 139.548C114.828 137.56 111.384 132.996 109.312 125.772L112.616 125.072ZM99.3155 123.672H122.64V127.144H99.3155V123.672ZM98.4475 115.076H123.368V118.548H98.4475V115.076ZM108.864 116H112.476V122.888C112.476 128.88 111.02 136.132 99.7635 139.576C99.3995 138.736 98.3915 137.252 97.6915 136.58C107.688 133.64 108.864 127.592 108.864 122.888V116ZM126.196 122.972H151.704V126.164H126.196V122.972ZM127.876 114.964H150.164V118.156H127.876V114.964ZM139.048 127.312H142.604V134.844C142.604 135.852 142.8 135.992 144.032 135.992C144.536 135.992 146.776 135.992 147.448 135.992C148.596 135.992 148.792 135.432 148.96 131.82C149.688 132.408 151.256 132.968 152.18 133.192C151.788 138.008 150.836 139.296 147.728 139.296C147 139.296 144.256 139.296 143.556 139.296C139.972 139.296 139.048 138.204 139.048 134.844V127.312ZM136.724 116.308H140.196C140 126.976 139.72 135.488 127.876 139.576C127.484 138.652 126.532 137.392 125.748 136.664C136.78 133.192 136.584 125.94 136.724 116.308ZM153.972 116.756H168.308V119.752H153.972V116.756ZM159.432 113.452H162.708V118.156H159.432V113.452ZM156.912 120.2L160.02 120.984C159.124 123.392 157.584 125.828 156.044 127.368C155.456 126.836 154.196 125.856 153.468 125.408C154.924 124.12 156.212 122.16 156.912 120.2ZM162.204 125.492L165.536 126.248C163.744 132.044 160.524 136.692 156.268 139.576C155.792 138.876 154.56 137.532 153.832 136.916C157.892 134.564 160.776 130.476 162.204 125.492ZM162.092 121.488L164.612 120.116C165.788 121.432 167.048 123.224 167.524 124.484L164.836 126.024C164.388 124.792 163.212 122.888 162.092 121.488ZM155.876 128.068L158.312 126.08C161.336 128.6 164.976 132.184 166.572 134.788L163.856 137.084C162.428 134.48 158.9 130.728 155.876 128.068ZM169.792 118.352H180.068V121.46H169.792V118.352ZM170.38 113.2L173.684 113.676C172.816 119.444 171.248 124.932 168.756 128.432C168.224 127.788 166.936 126.556 166.208 125.996C168.476 123.056 169.736 118.212 170.38 113.2ZM175.252 120.228L178.556 120.508C177.38 130.084 174.496 136.076 167.44 139.604C167.132 138.848 166.18 137.364 165.564 136.664C171.948 133.864 174.384 128.572 175.252 120.228ZM171.724 120.872C172.816 127.956 175.168 134.032 180.18 136.748C179.424 137.392 178.416 138.68 177.912 139.548C172.48 136.188 170.156 129.636 168.84 121.32L171.724 120.872ZM193.816 114.18H205.408V125.268H193.592V122.44H202.132V117.008H193.816V114.18ZM191.828 114.18H195.076V132.296H191.828V114.18ZM193.704 118.464H203.168V120.9H193.704V118.464ZM190.064 131.568C192.444 131.176 196.028 130.448 199.472 129.72L199.724 132.604C196.56 133.388 193.228 134.144 190.596 134.76L190.064 131.568ZM199.976 124.12C201.152 127.984 203.672 130.868 207.872 132.044C207.144 132.716 206.192 134.032 205.744 134.928C201.096 133.248 198.576 129.692 197.148 124.652L199.976 124.12ZM204.988 124.708L207.564 126.78C205.8 127.928 203.868 129.132 202.384 129.86L200.424 128.124C201.88 127.284 203.84 125.8 204.988 124.708ZM188.692 124.148V134.452H185.416V127.256H182.14V124.148H188.692ZM188.692 132.996C189.812 134.844 191.94 135.656 194.852 135.768C198.128 135.908 204.484 135.824 208.264 135.516C207.9 136.3 207.34 137.924 207.2 138.932C203.812 139.1 198.156 139.156 194.796 139.016C191.352 138.876 189.028 138.064 187.208 135.88C185.976 136.972 184.716 138.036 183.204 139.268L181.552 135.768C182.812 134.984 184.324 134.004 185.612 132.996H188.692ZM182.28 115.944L184.772 113.928C186.452 115.104 188.524 116.868 189.476 118.184L186.816 120.396C185.976 119.08 183.96 117.204 182.28 115.944ZM210.14 115.468H223.272V118.212H210.14V115.468ZM209.748 127.704H223.58V130.448H209.748V127.704ZM210.812 119.64H222.628V122.356H210.812V119.64ZM210.98 123.672H222.488V126.388H210.98V123.672ZM215.208 128.88H218.316V136.384C218.316 137.756 218.12 138.568 217.196 139.044C216.328 139.492 215.18 139.548 213.64 139.548C213.528 138.68 213.108 137.476 212.744 136.664C213.612 136.692 214.536 136.692 214.816 136.664C215.124 136.664 215.208 136.58 215.208 136.328V128.88ZM215.152 113.396H218.316V121.404H215.152V113.396ZM211.456 130.952L214.228 131.456C213.78 133.836 212.884 136.188 211.848 137.728C211.26 137.308 210 136.72 209.3 136.468C210.392 135.096 211.092 132.996 211.456 130.952ZM219.1 131.876L221.592 130.924C222.292 132.156 223.02 133.808 223.272 134.872L220.668 135.992C220.416 134.928 219.744 133.192 219.1 131.876ZM225.792 118.296H233.716V121.348H225.792V118.296ZM229.18 119.472H230.776V124.288C230.776 127.06 231.812 133.22 236.348 136.58C235.76 137.336 234.808 138.708 234.332 139.52C231.056 137.168 229.516 132.352 229.152 129.944C228.788 132.436 226.996 137.028 223.272 139.52C222.936 138.792 221.984 137.364 221.396 136.748C226.492 133.332 227.528 127.116 227.528 124.288V119.472H229.18ZM225.176 113.172L228.536 113.676C227.892 118.772 226.604 123.7 224.616 126.836C224.056 126.276 222.6 125.212 221.816 124.736C223.664 122.048 224.7 117.652 225.176 113.172ZM232.792 118.296H233.24L233.744 118.184L235.956 118.744C235.62 121.46 235.088 124.596 234.556 126.64L231.924 125.884C232.26 124.064 232.596 121.096 232.792 118.8V118.296Z" fill="black"/>
<path d="M4.3 157.36H5.52V162.6C5.52 165.44 5.1 169.2 1.6 171.56C1.42 171.28 1.02 170.86 0.74 170.64C4.08 168.58 4.3 165.08 4.3 162.58V157.36ZM5.2 167.7L6.22 166.98C7.2 168.04 8.42 169.52 9 170.42L7.92 171.26C7.36 170.32 6.18 168.8 5.2 167.7ZM1.6 154.4H8.2V166.46H6.98V155.76H2.8V166.5H1.6V154.4ZM11.4 153.2L12.86 153.52C12.1 156.3 10.88 159.08 9.52 160.86C9.26 160.62 8.64 160.16 8.3 159.94C9.66 158.3 10.76 155.76 11.4 153.2ZM11.2 156.38H17.86V157.76H10.5L11.2 156.38ZM17.2 156.38H18.64C18.64 156.38 18.64 156.94 18.62 157.16C18.36 166.64 18.12 169.78 17.4 170.74C16.98 171.3 16.58 171.48 15.92 171.56C15.34 171.62 14.36 171.6 13.38 171.56C13.34 171.12 13.18 170.48 12.92 170.06C13.98 170.16 14.94 170.16 15.34 170.16C15.7 170.16 15.9 170.1 16.1 169.82C16.7 169.14 16.96 165.82 17.2 156.72V156.38ZM9.7 167.3L9.62 166.16L10.3 165.68L15.16 164.78C15.2 165.12 15.32 165.64 15.42 165.92C10.72 166.88 10.08 167.06 9.7 167.3ZM9.7 167.3C9.62 167 9.42 166.36 9.24 166C9.54 165.92 9.8 165.46 10.08 164.78C10.38 164.14 11.32 161.6 11.72 159.32L13.12 159.7C12.52 162.12 11.54 164.72 10.6 166.52V166.54C10.6 166.54 9.7 167 9.7 167.3ZM13.4 162.36L14.48 162.02C15.18 163.58 15.92 165.66 16.2 166.88L15.04 167.32C14.78 166.06 14.1 163.94 13.4 162.36ZM30.36 157.18H31.88C31.64 165.28 31.1 169.78 21.82 171.64C21.7 171.26 21.34 170.7 21.06 170.38C29.92 168.74 30.16 164.8 30.36 157.18ZM21.34 163.98H38.74V165.38H21.34V163.98ZM30.62 167.6L31.4 166.54C34.06 167.68 36.9 169.2 38.62 170.4L37.64 171.56C36 170.34 33.28 168.8 30.62 167.6ZM24.4 158.12L25.2 157.12C26.56 157.64 28.28 158.54 29.16 159.24L28.3 160.38C27.48 159.68 25.76 158.72 24.4 158.12ZM22.2 161.04L23.02 160.02C24.34 160.54 26.06 161.38 26.92 162.04L26.08 163.18C25.24 162.5 23.54 161.6 22.2 161.04ZM22.22 154.52H37.44V155.94H22.22V154.52ZM36.98 154.5H37.26L37.52 154.4L38.62 154.86C37.88 156.48 37 158.3 36.16 159.44L34.94 158.82C35.64 157.8 36.46 156.14 36.98 154.76V154.5ZM44.54 159.02H55.42V160.38H44.54V159.02ZM41.12 162.7H58.86V164.12H41.12V162.7ZM46.38 163.68H47.98C47.56 167.58 46.44 170.28 41.56 171.64C41.4 171.26 41 170.66 40.68 170.36C45.18 169.24 46.04 166.94 46.38 163.68ZM51.44 163.56H52.94V169.18C52.94 169.78 53.08 169.88 53.92 169.88C54.32 169.88 56.22 169.88 56.74 169.88C57.5 169.88 57.64 169.52 57.7 167.22C58.02 167.46 58.66 167.7 59.06 167.82C58.9 170.56 58.46 171.26 56.86 171.26C56.46 171.26 54.16 171.26 53.76 171.26C51.92 171.26 51.44 170.8 51.44 169.2V163.56ZM49.16 153.22H50.74V156.4H49.16V153.22ZM41.58 155.36H58.4V159.6H56.82V156.78H43.1V159.6H41.58V155.36ZM63.4 160.7H68.38V162.1H63.4V160.7ZM67.78 160.7H69.24C69.24 160.7 69.24 161.14 69.24 161.34C69.14 165.86 69.02 167.54 68.6 168.1C68.28 168.46 67.96 168.6 67.4 168.66C66.88 168.72 65.98 168.7 65 168.66C64.96 168.22 64.8 167.64 64.58 167.26C65.48 167.34 66.36 167.34 66.7 167.34C66.98 167.34 67.18 167.32 67.32 167.14C67.62 166.78 67.72 165.28 67.78 160.96V160.7ZM73.42 154.22L74.32 153.28C75.56 153.92 77.14 154.88 77.92 155.58L76.98 156.6C76.22 155.9 74.68 154.88 73.42 154.22ZM76.28 159.64L77.78 160C76.08 165.22 73.1 169.08 69 171.5C68.78 171.2 68.22 170.58 67.9 170.28C71.96 168.12 74.78 164.46 76.28 159.64ZM63.52 156.6H79V158.08H63.52V156.6ZM62.56 156.6H64.12V162.24C64.12 165.08 63.8 169.12 61.98 171.74C61.72 171.44 61.08 170.92 60.72 170.74C62.38 168.28 62.56 164.84 62.56 162.22V156.6ZM70.86 153.24H72.42C72.38 162.44 74.34 169.94 76.94 169.94C77.5 169.94 77.76 168.9 77.88 166.24C78.22 166.58 78.78 166.92 79.18 167.06C78.9 170.48 78.34 171.46 76.82 171.46C72.74 171.46 70.94 162.82 70.86 153.24ZM83.76 158.76H99.24V160.2H83.76V158.76ZM86.96 169.18H96.5V170.6H86.96V169.18ZM82.98 154.74L84.9 155.12C84.88 155.28 84.76 155.36 84.48 155.4V160.38C84.48 163.62 84.18 168.32 81.8 171.64C81.58 171.3 81.02 170.8 80.62 170.62C82.76 167.58 82.98 163.44 82.98 160.36V154.74ZM96.32 153.38L97.58 154.56C93.94 155.5 88.44 156.12 83.74 156.44C83.7 156.06 83.48 155.48 83.34 155.16C87.94 154.82 93.32 154.16 96.32 153.38ZM86.22 163.06H97.5V171.6H95.98V164.46H87.66V171.62H86.22V163.06ZM103.14 172.14L102.68 171.1C104.32 170.42 105.22 169.4 105.22 167.9L104.84 166.2L105.92 167.72C105.64 168.08 105.24 168.18 104.86 168.18C104.04 168.18 103.36 167.7 103.36 166.74C103.36 165.8 104.08 165.3 104.88 165.3C106 165.3 106.6 166.22 106.6 167.62C106.6 169.78 105.24 171.42 103.14 172.14ZM134.92 155.08H136.48V169.46C136.48 170.54 136.22 171.06 135.44 171.3C134.64 171.56 133.24 171.58 131.26 171.58C131.16 171.14 130.86 170.4 130.62 169.96C132.24 170.04 133.86 170.02 134.34 170C134.78 169.98 134.92 169.84 134.92 169.42V155.08ZM123.16 159.08H124.62V168.14H123.16V159.08ZM123.78 159.08H131.36V166.54H123.78V165.1H129.86V160.5H123.78V159.08ZM121.1 154.62H138.94V156.14H121.1V154.62ZM149.88 154.26H157.92V162.74H149.88V161.44H156.48V155.58H149.88V154.26ZM149.98 157.84H157.18V159.16H149.98V157.84ZM149.18 154.26H150.6V170.18H149.18V154.26ZM147.54 169.78C149.28 169.5 151.88 168.96 154.46 168.46L154.56 169.8C152.26 170.32 149.82 170.84 147.98 171.24L147.54 169.78ZM157.98 163.42L159 164.54C157.74 165.52 156.16 166.66 154.96 167.38L154.22 166.48C155.36 165.74 157.04 164.38 157.98 163.42ZM153.52 161.96C154.38 165.84 156.28 169.06 159.38 170.4C159.04 170.7 158.58 171.24 158.36 171.66C155.1 170.04 153.2 166.56 152.24 162.22L153.52 161.96ZM141.02 157.5H148.08V158.92H141.02V157.5ZM144.04 153.2H145.46V171.58H144.04V153.2ZM143.96 158.38L144.92 158.72C144.26 161.92 142.82 165.84 141.32 167.86C141.16 167.46 140.8 166.86 140.54 166.52C141.96 164.72 143.36 161.26 143.96 158.38ZM145.36 160.54C145.88 161.1 147.8 163.54 148.2 164.14L147.28 165.32C146.78 164.32 145.22 162.04 144.62 161.24L145.36 160.54ZM168.6 154.08H178.46V159.26H168.64V157.96H177.02V155.4H168.6V154.08ZM167.9 154.08H169.36V160.14C169.36 163.5 169.06 168.38 166.86 171.6C166.6 171.34 165.98 170.9 165.62 170.76C167.7 167.68 167.9 163.32 167.9 160.14V154.08ZM168.7 161.46H179.14V162.78H168.7V161.46ZM170.3 169.56H177.7V170.8H170.3V169.56ZM173.24 159.1H174.68V165.82H173.24V159.1ZM169.66 165.26H178.52V171.54H177.14V166.54H171V171.62H169.66V165.26ZM160.58 163.84C162.14 163.4 164.52 162.68 166.82 161.94L167.02 163.32C164.9 164.02 162.68 164.74 160.96 165.3L160.58 163.84ZM160.82 157.24H167V158.64H160.82V157.24ZM163.34 153.22H164.72V169.74C164.72 170.56 164.54 170.96 164.04 171.2C163.58 171.44 162.8 171.48 161.54 171.48C161.48 171.12 161.3 170.5 161.1 170.08C161.98 170.1 162.74 170.1 162.98 170.1C163.22 170.1 163.34 170.02 163.34 169.72V153.22ZM190.2 159.16H197.76V160.54H190.2V159.16ZM190.22 164H197.78V165.38H190.22V164ZM190.2 168.86H197.78V170.24H190.2V168.86ZM189.46 154.38H198.5V171.42H197V155.82H190.9V171.48H189.46V154.38ZM181.02 157.5H188.58V158.94H181.02V157.5ZM184.28 153.2H185.72V171.58H184.28V153.2ZM184.2 158.38L185.2 158.72C184.48 161.96 182.94 165.86 181.36 167.88C181.2 167.46 180.82 166.86 180.56 166.52C182.06 164.72 183.58 161.28 184.2 158.38ZM185.58 160.58C186.16 161.14 188.22 163.54 188.7 164.1L187.76 165.34C187.2 164.36 185.52 162.12 184.82 161.3L185.58 160.58ZM203.16 155.78H218.84V157.2H203.16V155.78ZM202.4 155.78H203.92V161.24C203.92 164.28 203.66 168.76 202.02 171.76C201.76 171.48 201.06 171.06 200.72 170.92C202.26 168.08 202.4 164.08 202.4 161.24V155.78ZM209.34 153.44L210.8 153.06C211.3 153.94 211.86 155.06 212.1 155.78L210.58 156.26C210.34 155.5 209.8 154.32 209.34 153.44ZM205.26 160.2L206.56 159.68C207.44 161.86 208.4 164.64 208.84 166.5L207.44 167.1C207.04 165.22 206.08 162.38 205.26 160.2ZM209.6 159.1L210.96 158.7C211.66 160.88 212.4 163.68 212.7 165.54L211.26 165.96C211 164.1 210.26 161.26 209.6 159.1ZM216.38 158.58L217.94 159.16C216.86 162.92 215.12 167.08 212.96 170.4C212.74 170.14 212.28 169.72 211.96 169.5C213.98 166.36 215.58 162.14 216.38 158.58ZM204.16 169.24H219.1V170.68H204.16V169.24ZM228.86 154.06H237.2V161.56H228.78V160.26H235.74V155.36H228.86V154.06ZM228.04 154.06H229.48V167.28H228.04V154.06ZM228.86 157.2H236.26V158.36H228.86V157.2ZM226.64 167.14C228.36 166.8 230.94 166.18 233.46 165.58L233.58 166.88C231.22 167.5 228.76 168.12 226.92 168.58L226.64 167.14ZM233.12 161C234.04 164.06 236.08 166.48 239.08 167.44C238.76 167.74 238.32 168.3 238.12 168.72C234.94 167.48 232.9 164.82 231.86 161.26L233.12 161ZM237.58 161.44L238.78 162.34C237.54 163.26 236.02 164.28 234.82 164.92L233.88 164.14C235.06 163.46 236.66 162.28 237.58 161.44ZM225.22 161.1V168.18H223.76V162.5H220.96V161.1H225.22ZM225.22 167.52C226.16 169 227.94 169.68 230.24 169.78C232.42 169.86 236.92 169.8 239.28 169.64C239.12 170 238.86 170.72 238.8 171.18C236.6 171.26 232.46 171.3 230.24 171.22C227.64 171.12 225.84 170.42 224.56 168.84C223.6 169.7 222.58 170.56 221.5 171.44L220.7 169.9C221.66 169.26 222.84 168.38 223.86 167.52H225.22ZM221.36 154.7L222.48 153.8C223.78 154.66 225.3 155.96 225.98 156.92L224.82 157.9C224.16 156.94 222.68 155.6 221.36 154.7ZM241.02 155.12H250.26V156.38H241.02V155.12ZM240.78 163.68H250.44V164.94H240.78V163.68ZM241.48 158.1H249.84V159.38H241.48V158.1ZM241.7 160.88H249.6V162.14H241.7V160.88ZM244.94 164.22H246.34V170.08C246.34 170.78 246.22 171.18 245.72 171.38C245.24 171.6 244.52 171.62 243.38 171.62C243.32 171.24 243.12 170.7 242.94 170.32C243.74 170.34 244.44 170.34 244.66 170.32C244.88 170.32 244.94 170.26 244.94 170.06V164.22ZM244.92 153.28H246.34V158.92H244.92V153.28ZM242.32 165.64L243.6 165.88C243.18 167.56 242.46 169.2 241.64 170.3C241.38 170.12 240.8 169.8 240.48 169.68C241.32 168.64 241.96 167.14 242.32 165.64ZM247.5 166.08L248.64 165.62C249.24 166.58 249.88 167.84 250.12 168.62L248.94 169.2C248.68 168.4 248.08 167.06 247.5 166.08ZM251.9 156.84H257.96V158.22H251.9V156.84ZM254.34 157.4H255.04V160.96C255.04 162.56 255.64 167.74 259.32 170.34C259.06 170.68 258.6 171.26 258.4 171.62C255.56 169.58 254.52 165.68 254.32 164.04C254.12 165.76 252.94 169.48 249.66 171.62C249.5 171.3 249.08 170.7 248.8 170.42C253 167.74 253.6 162.6 253.6 160.96V157.4H254.34ZM251.96 153.18L253.46 153.42C253 156.88 252.14 160.18 250.84 162.34C250.58 162.1 249.92 161.66 249.56 161.44C250.84 159.46 251.58 156.38 251.96 153.18ZM257.54 156.84H257.76L258.02 156.78L258.98 157.06C258.72 158.82 258.34 160.92 257.94 162.24L256.74 161.9C257.06 160.68 257.36 158.66 257.54 157.12V156.84ZM76.38 179.04H84.34V180.34H76.38V179.04ZM83.92 179.04H84.24L84.5 178.98L85.52 179.56C83.02 184.2 77.32 186.66 71.86 187.7C71.74 187.3 71.42 186.68 71.16 186.36C76.3 185.54 81.84 183.18 83.92 179.3V179.04ZM77.54 177.18L79.2 177.48C77.82 179.72 75.68 181.92 72.54 183.6C72.3 183.24 71.82 182.74 71.46 182.5C74.44 181.06 76.5 178.98 77.54 177.18ZM76.44 179.88C78.7 183.26 83.48 185.32 89.12 186.02C88.8 186.36 88.4 186.98 88.22 187.38C82.52 186.52 77.74 184.28 75.16 180.44L76.44 179.88ZM71.12 188.32H88.88V189.68H71.12V188.32ZM79.18 186.18H80.7V195.6H79.18V186.18ZM78.52 188.92L79.7 189.44C77.9 191.94 74.66 194.14 71.72 195.26C71.5 194.88 71.06 194.34 70.74 194.02C73.64 193.1 76.86 191.08 78.52 188.92ZM81.38 188.9C83.04 191.08 86.24 193.02 89.26 193.9C88.92 194.22 88.46 194.8 88.24 195.18C85.22 194.1 81.98 191.92 80.18 189.44L81.38 188.9ZM102.08 177.46H103.58V195.6H102.08V177.46ZM98.62 178.22L100.06 178.5C99.52 181.3 98.6 184.04 97.46 185.82C97.16 185.6 96.54 185.24 96.16 185.08C97.32 183.4 98.16 180.82 98.62 178.22ZM98.82 181.3H108.16V182.78H98.44L98.82 181.3ZM96.32 187.18H109.04V188.66H96.32V187.18ZM95.34 177.28L96.76 177.72C95.5 181.1 93.56 184.48 91.48 186.74C91.34 186.4 90.9 185.62 90.62 185.26C92.5 183.32 94.28 180.32 95.34 177.28ZM93.32 182.44L94.74 181.02L94.76 181.04V195.58H93.32V182.44ZM112.22 179.86H127.86V191.14H126.32V181.3H113.7V191.26H112.22V179.86ZM113.18 184.22H127.14V185.6H113.18V184.22ZM113.2 188.66H127.12V190.1H113.2V188.66ZM119.16 177.2H120.7V195.58H119.16V177.2ZM132.12 178.58L133.1 177.66C134.16 178.54 135.5 179.8 136.14 180.6L135.12 181.68C134.5 180.84 133.18 179.52 132.12 178.58ZM133.66 195.24L133.38 193.84L133.78 193.2L137.34 190.54C137.44 190.94 137.68 191.52 137.86 191.8C134.48 194.42 133.96 194.84 133.66 195.24ZM130.82 183.48H134.7V184.94H130.82V183.48ZM133.66 195.24C133.52 194.88 133.14 194.26 132.86 193.96C133.24 193.74 133.84 193.14 133.84 192.26V183.48H135.28V193.52C135.28 193.52 133.66 194.68 133.66 195.24ZM139.54 188.7H146.54V189.78H139.54V188.7ZM137.64 178.78H148.58V179.92H137.64V178.78ZM138.12 181.2H147.96V182.3H138.12V181.2ZM137.04 183.7H149.18V184.84H137.04V183.7ZM139.52 191.4H146.58V192.5H139.52V191.4ZM138.46 186.02H146.6V187.18H139.88V195.58H138.46V186.02ZM146.14 186.02H147.58V193.92C147.58 194.68 147.42 195.08 146.86 195.3C146.3 195.52 145.4 195.54 143.98 195.52C143.92 195.16 143.72 194.6 143.54 194.22C144.56 194.26 145.52 194.26 145.78 194.24C146.06 194.24 146.14 194.16 146.14 193.9V186.02ZM142.26 177.2H143.76V184.06H142.26V177.2ZM158.86 178.06H167.2V185.56H158.78V184.26H165.74V179.36H158.86V178.06ZM158.04 178.06H159.48V191.28H158.04V178.06ZM158.86 181.2H166.26V182.36H158.86V181.2ZM156.64 191.14C158.36 190.8 160.94 190.18 163.46 189.58L163.58 190.88C161.22 191.5 158.76 192.12 156.92 192.58L156.64 191.14ZM163.12 185C164.04 188.06 166.08 190.48 169.08 191.44C168.76 191.74 168.32 192.3 168.12 192.72C164.94 191.48 162.9 188.82 161.86 185.26L163.12 185ZM167.58 185.44L168.78 186.34C167.54 187.26 166.02 188.28 164.82 188.92L163.88 188.14C165.06 187.46 166.66 186.28 167.58 185.44ZM155.22 185.1V192.18H153.76V186.5H150.96V185.1H155.22ZM155.22 191.52C156.16 193 157.94 193.68 160.24 193.78C162.42 193.86 166.92 193.8 169.28 193.64C169.12 194 168.86 194.72 168.8 195.18C166.6 195.26 162.46 195.3 160.24 195.22C157.64 195.12 155.84 194.42 154.56 192.84C153.6 193.7 152.58 194.56 151.5 195.44L150.7 193.9C151.66 193.26 152.84 192.38 153.86 191.52H155.22ZM151.36 178.7L152.48 177.8C153.78 178.66 155.3 179.96 155.98 180.92L154.82 181.9C154.16 180.94 152.68 179.6 151.36 178.7ZM171.02 179.12H180.26V180.38H171.02V179.12ZM170.78 187.68H180.44V188.94H170.78V187.68ZM171.48 182.1H179.84V183.38H171.48V182.1ZM171.7 184.88H179.6V186.14H171.7V184.88ZM174.94 188.22H176.34V194.08C176.34 194.78 176.22 195.18 175.72 195.38C175.24 195.6 174.52 195.62 173.38 195.62C173.32 195.24 173.12 194.7 172.94 194.32C173.74 194.34 174.44 194.34 174.66 194.32C174.88 194.32 174.94 194.26 174.94 194.06V188.22ZM174.92 177.28H176.34V182.92H174.92V177.28ZM172.32 189.64L173.6 189.88C173.18 191.56 172.46 193.2 171.64 194.3C171.38 194.12 170.8 193.8 170.48 193.68C171.32 192.64 171.96 191.14 172.32 189.64ZM177.5 190.08L178.64 189.62C179.24 190.58 179.88 191.84 180.12 192.62L178.94 193.2C178.68 192.4 178.08 191.06 177.5 190.08ZM181.9 180.84H187.96V182.22H181.9V180.84ZM184.34 181.4H185.04V184.96C185.04 186.56 185.64 191.74 189.32 194.34C189.06 194.68 188.6 195.26 188.4 195.62C185.56 193.58 184.52 189.68 184.32 188.04C184.12 189.76 182.94 193.48 179.66 195.62C179.5 195.3 179.08 194.7 178.8 194.42C183 191.74 183.6 186.6 183.6 184.96V181.4H184.34ZM181.96 177.18L183.46 177.42C183 180.88 182.14 184.18 180.84 186.34C180.58 186.1 179.92 185.66 179.56 185.44C180.84 183.46 181.58 180.38 181.96 177.18ZM187.54 180.84H187.76L188.02 180.78L188.98 181.06C188.72 182.82 188.34 184.92 187.94 186.24L186.74 185.9C187.06 184.68 187.36 182.66 187.54 181.12V180.84Z" fill="#8C8C8C"/>
<path d="M442.357 116.636V137H437.445V121.23H437.326L432.772 124.014V119.759L437.793 116.636H442.357ZM455.281 137.497C453.504 137.497 451.973 137.076 450.687 136.234C449.401 135.386 448.41 134.17 447.714 132.585C447.018 130.994 446.673 129.082 446.68 126.848C446.686 124.614 447.035 122.718 447.724 121.161C448.42 119.596 449.408 118.406 450.687 117.591C451.973 116.769 453.504 116.358 455.281 116.358C457.057 116.358 458.588 116.769 459.874 117.591C461.167 118.406 462.161 119.596 462.857 121.161C463.553 122.725 463.898 124.621 463.892 126.848C463.892 129.089 463.544 131.004 462.847 132.595C462.151 134.186 461.16 135.402 459.874 136.244C458.595 137.08 457.064 137.497 455.281 137.497ZM455.281 133.47C456.341 133.47 457.2 132.93 457.856 131.849C458.512 130.762 458.837 129.095 458.83 126.848C458.83 125.376 458.681 124.163 458.383 123.209C458.085 122.248 457.67 121.532 457.14 121.061C456.61 120.59 455.99 120.355 455.281 120.355C454.227 120.355 453.375 120.889 452.725 121.956C452.076 123.017 451.748 124.647 451.741 126.848C451.734 128.339 451.877 129.576 452.169 130.557C452.467 131.538 452.884 132.27 453.421 132.754C453.958 133.232 454.578 133.47 455.281 133.47ZM475.132 137.497C473.356 137.497 471.825 137.076 470.539 136.234C469.253 135.386 468.262 134.17 467.566 132.585C466.869 130.994 466.525 129.082 466.531 126.848C466.538 124.614 466.886 122.718 467.575 121.161C468.271 119.596 469.259 118.406 470.539 117.591C471.825 116.769 473.356 116.358 475.132 116.358C476.909 116.358 478.44 116.769 479.726 117.591C481.019 118.406 482.013 119.596 482.709 121.161C483.405 122.725 483.75 124.621 483.743 126.848C483.743 129.089 483.395 131.004 482.699 132.595C482.003 134.186 481.012 135.402 479.726 136.244C478.447 137.08 476.915 137.497 475.132 137.497ZM475.132 133.47C476.193 133.47 477.051 132.93 477.708 131.849C478.364 130.762 478.689 129.095 478.682 126.848C478.682 125.376 478.533 124.163 478.235 123.209C477.936 122.248 477.522 121.532 476.992 121.061C476.461 120.59 475.842 120.355 475.132 120.355C474.078 120.355 473.227 120.889 472.577 121.956C471.927 123.017 471.599 124.647 471.593 126.848C471.586 128.339 471.728 129.576 472.02 130.557C472.318 131.538 472.736 132.27 473.273 132.754C473.81 133.232 474.43 133.47 475.132 133.47ZM497.967 133.182V132.108C497.967 131.273 498.146 130.5 498.504 129.791C498.868 129.082 499.395 128.512 500.085 128.081C500.774 127.65 501.616 127.435 502.61 127.435C503.624 127.435 504.476 127.65 505.166 128.081C505.862 128.505 506.385 129.072 506.737 129.781C507.095 130.484 507.274 131.259 507.274 132.108V133.182C507.274 134.017 507.095 134.789 506.737 135.499C506.379 136.208 505.852 136.778 505.156 137.209C504.46 137.64 503.611 137.855 502.61 137.855C501.603 137.855 500.754 137.64 500.065 137.209C499.375 136.778 498.852 136.208 498.494 135.499C498.142 134.789 497.967 134.017 497.967 133.182ZM501.139 132.108V133.182C501.139 133.606 501.241 134.014 501.447 134.405C501.659 134.796 502.047 134.991 502.61 134.991C503.187 134.991 503.575 134.803 503.774 134.425C503.972 134.04 504.072 133.626 504.072 133.182V132.108C504.072 131.664 503.976 131.246 503.784 130.855C503.598 130.457 503.207 130.259 502.61 130.259C502.053 130.259 501.669 130.457 501.457 130.855C501.245 131.246 501.139 131.664 501.139 132.108ZM487.407 121.528V120.455C487.407 119.606 487.589 118.83 487.954 118.128C488.325 117.419 488.856 116.852 489.545 116.428C490.234 115.997 491.07 115.781 492.051 115.781C493.065 115.781 493.917 115.997 494.606 116.428C495.302 116.852 495.829 117.419 496.187 118.128C496.545 118.83 496.724 119.606 496.724 120.455V121.528C496.724 122.377 496.542 123.152 496.177 123.855C495.819 124.558 495.292 125.118 494.596 125.536C493.9 125.953 493.052 126.162 492.051 126.162C491.05 126.162 490.201 125.95 489.505 125.526C488.816 125.101 488.292 124.538 487.934 123.835C487.583 123.133 487.407 122.364 487.407 121.528ZM490.609 120.455V121.528C490.609 121.973 490.712 122.387 490.917 122.771C491.129 123.149 491.507 123.338 492.051 123.338C492.634 123.338 493.022 123.149 493.214 122.771C493.413 122.387 493.512 121.973 493.512 121.528V120.455C493.512 120.01 493.419 119.593 493.234 119.202C493.048 118.804 492.654 118.605 492.051 118.605C491.494 118.605 491.113 118.807 490.907 119.212C490.708 119.616 490.609 120.03 490.609 120.455ZM488.909 137L502.909 116.636H505.623L491.623 137H488.909ZM521.685 113.2H525.269V118.296H521.685V113.2ZM511.633 115.72H535.573V122.356H531.989V118.828H515.049V122.356H511.633V115.72ZM520.677 119.5L524.205 120.256C522.077 124.764 519.221 130.336 517.205 133.836L513.677 132.884C515.777 129.468 518.745 123.812 520.677 119.5ZM527.733 125.912L531.541 126.416C529.077 135.012 523.197 138.148 513.593 139.548C513.285 138.736 512.305 137.224 511.689 136.468C520.873 135.572 526.221 133.08 527.733 125.912ZM511.073 123.672H536.077V126.836H511.073V123.672ZM515.777 132.296L518.213 129.972C523.617 131.456 531.037 134.312 534.957 136.72L532.241 139.464C528.713 137.112 521.433 133.976 515.777 132.296ZM551.449 116.42C549.125 119.724 544.841 123.504 540.249 126.052C539.801 125.268 538.849 124.036 538.121 123.336C542.937 120.9 547.473 116.588 549.545 113.116H553.045C556.041 117.428 560.605 121.096 565.057 123C564.217 123.868 563.461 124.988 562.845 126.024C558.533 123.644 553.829 119.752 551.449 116.42ZM541.929 129.552H561.081V132.464H541.929V129.552ZM543.357 123.364H559.793V126.304H543.357V123.364ZM539.689 135.852H563.601V138.848H539.689V135.852ZM549.685 124.68H553.241V137.532H549.685V124.68Z" fill="black"/>
<path d="M397.16 153.2H398.74V156.42H397.16V153.2ZM389.7 155.32H406.4V159.64H404.82V156.74H391.22V159.64H389.7V155.32ZM396.36 157.64L397.92 157.98C396.44 161.02 394.34 165.06 392.92 167.48L391.38 167.06C392.84 164.66 395 160.58 396.36 157.64ZM401.66 161.78L403.32 162.02C401.68 168.22 397.4 170.54 390.5 171.64C390.34 171.28 389.88 170.62 389.6 170.28C396.38 169.44 400.36 167.34 401.66 161.78ZM389.12 160.88H406.88V162.3H389.12V160.88ZM392.54 166.36L393.56 165.3C397.76 166.46 403.12 168.62 405.92 170.4L404.8 171.64C402.14 169.86 396.84 167.6 392.54 166.36ZM417.92 154.66C416.28 157.1 413.06 160.08 409.68 162.06C409.48 161.7 409.06 161.18 408.74 160.86C412.18 158.96 415.52 155.78 417.06 153.18H418.6C420.68 156.14 424.18 159.06 427.32 160.62C426.94 161 426.58 161.5 426.32 161.94C423.22 160.16 419.72 157.18 417.92 154.66ZM411.16 165.06H424.8V166.4H411.16V165.06ZM412.06 160.58H424.02V161.94H412.06V160.58ZM409.52 169.7H426.56V171.06H409.52V169.7ZM417.14 161.14H418.72V170.46H417.14V161.14ZM433.8 162.24C435.98 166.68 440.66 169.36 447.22 170.24C446.88 170.58 446.48 171.24 446.26 171.66C439.58 170.64 434.92 167.76 432.42 162.74L433.8 162.24ZM430.44 160.84H443.48V162.3H430.44V160.84ZM429.52 156.26H446.4V157.76H429.52V156.26ZM437.18 153.22H438.72V161.52H437.18V153.22ZM443 160.84H443.34L443.64 160.78L444.66 161.4C442.18 167.56 436.24 170.4 429.6 171.6C429.46 171.22 429.06 170.52 428.78 170.18C435.28 169.16 440.92 166.62 443 161.14V160.84ZM454.88 157.66H467.08V159.18H454.88V157.66ZM463.02 153.44H464.54V169.56C464.54 170.7 464.22 171.16 463.46 171.38C462.68 171.64 461.32 171.66 459.14 171.64C459.06 171.24 458.78 170.56 458.54 170.14C460.24 170.2 461.9 170.2 462.36 170.18C462.84 170.14 463.02 170.02 463.02 169.56V153.44ZM456.14 161.9L457.44 161.28C458.48 162.84 459.82 164.92 460.46 166.14L459.06 166.9C458.46 165.66 457.16 163.5 456.14 161.9ZM451.7 158.66L453.2 157.14L453.22 157.18V171.56H451.7V158.66ZM453.88 153.34L455.34 153.78C454 157.26 451.9 160.7 449.68 162.96C449.5 162.6 449.02 161.84 448.74 161.48C450.8 159.52 452.72 156.46 453.88 153.34ZM471.14 172.14L470.68 171.1C472.32 170.42 473.22 169.4 473.22 167.9L472.84 166.2L473.92 167.72C473.64 168.08 473.24 168.18 472.86 168.18C472.04 168.18 471.36 167.7 471.36 166.74C471.36 165.8 472.08 165.3 472.88 165.3C474 165.3 474.6 166.22 474.6 167.62C474.6 169.78 473.24 171.42 471.14 172.14ZM499.94 160.08H501.46V171.62H499.94V160.08ZM494.1 163.02H507.08V164.4H494.1V163.02ZM501.88 163.56C503.08 165.96 505.42 168.38 507.6 169.58C507.28 169.86 506.8 170.4 506.54 170.76C504.36 169.36 502.04 166.66 500.72 164L501.88 163.56ZM499.6 163.46L500.78 163.9C499.44 166.66 496.96 169.34 494.58 170.72C494.32 170.36 493.86 169.84 493.54 169.54C495.88 168.38 498.34 165.9 499.6 163.46ZM497.02 155.5V159.16H504.48V155.5H497.02ZM495.6 154.16H505.96V160.52H495.6V154.16ZM493.52 153.26L494.94 153.7C493.58 157.08 491.48 160.44 489.3 162.66C489.14 162.32 488.72 161.54 488.44 161.18C490.44 159.28 492.36 156.3 493.52 153.26ZM491.44 158.42L492.86 157L492.88 157.02V171.56H491.44V158.42ZM517.58 163.4V164.72H524.38V163.4H517.58ZM517.58 161.12V162.42H524.38V161.12H517.58ZM516.22 160.12H525.78V165.74H516.22V160.12ZM520.22 153.2H521.66V155.54H520.22V153.2ZM520.22 165.5H521.66V171.6H520.22V165.5ZM515.66 154.68H526.66V155.9H515.66V154.68ZM514.88 157.76H527.1V159H514.88V157.76ZM514.7 167.22H527.18V168.46H514.7V167.22ZM523.2 155.64L524.64 155.96C524.24 156.72 523.86 157.52 523.52 158.06L522.28 157.78C522.58 157.18 523 156.26 523.2 155.64ZM517.38 155.96L518.62 155.7C518.98 156.34 519.28 157.22 519.4 157.78L518.08 158.12C518 157.52 517.7 156.64 517.38 155.96ZM509.6 154.08H514.32V155.44H510.96V171.62H509.6V154.08ZM513.86 154.08H514.12L514.36 154.02L515.32 154.6C514.74 156.24 514 158.3 513.32 159.9C514.8 161.56 515.12 162.96 515.12 164.2C515.12 165.28 514.9 166.12 514.34 166.52C514.06 166.7 513.7 166.82 513.3 166.88C512.9 166.92 512.4 166.92 511.94 166.9C511.92 166.54 511.8 165.96 511.58 165.58C512.04 165.62 512.42 165.64 512.74 165.6C512.98 165.6 513.2 165.54 513.36 165.42C513.68 165.2 513.78 164.66 513.78 164.06C513.78 162.98 513.42 161.62 511.98 160.06C512.7 158.24 513.44 155.86 513.86 154.48V154.08ZM529.68 154.98L530.46 153.94C531.9 154.42 533.74 155.28 534.66 155.98L533.88 157.16C532.98 156.44 531.16 155.52 529.68 154.98ZM528.98 160.1C530.44 159.68 532.6 159 534.78 158.3L535.02 159.62C533.06 160.28 531.02 160.94 529.42 161.48L528.98 160.1ZM537.68 153.28L539.1 153.48C538.42 155.24 537.34 157.08 535.54 158.54C535.3 158.2 534.82 157.78 534.48 157.6C536.12 156.38 537.16 154.68 537.68 153.28ZM537.7 155.06H545.28V156.24H536.86L537.7 155.06ZM544.94 155.06H545.18L545.44 155L546.52 155.3C546 156.4 545.42 157.6 544.9 158.4L543.6 158.02C544.04 157.32 544.58 156.22 544.94 155.26V155.06ZM531.64 162.58H544.58V168.02H543.04V163.96H533.12V168.16H531.64V162.58ZM537.44 164.56H538.92C538.24 168.54 536.4 170.7 529.66 171.64C529.56 171.3 529.24 170.72 528.98 170.42C535.34 169.64 536.86 167.86 537.44 164.56ZM538.3 168.52L539.14 167.42C541.6 168.16 544.94 169.42 546.7 170.28L545.82 171.54C544.12 170.64 540.82 169.32 538.3 168.52ZM540.18 155.66H541.68C541.04 158.58 539.54 160.94 535.32 162.22C535.16 161.88 534.8 161.36 534.5 161.12C538.4 160.08 539.64 157.98 540.18 155.66ZM541.06 157.02C542.1 158.88 544.36 160.32 546.98 160.88C546.66 161.16 546.28 161.7 546.08 162.08C543.36 161.3 541.08 159.58 539.94 157.34L541.06 157.02ZM557.92 154.66C556.26 157.04 553.04 159.8 549.66 161.6C549.48 161.24 549.06 160.72 548.74 160.4C552.2 158.66 555.52 155.7 557.06 153.18H558.6C560.72 156.08 564.18 158.76 567.32 160.16C566.96 160.52 566.6 161.04 566.34 161.48C563.24 159.88 559.76 157.14 557.92 154.66ZM552.96 159.3H563V160.66H552.96V159.3ZM550.38 163.32H565.6V164.66H550.38V163.32ZM549.46 169.64H566.56V170.96H549.46V169.64ZM557.12 159.82H558.7V170.34H557.12V159.82ZM552.04 165.68L553.26 165.18C554.08 166.28 554.9 167.8 555.18 168.8L553.88 169.36C553.62 168.36 552.84 166.8 552.04 165.68ZM562.5 165.14L563.92 165.72C563.16 166.98 562.22 168.42 561.48 169.36L560.34 168.86C561.06 167.88 562 166.28 562.5 165.14ZM577.16 153.2H578.74V156.42H577.16V153.2ZM569.7 155.32H586.4V159.64H584.82V156.74H571.22V159.64H569.7V155.32ZM576.36 157.64L577.92 157.98C576.44 161.02 574.34 165.06 572.92 167.48L571.38 167.06C572.84 164.66 575 160.58 576.36 157.64ZM581.66 161.78L583.32 162.02C581.68 168.22 577.4 170.54 570.5 171.64C570.34 171.28 569.88 170.62 569.6 170.28C576.38 169.44 580.36 167.34 581.66 161.78ZM569.12 160.88H586.88V162.3H569.12V160.88ZM572.54 166.36L573.56 165.3C577.76 166.46 583.12 168.62 585.92 170.4L584.8 171.64C582.14 169.86 576.84 167.6 572.54 166.36ZM597.92 154.66C596.28 157.1 593.06 160.08 589.68 162.06C589.48 161.7 589.06 161.18 588.74 160.86C592.18 158.96 595.52 155.78 597.06 153.18H598.6C600.68 156.14 604.18 159.06 607.32 160.62C606.94 161 606.58 161.5 606.32 161.94C603.22 160.16 599.72 157.18 597.92 154.66ZM591.16 165.06H604.8V166.4H591.16V165.06ZM592.06 160.58H604.02V161.94H592.06V160.58ZM589.52 169.7H606.56V171.06H589.52V169.7ZM597.14 161.14H598.72V170.46H597.14V161.14Z" fill="#8C8C8C"/>
<path d="M820.416 118.492L824 119.192C821.872 122.216 819.016 124.736 814.704 126.724C814.256 125.94 813.22 124.764 812.492 124.232C816.44 122.72 819.016 120.592 820.416 118.492ZM821.2 120.368H829.572V122.888H818.904L821.2 120.368ZM828.564 120.368H829.208L829.768 120.228L832.036 121.572C828.34 127.76 820.416 131.12 812.352 132.688C812.044 131.82 811.344 130.448 810.756 129.72C818.26 128.572 825.764 125.548 828.564 120.844V120.368ZM819.856 122.272C823.104 125.912 829.628 128.152 837.188 128.88C836.432 129.664 835.508 131.176 835.032 132.128C827.332 131.064 820.948 128.32 816.944 123.56L819.856 122.272ZM816.076 130.756H832.176V139.464H828.732V133.5H819.352V139.52H816.076V130.756ZM817.728 135.908H830.412V138.652H817.728V135.908ZM822.18 113.256H825.652V117.232H822.18V113.256ZM811.932 115.524H836.068V121.712H832.624V118.548H815.208V121.712H811.932V115.524ZM842.032 117.428H845.56V123.812C845.56 128.46 844.972 135.404 841.668 139.744C841.052 139.128 839.54 138.064 838.7 137.7C841.752 133.696 842.032 127.9 842.032 123.812V117.428ZM849.732 113.9L853.064 113.06C853.68 114.292 854.352 115.888 854.688 116.952L851.216 117.96C850.936 116.868 850.264 115.16 849.732 113.9ZM844.244 117.428H862.248V129.58H858.804V120.564H844.244V117.428ZM844.3 124.988H860.54V128.096H844.3V124.988ZM877.844 114.32H890.752V116.952H877.844V114.32ZM877.396 122.384H891.256V125.016H877.396V122.384ZM877.396 126.388H891.144V129.02H877.396V126.388ZM878.74 135.74H889.884V138.4H878.74V135.74ZM875.184 118.324H893.216V121.04H875.184V118.324ZM876.948 130.42H891.648V139.408H888.26V133.024H880.168V139.492H876.948V130.42ZM873.112 113.284L876.248 114.292C874.344 119.052 871.264 124.064 868.072 127.228C867.792 126.444 866.896 124.596 866.336 123.784C868.996 121.264 871.6 117.288 873.112 113.284ZM870.424 121.04L873.588 117.848L873.616 117.876V139.436H870.424V121.04ZM900.02 113.34H903.072V122.328H900.02V113.34ZM895.204 116.056H907.776V118.912H895.204V116.056ZM898.648 123.476V126.668H904.36V123.476H898.648ZM895.876 120.928H907.272V129.216H895.876V120.928ZM900.02 127.452L901.952 128.348C900.748 131.82 898.648 135.768 896.324 137.84C896.044 136.916 895.344 135.516 894.868 134.648C896.94 133.052 899.012 130.056 900.02 127.452ZM900.356 122.328H902.736V127.732H903.1V139.464H899.992V127.732H900.356V122.328ZM912.116 115.216H917.464V117.876H910.016L912.116 115.216ZM911.5 113.172L914.468 113.676C913.236 116.448 911.752 119.332 909.568 121.852C909.008 121.292 907.888 120.592 907.132 120.284C909.176 118.1 910.66 115.356 911.5 113.172ZM916.568 115.216H917.156L917.576 115.104L919.48 116.28C918.612 118.268 917.156 120.76 915.952 122.384C915.42 121.992 914.468 121.404 913.824 121.068C914.916 119.612 916.064 117.26 916.568 115.748V115.216ZM900.972 130.224L902.876 128.488C904.528 130 906.768 132.184 907.776 133.584L905.76 135.628C904.78 134.172 902.624 131.848 900.972 130.224ZM908.56 120.732H920.152V133.556H917.156V123.112H911.444V133.668H908.56V120.732ZM912.956 124.092H915.728C915.616 133.22 915.084 137.448 907.944 139.66C907.692 139.016 906.964 137.924 906.404 137.448C912.704 135.6 912.9 132.324 912.956 124.092ZM913.992 135.264L915.784 133.444C917.604 134.536 920.18 136.244 921.468 137.364L919.564 139.436C918.388 138.288 915.868 136.496 913.992 135.264Z" fill="black"/>
<path d="M749.895 153.94H754.535V155.34H749.895V153.94ZM749.895 158.62H754.575V160.02H749.895V158.62ZM757.695 160.8H764.955V162.2H757.695V160.8ZM749.855 163.42H754.535V164.84H749.855V163.42ZM749.275 153.94H750.655V161.14C750.655 164.26 750.455 168.68 749.035 171.64C748.755 171.4 748.155 171.06 747.795 170.92C749.175 168.1 749.275 164.08 749.275 161.14V153.94ZM753.695 153.94H755.095V169.82C755.095 170.62 754.915 171.08 754.415 171.34C753.895 171.58 753.095 171.62 751.735 171.6C751.675 171.24 751.495 170.56 751.295 170.18C752.235 170.2 753.075 170.2 753.315 170.18C753.595 170.16 753.695 170.08 753.695 169.8V153.94ZM763.915 154H765.355V157.88C765.355 158.62 765.195 159.02 764.555 159.24C763.935 159.46 762.935 159.46 761.415 159.46C761.335 159.04 761.115 158.54 760.935 158.18C762.135 158.2 763.195 158.2 763.515 158.18C763.835 158.18 763.915 158.1 763.915 157.86V154ZM764.555 160.8H764.815L765.055 160.76L765.935 161.06C764.935 166.18 762.375 169.64 759.255 171.5C759.075 171.16 758.675 170.64 758.375 170.38C761.215 168.88 763.695 165.46 764.555 161.08V160.8ZM759.935 161.66C761.075 165.54 763.395 168.96 766.535 170.48C766.195 170.76 765.775 171.28 765.555 171.62C762.315 169.86 759.995 166.24 758.735 161.98L759.935 161.66ZM756.855 154H764.315V155.4H758.275V171.6H756.855V154ZM769.655 164.38H783.535V165.7H769.655V164.38ZM783.035 164.38H784.535C784.535 164.38 784.495 164.82 784.455 165.04C783.995 168.68 783.555 170.22 782.855 170.84C782.435 171.24 781.975 171.34 781.235 171.38C780.635 171.4 779.435 171.4 778.235 171.32C778.215 170.92 778.015 170.36 777.755 169.98C779.015 170.1 780.315 170.12 780.815 170.12C781.235 170.12 781.475 170.1 781.695 169.94C782.215 169.5 782.655 167.98 783.015 164.58L783.035 164.38ZM776.035 162.38L777.595 162.52C776.795 167.94 774.155 170.34 769.095 171.58C768.935 171.24 768.535 170.6 768.255 170.3C773.095 169.38 775.475 167.22 776.035 162.38ZM773.555 155.26H783.255V156.56H773.555V155.26ZM782.895 155.26H783.195L783.455 155.2L784.375 155.82C781.475 160.14 774.815 162.14 768.635 162.86C768.535 162.48 768.275 161.88 768.035 161.54C773.975 160.98 780.475 159.1 782.895 155.46V155.26ZM773.535 156.78C775.715 159.6 780.555 160.94 786.335 161.28C786.035 161.62 785.675 162.2 785.495 162.62C779.655 162.14 774.815 160.6 772.295 157.3L773.535 156.78ZM774.775 153.18L776.335 153.48C774.995 155.66 772.915 157.86 769.875 159.56C769.675 159.2 769.235 158.66 768.935 158.44C771.755 156.98 773.735 154.94 774.775 153.18ZM788.695 154.52L789.855 153.76C790.975 154.76 792.295 156.16 792.915 157.08L791.675 157.98C791.095 157.02 789.815 155.56 788.695 154.52ZM792.355 160.7V167.98H790.895V162.12H788.115V160.7H792.355ZM791.595 167.2C792.275 167.2 792.735 167.8 793.855 168.48C795.155 169.3 796.855 169.44 799.095 169.44C801.455 169.44 804.475 169.28 806.415 169.06C806.215 169.48 805.975 170.24 805.955 170.7C804.535 170.78 800.975 170.88 799.075 170.88C796.575 170.88 794.895 170.68 793.515 169.8C792.655 169.26 792.015 168.6 791.575 168.6C790.895 168.6 789.935 169.78 788.915 171.14L787.855 169.74C789.235 168.24 790.595 167.2 791.595 167.2ZM793.775 156.82H805.815V158.24H793.775V156.82ZM801.515 153.28H803.055V166.18C803.055 167.2 802.775 167.64 802.055 167.88C801.375 168.12 800.155 168.16 798.255 168.16C798.195 167.72 797.935 167.06 797.715 166.62C799.195 166.66 800.575 166.66 800.975 166.66C801.375 166.62 801.515 166.52 801.515 166.16V153.28ZM794.735 160.46L795.935 159.82C796.955 161.04 798.215 162.7 798.795 163.74L797.535 164.52C796.995 163.46 795.755 161.72 794.735 160.46ZM813.243 155.455V170H811.915V156.847H811.829L808.42 159.112V157.734L811.858 155.455H813.243ZM822.177 170.199C821.155 170.199 820.281 169.905 819.557 169.318C818.837 168.726 818.283 167.872 817.895 166.754C817.511 165.637 817.319 164.295 817.319 162.727C817.319 161.165 817.511 159.827 817.895 158.714C818.283 157.597 818.839 156.742 819.564 156.151C820.293 155.554 821.164 155.256 822.177 155.256C823.191 155.256 824.059 155.554 824.784 156.151C825.513 156.742 826.069 157.597 826.453 158.714C826.841 159.827 827.035 161.165 827.035 162.727C827.035 164.295 826.841 165.637 826.453 166.754C826.069 167.872 825.515 168.726 824.791 169.318C824.071 169.905 823.2 170.199 822.177 170.199ZM822.177 169.006C823.3 169.006 824.175 168.459 824.805 167.365C825.435 166.267 825.75 164.721 825.75 162.727C825.75 161.402 825.605 160.27 825.317 159.332C825.032 158.39 824.623 157.67 824.088 157.173C823.558 156.676 822.921 156.428 822.177 156.428C821.065 156.428 820.191 156.982 819.557 158.089C818.922 159.193 818.605 160.739 818.605 162.727C818.605 164.053 818.747 165.185 819.031 166.122C819.32 167.06 819.729 167.775 820.26 168.267C820.795 168.759 821.434 169.006 822.177 169.006ZM834.443 170.199C833.42 170.199 832.547 169.905 831.822 169.318C831.103 168.726 830.549 167.872 830.16 166.754C829.777 165.637 829.585 164.295 829.585 162.727C829.585 161.165 829.777 159.827 830.16 158.714C830.549 157.597 831.105 156.742 831.829 156.151C832.559 155.554 833.43 155.256 834.443 155.256C835.456 155.256 836.325 155.554 837.05 156.151C837.779 156.742 838.335 157.597 838.719 158.714C839.107 159.827 839.301 161.165 839.301 162.727C839.301 164.295 839.107 165.637 838.719 166.754C838.335 167.872 837.781 168.726 837.057 169.318C836.337 169.905 835.466 170.199 834.443 170.199ZM834.443 169.006C835.565 169.006 836.441 168.459 837.071 167.365C837.701 166.267 838.015 164.721 838.015 162.727C838.015 161.402 837.871 160.27 837.582 159.332C837.298 158.39 836.889 157.67 836.354 157.173C835.823 156.676 835.186 156.428 834.443 156.428C833.33 156.428 832.457 156.982 831.822 158.089C831.188 159.193 830.871 160.739 830.871 162.727C830.871 164.053 831.013 165.185 831.297 166.122C831.586 167.06 831.995 167.775 832.525 168.267C833.06 168.759 833.7 169.006 834.443 169.006ZM846.709 170.199C845.686 170.199 844.812 169.905 844.088 169.318C843.368 168.726 842.814 167.872 842.426 166.754C842.042 165.637 841.851 164.295 841.851 162.727C841.851 161.165 842.042 159.827 842.426 158.714C842.814 157.597 843.371 156.742 844.095 156.151C844.824 155.554 845.695 155.256 846.709 155.256C847.722 155.256 848.591 155.554 849.315 156.151C850.044 156.742 850.601 157.597 850.984 158.714C851.372 159.827 851.567 161.165 851.567 162.727C851.567 164.295 851.372 165.637 850.984 166.754C850.601 167.872 850.047 168.726 849.322 169.318C848.603 169.905 847.731 170.199 846.709 170.199ZM846.709 169.006C847.831 169.006 848.707 168.459 849.336 167.365C849.966 166.267 850.281 164.721 850.281 162.727C850.281 161.402 850.137 160.27 849.848 159.332C849.564 158.39 849.154 157.67 848.619 157.173C848.089 156.676 847.452 156.428 846.709 156.428C845.596 156.428 844.722 156.982 844.088 158.089C843.453 159.193 843.136 160.739 843.136 162.727C843.136 164.053 843.278 165.185 843.562 166.122C843.851 167.06 844.261 167.775 844.791 168.267C845.326 168.759 845.965 169.006 846.709 169.006ZM854.078 154.72H871.598V156.18H854.078V154.72ZM860.318 160.28H868.738V161.74H860.318V160.28ZM868.218 160.28H869.778C869.778 160.28 869.758 160.8 869.738 161.02C869.398 167.48 869.058 169.9 868.278 170.74C867.818 171.26 867.318 171.4 866.538 171.46C865.798 171.52 864.378 171.48 863.018 171.4C862.978 170.96 862.778 170.34 862.478 169.92C863.978 170.08 865.438 170.08 865.978 170.08C866.438 170.08 866.698 170.04 866.918 169.82C867.578 169.24 867.918 166.74 868.218 160.54V160.28ZM859.498 155.9H861.038C860.878 161.58 860.518 168.36 854.598 171.64C854.358 171.26 853.898 170.78 853.498 170.48C859.178 167.48 859.358 161.1 859.498 155.9ZM878.747 168.814V159.822H879.961V168.814H878.747ZM874.855 164.922V163.714H883.854V164.922H874.855ZM892.245 161.36H903.405V162.68H893.685V171.54H892.245V161.36ZM891.825 154.82H904.745V156.12H891.825V154.82ZM902.905 161.36H904.305V170.08C904.305 170.78 904.145 171.08 903.625 171.28C903.125 171.46 902.245 171.46 900.845 171.46C900.785 171.14 900.605 170.72 900.445 170.42C901.425 170.44 902.305 170.44 902.545 170.42C902.825 170.4 902.905 170.34 902.905 170.1V161.36ZM895.165 153.22H896.585V157.66H895.165V153.22ZM899.885 153.22H901.305V157.66H899.885V153.22ZM891.705 158.28H904.885V159.56H891.705V158.28ZM895.865 164.94L896.685 164.2C897.325 164.84 898.085 165.76 898.425 166.36L897.545 167.22C897.225 166.6 896.505 165.62 895.865 164.94ZM896.025 158.96H897.285C897.265 163.54 896.865 166.68 894.785 168.88C894.605 168.66 894.085 168.22 893.785 168.02C895.785 166.16 896.045 163.1 896.025 158.96ZM899.445 164.78L900.425 164.1C901.225 165.14 902.165 166.54 902.525 167.42L901.525 168.22C901.145 167.3 900.265 165.84 899.445 164.78ZM899.585 158.88L900.825 158.92C900.765 163.66 900.385 167 898.345 169.34C898.145 169.14 897.625 168.74 897.305 168.56C899.285 166.52 899.585 163.28 899.585 158.88ZM887.665 154.66L888.605 153.66C889.645 154.26 890.985 155.14 891.645 155.78L890.685 156.9C890.045 156.26 888.725 155.3 887.665 154.66ZM886.685 160.18L887.585 159.14C888.645 159.66 890.025 160.46 890.725 161.04L889.805 162.22C889.145 161.6 887.785 160.74 886.685 160.18ZM887.105 170.2C888.025 168.7 889.325 166.16 890.285 163.98L891.445 164.9C890.585 166.96 889.425 169.36 888.425 171.16L887.105 170.2ZM911.005 164.86H920.805V163.5H911.005V164.86ZM911.005 162.5H920.805V161.18H911.005V162.5ZM922.305 160.14V165.88H909.565V160.14H922.305ZM920.645 155.92C920.205 156.76 919.765 157.54 919.385 158.14L918.045 157.78C918.405 157.16 918.865 156.22 919.105 155.58L920.645 155.92ZM912.585 155.6C913.005 156.28 913.405 157.18 913.545 157.76L912.125 158.14C911.985 157.5 911.625 156.6 911.225 155.92L912.585 155.6ZM916.585 153.2V155.38H915.065V153.2H916.585ZM924.505 157.92V159.14H907.305V157.92H924.505ZM923.465 154.54V155.76H908.205V154.54H923.465ZM910.785 167.36C910.225 168.8 909.345 170.28 907.865 171.16L906.705 170.36C908.085 169.58 909.025 168.22 909.545 166.88L910.785 167.36ZM921.485 166.72C922.845 167.72 924.385 169.18 925.065 170.26L923.845 171.02C923.185 169.96 921.705 168.44 920.345 167.4L921.485 166.72ZM914.765 165.86C915.885 166.44 917.325 167.32 918.065 167.96L917.185 168.86C916.465 168.22 915.065 167.28 913.925 166.66L914.765 165.86ZM913.265 169.62C913.265 170.08 913.445 170.16 914.485 170.16C914.965 170.16 917.385 170.16 918.025 170.16C918.885 170.16 919.005 169.92 919.105 168.16C919.425 168.36 920.025 168.56 920.405 168.66C920.245 170.9 919.785 171.44 918.165 171.44C917.725 171.44 914.805 171.44 914.385 171.44C912.325 171.44 911.805 171.06 911.805 169.62V167.04H913.265V169.62ZM931.065 160.48H940.625V161.88H931.065V160.48ZM932.045 156.06H942.725V157.5H932.045V156.06ZM926.925 164.8H944.825V166.24H926.925V164.8ZM940.085 160.48H941.625C941.625 160.48 941.605 160.98 941.565 161.2C940.985 167.46 940.425 169.96 939.485 170.88C938.985 171.4 938.505 171.52 937.685 171.58C936.965 171.64 935.545 171.6 934.085 171.52C934.065 171.08 933.865 170.44 933.565 170.02C935.105 170.16 936.585 170.18 937.165 170.18C937.665 170.18 937.925 170.14 938.205 169.92C939.005 169.24 939.545 166.72 940.085 160.76V160.48ZM931.905 153.18L933.465 153.32C932.885 156.42 931.985 160.52 931.365 162.92L929.805 162.76C930.505 160.34 931.405 156.18 931.905 153.18ZM951.905 165.14H953.385V169.34C953.385 169.88 953.565 170 954.625 170C955.125 170 957.585 170 958.245 170C959.145 170 959.305 169.7 959.405 167.54C959.725 167.8 960.345 168.02 960.765 168.12C960.565 170.72 960.125 171.36 958.365 171.36C957.905 171.36 954.945 171.36 954.525 171.36C952.425 171.36 951.905 170.92 951.905 169.34V165.14ZM953.225 164.24L954.265 163.36C955.685 164.1 957.285 165.28 958.025 166.24L956.905 167.2C956.185 166.24 954.625 165 953.225 164.24ZM960.165 165.76L961.425 165.12C962.945 166.5 964.505 168.44 965.105 169.9L963.725 170.62C963.185 169.2 961.685 167.2 960.165 165.76ZM949.305 165.24L950.645 165.64C950.205 167.6 949.465 169.56 947.885 170.7L946.645 169.88C948.105 168.86 948.945 167.08 949.305 165.24ZM948.485 155.62H963.205V162.88H961.705V156.98H949.945V163.02H948.485V155.62ZM949.365 160.74H962.405V162.1H949.365V160.74ZM955.025 153.22H956.525V164.1H955.025V153.22ZM974.385 160.72H977.645V161.98H974.385V160.72ZM977.165 160.72H978.485C978.485 160.72 978.485 161.14 978.485 161.3C978.385 166.18 978.285 167.88 977.885 168.42C977.625 168.78 977.325 168.92 976.865 168.98C976.485 169.02 975.785 169.02 975.085 168.98C975.065 168.58 974.945 168.04 974.745 167.7C975.405 167.76 976.005 167.76 976.225 167.76C976.485 167.76 976.625 167.72 976.745 167.54C976.985 167.18 977.085 165.62 977.165 160.98V160.72ZM981.285 153.98L982.285 153.44C983.025 154.06 983.885 154.98 984.305 155.6L983.225 156.22C982.845 155.6 982.005 154.66 981.285 153.98ZM983.305 159.78L984.645 160.28C983.525 165.28 981.205 169.18 978.205 171.52C978.005 171.26 977.585 170.86 977.245 170.64C980.125 168.44 982.325 164.66 983.305 159.78ZM974.205 156.58H985.045V157.94H974.205V156.58ZM973.365 156.58H974.825V162C974.825 164.8 974.565 168.94 973.045 171.68C972.805 171.4 972.205 170.9 971.865 170.74C973.225 168.18 973.365 164.6 973.365 161.98V156.58ZM978.925 153.26H980.325C980.285 162.32 982.025 170.02 983.505 170.02C983.865 170.02 984.045 169.1 984.105 166.98C984.405 167.3 984.865 167.6 985.205 167.74C984.985 170.54 984.545 171.42 983.325 171.42C980.485 171.42 979.065 162.58 978.925 153.26ZM967.785 154.64L968.765 153.68C969.925 154.64 971.445 156.02 972.145 156.9L971.085 158C970.405 157.08 968.965 155.66 967.785 154.64ZM969.185 171.18L968.905 169.78L969.265 169.12L972.405 166.68C972.525 167.06 972.765 167.62 972.945 167.92C969.945 170.38 969.445 170.78 969.185 171.18ZM966.665 159.48H970.345V160.92H966.665V159.48ZM969.205 171.22C969.065 170.92 968.645 170.4 968.385 170.2C968.745 169.9 969.365 169.16 969.365 168.18V159.48H970.725V169.26C970.725 169.26 969.205 170.62 969.205 171.22ZM839.12 180.42H845.2V193.5H839.12V192.14H843.8V181.76H839.12V180.42ZM838.22 180.42H839.62V195.1H838.22V180.42ZM839.02 185.98H844.54V187.32H839.02V185.98ZM841.28 177.16L842.9 177.46C842.5 178.7 842 180.08 841.6 180.98L840.4 180.68C840.74 179.72 841.12 178.2 841.28 177.16ZM848.04 180.36H854.18V181.76H848.04V180.36ZM853.66 180.36H855.06C855.06 180.36 855.06 180.92 855.06 181.14C854.74 190.32 854.46 193.42 853.66 194.4C853.22 194.98 852.76 195.16 852.06 195.22C851.38 195.3 850.2 195.26 849.08 195.2C849.04 194.76 848.86 194.14 848.58 193.74C849.88 193.84 851.08 193.86 851.54 193.86C851.94 193.86 852.18 193.8 852.4 193.54C853.06 192.82 853.38 189.5 853.66 180.68V180.36ZM848.46 177.12L849.9 177.46C849.16 180.44 847.98 183.38 846.6 185.28C846.34 185.04 845.72 184.62 845.36 184.42C846.72 182.66 847.82 179.9 848.46 177.12ZM847.54 185.56L848.7 184.88C849.84 186.3 851.22 188.24 851.86 189.42L850.58 190.22C849.98 189 848.64 187.02 847.54 185.56ZM864.02 180.74L865.64 181.06C864.26 183 862.24 184.9 859.3 186.36C859.08 186 858.62 185.5 858.28 185.28C861.06 184.04 863 182.3 864.02 180.74ZM863.8 182.24H870.76V183.44H862.72L863.8 182.24ZM870.34 182.24H870.62L870.9 182.18L871.9 182.8C869.22 187 863.32 189.54 857.94 190.68C857.8 190.3 857.48 189.7 857.2 189.36C862.34 188.42 868.06 186 870.34 182.48V182.24ZM863.22 183.18C865.56 186.18 870.4 188.12 875.76 188.8C875.42 189.14 875.02 189.78 874.8 190.22C869.42 189.38 864.58 187.24 861.9 183.78L863.22 183.18ZM860.98 189.44H872.1V195.56H870.56V190.72H862.46V195.58H860.98V189.44ZM861.72 193.64H871.32V194.92H861.72V193.64ZM865.68 177.22H867.22V179.82H865.68V177.22ZM858.02 179.02H874.94V182.8H873.42V180.4H859.5V182.8H858.02V179.02ZM879.88 180.3H881.44V184.66C881.44 187.94 881.02 192.62 878.46 195.72C878.2 195.44 877.54 194.98 877.16 194.82C879.62 191.86 879.88 187.68 879.88 184.66V180.3ZM885.3 177.48L886.76 177.1C887.22 178.04 887.74 179.24 887.98 180.02L886.46 180.48C886.24 179.68 885.72 178.42 885.3 177.48ZM880.86 180.3H893.4V188.46H891.88V181.72H880.86V180.3ZM880.86 185.74H892.7V187.14H880.86V185.74Z" fill="#8C8C8C"/>
<path d="M1192.53 116.812H1202.08V120.088H1192.53V116.812ZM1179.18 114.796H1193.32V117.904H1179.18V114.796ZM1182.87 120.592H1189.62V123.588H1182.87V120.592ZM1182.87 126.416H1189.62V129.412H1182.87V126.416ZM1201.16 116.812H1201.74L1202.33 116.728L1204.52 117.26C1203.42 128.6 1199.76 135.488 1193.43 139.352C1192.92 138.484 1191.97 137.224 1191.22 136.58C1196.79 133.668 1200.23 126.78 1201.16 117.54V116.812ZM1195.81 120.172C1197.18 127.452 1200.18 133.64 1205.55 136.552C1204.8 137.196 1203.76 138.484 1203.23 139.352C1197.35 135.796 1194.35 129.244 1192.59 120.788L1195.81 120.172ZM1181.11 116.084H1184.3V134.396H1181.11V116.084ZM1188.3 116.084H1191.55V139.52H1188.3V116.084ZM1178.53 133.164C1181.3 132.856 1185.48 132.296 1189.42 131.736L1189.62 134.788C1185.98 135.432 1182.09 136.048 1179.15 136.496L1178.53 133.164ZM1218.71 126.248H1229.8V129.076H1218.71V126.248ZM1218.68 131.176H1229.8V133.976H1218.68V131.176ZM1229.52 113.872L1232.8 115.02C1231.87 116.98 1230.84 118.968 1229.97 120.312L1227.06 119.22C1227.9 117.792 1228.96 115.58 1229.52 113.872ZM1215.6 115.328L1218.43 114.068C1219.55 115.608 1220.76 117.68 1221.18 119.108L1218.15 120.536C1217.79 119.108 1216.7 116.952 1215.6 115.328ZM1216.47 121.04H1229.86V124.176H1219.78V139.492H1216.47V121.04ZM1228.29 121.04H1231.56V135.88C1231.56 137.476 1231.26 138.372 1230.22 138.904C1229.16 139.408 1227.64 139.436 1225.54 139.436C1225.4 138.54 1224.96 137.168 1224.54 136.3C1225.82 136.356 1227.31 136.356 1227.73 136.356C1228.15 136.328 1228.29 136.216 1228.29 135.852V121.04ZM1222.44 113.2H1225.82V123.14H1222.44V113.2ZM1208.07 115.804L1210.03 113.452C1211.77 114.292 1213.98 115.608 1215.07 116.672L1212.97 119.248C1211.99 118.212 1209.81 116.728 1208.07 115.804ZM1206.78 123.252L1208.69 120.872C1210.45 121.684 1212.72 123.028 1213.84 124.092L1211.82 126.724C1210.79 125.66 1208.58 124.176 1206.78 123.252ZM1207.57 137.224C1208.94 135.096 1210.87 131.54 1212.38 128.264L1214.85 130.28C1213.59 133.304 1212.02 136.552 1210.51 139.38L1207.57 137.224ZM1246.15 115.412H1259.06V118.184H1246.15V115.412ZM1250.91 113.228H1254.22V121.18H1250.91V113.228ZM1246.94 124.708L1248.28 123.14C1249.43 123.7 1250.94 124.596 1251.7 125.268L1250.27 127.004C1249.57 126.304 1248.11 125.352 1246.94 124.708ZM1244.84 127.144L1246.32 125.52C1247.55 126.164 1249.12 127.2 1249.93 127.956L1248.39 129.748C1247.66 128.964 1246.1 127.844 1244.84 127.144ZM1245.2 119.948H1258.28V122.776H1245.2V119.948ZM1257.63 119.948H1258.05L1258.56 119.836L1260.68 120.284C1260.18 122.412 1259.48 124.764 1258.86 126.276L1256.26 125.716C1256.74 124.344 1257.32 122.132 1257.63 120.368V119.948ZM1244.61 129.412H1260.29V132.296H1244.61V129.412ZM1251.58 123.504H1254.66V126.556C1254.66 130.588 1253.66 136.188 1245.9 139.576C1245.51 138.848 1244.56 137.7 1243.94 137.112C1250.83 134.256 1251.58 129.692 1251.58 126.444V123.504ZM1253.18 134.48L1255.2 132.688C1257.21 134.032 1259.84 136.076 1261.08 137.504L1258.92 139.548C1257.77 138.092 1255.25 135.936 1253.18 134.48ZM1235.85 132.268C1235.71 131.708 1235.23 130.336 1234.92 129.608C1235.6 129.44 1236.18 128.796 1237.05 127.732C1237.92 126.724 1240.64 122.804 1242.32 118.996L1244.81 120.536C1242.9 124.232 1240.3 128.04 1237.78 130.756V130.84C1237.78 130.84 1235.85 131.736 1235.85 132.268ZM1235.85 132.268L1235.54 129.552L1236.83 128.572L1243.86 126.836C1243.83 127.704 1243.88 128.964 1244 129.636C1237.61 131.4 1236.52 131.82 1235.85 132.268ZM1235.65 125.436C1235.48 124.848 1235.01 123.392 1234.64 122.608C1235.23 122.44 1235.68 121.852 1236.3 120.928C1236.91 120.032 1238.79 116.504 1239.77 113.2L1242.62 114.544C1241.31 117.848 1239.26 121.376 1237.3 123.868V123.924C1237.3 123.924 1235.65 124.904 1235.65 125.436ZM1235.65 125.436L1235.54 123.168L1236.88 122.272L1241.45 121.936C1241.28 122.748 1241.14 123.924 1241.14 124.568C1237.05 124.988 1236.18 125.184 1235.65 125.436ZM1234.9 134.844C1237.14 134.144 1240.52 132.94 1243.77 131.736L1244.33 134.424C1241.36 135.656 1238.17 136.944 1235.62 137.952L1234.9 134.844ZM1266.96 118.184H1283.62V116.924H1264.94V114.684H1286.67V120.396H1266.96V118.184ZM1266.4 121.6H1286.36V123.812H1265.78L1266.4 121.6ZM1285.3 121.6H1288.43C1288.43 121.6 1288.4 122.16 1288.4 122.524C1288.26 124.456 1288.07 125.52 1287.59 126.08C1287.17 126.556 1286.58 126.752 1285.97 126.78C1285.44 126.836 1284.43 126.836 1283.31 126.78C1283.28 126.164 1283.03 125.268 1282.75 124.652C1283.45 124.764 1284.01 124.764 1284.32 124.764C1284.57 124.764 1284.74 124.736 1284.9 124.568C1285.07 124.316 1285.18 123.588 1285.3 121.964V121.6ZM1271.46 113.228H1274.49V119.472C1274.49 123.7 1273.2 127.116 1264.91 128.684C1264.63 127.984 1263.82 126.696 1263.26 126.108C1270.48 124.876 1271.46 122.44 1271.46 119.416V113.228ZM1277.6 113.228H1280.73V126.752H1277.6V113.228ZM1266.79 127.312H1285.32V134.732H1281.91V130.028H1270.04V135.012H1266.79V127.312ZM1274.74 130.952H1278.07C1276.92 135.572 1274.15 138.204 1264.24 139.464C1264.04 138.68 1263.37 137.308 1262.81 136.608C1271.74 135.768 1273.76 134.088 1274.74 130.952ZM1276.48 136.02L1278.21 133.808C1281.57 134.536 1286.47 135.936 1289.05 137L1287.17 139.548C1284.79 138.484 1279.95 136.916 1276.48 136.02ZM1265.67 118.212H1268.66C1268.41 120.116 1268.1 122.356 1267.8 123.812H1264.77C1265.11 122.3 1265.47 120.06 1265.67 118.212Z" fill="black"/>
<path d="M1125.44 168.16H1131.7V169.58H1125.44V168.16ZM1124.62 155.36H1132.46V170.8H1130.98V156.8H1126.06V171.1H1124.62V155.36ZM1114.86 157.3H1122.3V158.74H1114.86V157.3ZM1118.26 153.2L1119.72 153.38C1118.84 157.38 1117.48 162.8 1116.48 166.12L1115.2 165.5C1116.16 162.42 1117.48 157.02 1118.26 153.2ZM1115.9 164.74L1116.72 163.64C1119.32 164.98 1122.4 167.08 1123.82 168.72L1122.94 170C1121.54 168.34 1118.48 166.14 1115.9 164.74ZM1121.88 157.3H1122.12L1122.4 157.26L1123.32 157.44C1122.7 165.5 1120.22 169.54 1116.06 171.62C1115.86 171.26 1115.46 170.7 1115.14 170.38C1118.94 168.72 1121.32 164.72 1121.88 157.62V157.3ZM1135.22 163.82H1152.78V165.22H1135.22V163.82ZM1143.2 154.66H1144.78V171.6H1143.2V154.66ZM1142.66 164.42L1143.92 164.96C1142.06 167.52 1138.74 169.8 1135.74 170.94C1135.52 170.58 1135.04 170.02 1134.72 169.72C1137.68 168.74 1140.98 166.62 1142.66 164.42ZM1145.24 164.36C1146.98 166.5 1150.38 168.62 1153.3 169.6C1152.96 169.9 1152.5 170.48 1152.26 170.86C1149.36 169.7 1145.96 167.36 1144.04 164.9L1145.24 164.36ZM1138.7 158.74V160.84H1149.34V158.74H1138.7ZM1138.7 155.46V157.52H1149.34V155.46H1138.7ZM1137.16 154.18H1150.94V162.12H1137.16V154.18ZM1163.36 153.22L1164.74 153.56C1163.96 155.7 1162.66 157.74 1161.26 159.1C1161.04 158.84 1160.48 158.36 1160.14 158.14C1161.5 156.96 1162.68 155.14 1163.36 153.22ZM1163.28 158.26L1164.68 158.62C1164.06 160.2 1163.02 161.76 1162.02 162.8C1161.74 162.58 1161.14 162.2 1160.8 162.02C1161.84 161.06 1162.74 159.66 1163.28 158.26ZM1163.16 155.18H1171.84V156.5H1162.64L1163.16 155.18ZM1166.1 156.08H1167.54V163.04C1167.54 163.8 1167.4 164.2 1166.84 164.42C1166.32 164.64 1165.5 164.66 1164.24 164.66C1164.16 164.26 1163.96 163.7 1163.74 163.32C1164.68 163.36 1165.52 163.36 1165.78 163.34C1166.04 163.32 1166.1 163.26 1166.1 163.04V156.08ZM1168.64 158.7L1169.88 158.16C1170.86 159.46 1171.84 161.22 1172.26 162.38L1170.96 163C1170.56 161.82 1169.58 160 1168.64 158.7ZM1171.42 155.18H1171.66L1171.9 155.14L1172.94 155.4C1172.44 156.66 1171.82 158.12 1171.34 159L1170.04 158.74C1170.5 157.9 1171.04 156.52 1171.42 155.4V155.18ZM1159.98 165.64H1161.46V169.26C1161.46 169.8 1161.66 169.9 1162.72 169.9C1163.22 169.9 1165.72 169.9 1166.38 169.9C1167.26 169.9 1167.4 169.64 1167.5 167.66C1167.82 167.92 1168.42 168.14 1168.84 168.24C1168.66 170.66 1168.2 171.26 1166.48 171.26C1166.02 171.26 1163.04 171.26 1162.6 171.26C1160.52 171.26 1159.98 170.84 1159.98 169.26V165.64ZM1161.7 165.04L1162.7 164.14C1163.98 164.76 1165.52 165.78 1166.24 166.58L1165.16 167.56C1164.48 166.76 1163 165.68 1161.7 165.04ZM1168.28 166.26L1169.52 165.56C1171 166.82 1172.56 168.62 1173.18 169.98L1171.84 170.74C1171.26 169.42 1169.78 167.54 1168.28 166.26ZM1157.54 165.88L1158.88 166.32C1158.38 168.12 1157.6 169.9 1156.02 170.96L1154.78 170.1C1156.26 169.16 1157.12 167.56 1157.54 165.88ZM1159.46 153.2L1160.8 153.66C1159.5 156.14 1157.48 158.6 1155.54 160.18C1155.36 159.88 1154.86 159.28 1154.56 159.02C1156.44 157.6 1158.32 155.4 1159.46 153.2ZM1157.62 156.96L1159.04 155.54L1159.06 155.56V164.64H1157.62V156.96ZM1175.38 154.62H1192.6V156.14H1175.38V154.62ZM1185.18 160.44L1186.3 159.48C1188.64 161 1191.7 163.26 1193.18 164.8L1191.96 165.94C1190.56 164.4 1187.56 162.06 1185.18 160.44ZM1184.8 155.14L1186.44 155.74C1184.16 159.88 1180.42 163.84 1175.9 166.22C1175.66 165.84 1175.18 165.24 1174.88 164.92C1179.22 162.74 1182.94 158.9 1184.8 155.14ZM1183.16 159.14L1184.78 157.54V171.58H1183.16V159.14ZM1194.78 165.36H1213.24V166.76H1194.78V165.36ZM1195.52 154.42H1212.5V155.82H1195.52V154.42ZM1198.14 161.56H1209.9V162.88H1198.14V161.56ZM1209.32 157.78H1210.8V169.76C1210.8 170.68 1210.6 171.14 1209.92 171.38C1209.28 171.62 1208.16 171.64 1206.42 171.64C1206.34 171.24 1206.1 170.58 1205.88 170.2C1207.2 170.24 1208.48 170.22 1208.84 170.2C1209.2 170.2 1209.32 170.1 1209.32 169.76V157.78ZM1197.16 157.78H1209.94V159.16H1198.64V171.64H1197.16V157.78ZM1203.16 154.86H1204.66V165.88H1203.16V154.86ZM1216.68 154.02H1231.3V155.22H1216.68V154.02ZM1215.28 162.88H1232.76V164.1H1215.28V162.88ZM1217.86 158.58H1222.18V159.6H1217.86V158.58ZM1217.44 160.68H1222.18V161.7H1217.44V160.68ZM1225.7 160.68H1230.6V161.7H1225.7V160.68ZM1225.7 158.58H1230.12V159.6H1225.7V158.58ZM1223.2 154.48H1224.66V162.22H1223.2V154.48ZM1221.22 166.32H1222.62V171.46H1221.22V166.32ZM1225.66 166.32H1227.04V171.46H1225.66V166.32ZM1215.52 156.38H1232.5V160.22H1231.08V157.48H1216.88V160.22H1215.52V156.38ZM1216.84 165.54H1230.56V166.78H1218.26V171.58H1216.84V165.54ZM1230.18 165.54H1231.62V170.12C1231.62 170.8 1231.52 171.16 1231 171.38C1230.5 171.62 1229.76 171.6 1228.66 171.6C1228.6 171.24 1228.38 170.72 1228.2 170.36C1229 170.38 1229.68 170.38 1229.9 170.36C1230.12 170.34 1230.18 170.28 1230.18 170.1V165.54ZM1223.22 163.34L1224.86 163.4C1224.5 164.48 1224.08 165.58 1223.74 166.32L1222.42 166.18C1222.72 165.36 1223.08 164.16 1223.22 163.34ZM1234.9 164.14H1253.1V165.4H1234.9V164.14ZM1235.38 154.08H1252.6V155.4H1235.38V154.08ZM1241.84 162.04L1243.3 162.44C1242 164.52 1240.16 167.14 1238.88 168.78L1237.46 168.3C1238.74 166.68 1240.6 164 1241.84 162.04ZM1247.84 164.58L1249.28 165C1247.52 169.4 1243.26 171.04 1235.76 171.6C1235.66 171.16 1235.42 170.62 1235.18 170.28C1242.32 169.9 1246.24 168.48 1247.84 164.58ZM1238.54 168.1L1239.3 167C1244.24 167.88 1249.38 169.22 1252.48 170.44L1251.58 171.66C1248.52 170.4 1243.62 169.04 1238.54 168.1ZM1240.84 154.58H1242.26V161.56H1240.84V154.58ZM1245.5 154.58H1246.92V161.56H1245.5V154.58ZM1237.78 158.34V161.06H1250.26V158.34H1237.78ZM1236.38 157.12H1251.76V162.3H1236.38V157.12ZM1262.74 155.06H1271.68V156.34H1262.74V155.06ZM1266.36 153.22H1267.86V158.74H1266.36V153.22ZM1263.46 160.96L1264.18 160.22C1265.06 160.7 1266.14 161.44 1266.66 162L1265.92 162.82C1265.4 162.26 1264.36 161.48 1263.46 160.96ZM1262.02 162.78L1262.74 162.02C1263.64 162.5 1264.76 163.28 1265.32 163.86L1264.56 164.72C1264.04 164.14 1262.94 163.32 1262.02 162.78ZM1262 158.14H1271.62V159.44H1262V158.14ZM1271.32 158.14H1271.54L1271.78 158.08L1272.72 158.32C1272.32 159.66 1271.8 161.18 1271.32 162.12L1270.14 161.8C1270.52 160.92 1271.02 159.52 1271.32 158.36V158.14ZM1261.6 165H1272.76V166.32H1261.6V165ZM1266.96 160.24H1268.36V162.64C1268.36 165.58 1267.72 169.22 1262.1 171.64C1261.92 171.32 1261.5 170.8 1261.22 170.54C1266.44 168.34 1266.96 165.14 1266.96 162.6V160.24ZM1267.76 167.9L1268.68 167.08C1270.24 168.12 1272.2 169.66 1273.12 170.7L1272.16 171.66C1271.24 170.6 1269.34 169 1267.76 167.9ZM1255.34 166.36C1255.28 166.08 1255.06 165.44 1254.9 165.08C1255.32 165 1255.76 164.5 1256.36 163.74C1256.98 163 1258.98 160.18 1260.26 157.44L1261.44 158.14C1259.98 160.88 1258.12 163.64 1256.32 165.6V165.64C1256.32 165.64 1255.34 166.08 1255.34 166.36ZM1255.34 166.36L1255.24 165.1L1255.92 164.6L1260.98 163.34C1260.98 163.72 1261.02 164.3 1261.08 164.6C1256.38 165.86 1255.74 166.1 1255.34 166.36ZM1255.22 161.56C1255.14 161.26 1254.92 160.58 1254.74 160.22C1255.1 160.12 1255.44 159.66 1255.88 158.98C1256.34 158.3 1257.8 155.68 1258.6 153.24L1259.92 153.86C1258.9 156.34 1257.48 158.94 1256.08 160.78V160.8C1256.08 160.8 1255.22 161.26 1255.22 161.56ZM1255.22 161.56L1255.18 160.46L1255.88 160.02L1259.34 159.66C1259.26 160.04 1259.22 160.58 1259.22 160.88C1256.08 161.28 1255.54 161.4 1255.22 161.56ZM1254.84 168.86C1256.4 168.36 1258.7 167.52 1260.96 166.7L1261.2 167.94C1259.1 168.76 1256.9 169.6 1255.2 170.26L1254.84 168.86ZM1277.5 157.02H1290.06V155.58H1276.14V154.48H1291.46V158.1H1277.5V157.02ZM1277.18 159.58H1291.68V160.66H1276.88L1277.18 159.58ZM1291.24 159.58H1292.64C1292.64 159.58 1292.62 159.9 1292.62 160.1C1292.48 161.4 1292.34 162.04 1292.02 162.36C1291.76 162.62 1291.46 162.72 1291.04 162.72C1290.7 162.76 1290.02 162.74 1289.3 162.7C1289.28 162.4 1289.16 161.98 1289.02 161.68C1289.64 161.76 1290.18 161.76 1290.4 161.76C1290.62 161.76 1290.76 161.74 1290.86 161.62C1291.02 161.46 1291.12 160.96 1291.24 159.76V159.58ZM1281.1 153.22H1282.48V157.3C1282.48 160.22 1281.68 162.66 1275.9 164.06C1275.78 163.74 1275.42 163.16 1275.16 162.9C1280.46 161.64 1281.1 159.62 1281.1 157.28V153.22ZM1285.68 153.22H1287.1V162.76H1285.68V153.22ZM1277.72 163.26H1290.42V168.7H1288.9V164.52H1279.18V168.82H1277.72V163.26ZM1283.46 165.36H1284.96C1284.22 169.06 1282.18 170.8 1275.5 171.6C1275.4 171.26 1275.1 170.66 1274.86 170.34C1281.14 169.72 1282.82 168.34 1283.46 165.36ZM1284.42 168.86L1285.2 167.84C1287.7 168.48 1291.08 169.6 1292.88 170.42L1292.06 171.6C1290.34 170.78 1286.96 169.58 1284.42 168.86ZM1276.94 157.02H1278.3C1278.14 158.26 1277.92 159.72 1277.72 160.66H1276.32C1276.56 159.68 1276.8 158.22 1276.94 157.02ZM1297.14 172.14L1296.68 171.1C1298.32 170.42 1299.22 169.4 1299.22 167.9L1298.84 166.2L1299.92 167.72C1299.64 168.08 1299.24 168.18 1298.86 168.18C1298.04 168.18 1297.36 167.7 1297.36 166.74C1297.36 165.8 1298.08 165.3 1298.88 165.3C1300 165.3 1300.6 166.22 1300.6 167.62C1300.6 169.78 1299.24 171.42 1297.14 172.14ZM1320.44 167.72L1321.36 166.8C1322.6 167.76 1324.22 169.14 1325.02 170.02L1324.06 171.12C1323.28 170.22 1321.7 168.74 1320.44 167.72ZM1316.06 154.28H1324.68V166.38H1323.22V155.64H1317.46V166.42H1316.06V154.28ZM1330.68 153.36H1332.14V169.48C1332.14 170.52 1331.88 170.96 1331.24 171.22C1330.58 171.46 1329.46 171.5 1327.62 171.5C1327.54 171.08 1327.3 170.4 1327.06 169.98C1328.5 170.02 1329.76 170 1330.14 170C1330.52 169.98 1330.68 169.86 1330.68 169.48V153.36ZM1326.94 155.02H1328.36V167H1326.94V155.02ZM1319.6 157.02H1321.02V162.72C1321.02 165.8 1320.3 169.44 1315.8 171.64C1315.66 171.32 1315.18 170.74 1314.88 170.52C1319.08 168.44 1319.6 165.44 1319.6 162.7V157.02ZM1348.92 155.08H1350.48V169.46C1350.48 170.54 1350.22 171.06 1349.44 171.3C1348.64 171.56 1347.24 171.58 1345.26 171.58C1345.16 171.14 1344.86 170.4 1344.62 169.96C1346.24 170.04 1347.86 170.02 1348.34 170C1348.78 169.98 1348.92 169.84 1348.92 169.42V155.08ZM1337.16 159.08H1338.62V168.14H1337.16V159.08ZM1337.78 159.08H1345.36V166.54H1337.78V165.1H1343.86V160.5H1337.78V159.08ZM1335.1 154.62H1352.94V156.14H1335.1V154.62ZM1171.28 180.36L1172.62 179.7C1173.96 181.16 1175.24 183.14 1175.82 184.5L1174.38 185.28C1173.86 183.9 1172.56 181.84 1171.28 180.36ZM1164.7 191.88C1166.74 191.08 1169.94 189.72 1172.94 188.4L1173.28 189.86C1170.5 191.14 1167.46 192.48 1165.24 193.44L1164.7 191.88ZM1176.7 189.24L1177.86 188.26C1179.76 190.14 1182.24 192.74 1183.42 194.38L1182.14 195.56C1181.02 193.9 1178.62 191.2 1176.7 189.24ZM1179.48 178.24L1181.1 178.4C1180.08 187.64 1177.74 192.74 1170.74 195.66C1170.52 195.34 1169.92 194.68 1169.54 194.36C1176.46 191.84 1178.58 186.94 1179.48 178.24ZM1167.14 178.3L1168.68 178.24L1169.02 191.46L1167.48 191.52L1167.14 178.3ZM1194 179.44H1203.16V180.76H1194V179.44ZM1196.76 185.32H1201.5V186.44H1196.76V185.32ZM1196.76 188.18H1201.5V189.3H1196.76V188.18ZM1196.02 182.5H1201.62V183.68H1197.3V192.66H1196.02V182.5ZM1200.96 182.5H1202.32V191.28C1202.32 191.92 1202.2 192.26 1201.76 192.44C1201.34 192.66 1200.68 192.66 1199.66 192.66C1199.6 192.32 1199.44 191.84 1199.28 191.52C1199.94 191.54 1200.54 191.54 1200.72 191.54C1200.92 191.52 1200.96 191.46 1200.96 191.28V182.5ZM1190.8 178.7L1191.96 178.14C1192.82 179.24 1193.7 180.72 1194.02 181.7L1192.8 182.32C1192.48 181.34 1191.62 179.82 1190.8 178.7ZM1193.6 185.22V192.18H1192.3V186.48H1190.46V185.22H1193.6ZM1193.6 191.54C1194.26 192.96 1195.52 193.88 1197.3 193.96C1198.78 194.02 1201.74 193.98 1203.38 193.86C1203.22 194.2 1203.02 194.82 1202.96 195.22C1201.44 195.32 1198.76 195.34 1197.24 195.26C1195.22 195.16 1193.88 194.22 1192.98 192.72C1192.18 193.64 1191.36 194.54 1190.44 195.5L1189.7 194.18C1190.52 193.46 1191.54 192.5 1192.4 191.54H1193.6ZM1197.52 177.2L1198.88 177.44C1198.1 180.94 1196.64 183.86 1194.54 185.74C1194.34 185.5 1193.82 184.98 1193.52 184.74C1195.54 183.06 1196.86 180.36 1197.52 177.2ZM1185.56 178.06H1189.56V179.42H1186.9V195.6H1185.56V178.06ZM1189.3 178.06H1189.54L1189.74 178L1190.72 178.56C1190.22 180.24 1189.6 182.34 1189.02 183.98C1190.24 185.7 1190.52 187.18 1190.52 188.44C1190.52 189.52 1190.3 190.38 1189.8 190.78C1189.56 190.98 1189.22 191.08 1188.86 191.14C1188.54 191.16 1188.14 191.18 1187.76 191.16C1187.74 190.8 1187.62 190.24 1187.42 189.86C1187.78 189.9 1188.1 189.9 1188.34 189.9C1188.54 189.88 1188.74 189.82 1188.88 189.7C1189.12 189.5 1189.22 188.9 1189.22 188.28C1189.22 187.16 1188.96 185.78 1187.74 184.14C1188.36 182.3 1188.96 179.84 1189.3 178.48V178.06ZM1206.34 178.88H1211.88V191.9H1206.34V190.54H1210.48V180.24H1206.34V178.88ZM1206.42 184.62H1211V185.96H1206.42V184.62ZM1205.62 178.88H1207.04V193.5H1205.62V178.88ZM1212.78 181.22H1223.22V182.7H1212.78V181.22ZM1219.28 177.32H1220.8V193.34C1220.8 194.44 1220.5 194.9 1219.78 195.14C1219.06 195.38 1217.8 195.42 1215.78 195.4C1215.7 194.98 1215.46 194.3 1215.24 193.88C1216.8 193.92 1218.26 193.92 1218.7 193.9C1219.12 193.88 1219.28 193.76 1219.28 193.34V177.32ZM1213.46 184.96L1214.7 184.32C1215.78 185.84 1217.16 187.88 1217.84 189.08L1216.52 189.86C1215.88 188.64 1214.54 186.5 1213.46 184.96Z" fill="#8C8C8C"/>
<path d="M1234.22 179.96H1241.6V181.42H1234.22V179.96ZM1224.94 178.46H1234.72V179.86H1224.94V178.46ZM1227.28 182.52H1232.48V183.9H1227.28V182.52ZM1227.28 186.68H1232.48V188.04H1227.28V186.68ZM1241.16 179.96H1241.42L1241.7 179.92L1242.66 180.18C1241.7 188.14 1238.64 192.84 1234.36 195.32C1234.12 194.94 1233.7 194.38 1233.36 194.1C1237.32 192.04 1240.3 187.34 1241.16 180.32V179.96ZM1236.04 181.5C1237.1 187.28 1239.42 192.02 1243.54 194.14C1243.2 194.44 1242.72 195 1242.48 195.4C1238.14 192.94 1235.84 188.06 1234.6 181.78L1236.04 181.5ZM1226.5 179H1227.94V191.98H1226.5V179ZM1231.86 179H1233.3V195.56H1231.86V179ZM1224.54 191.54C1226.5 191.3 1229.52 190.88 1232.44 190.44L1232.52 191.82C1229.78 192.26 1226.9 192.72 1224.82 193.04L1224.54 191.54ZM1252.54 186.46H1261.1V187.78H1252.54V186.46ZM1252.5 189.94H1261.1V191.24H1252.5V189.94ZM1261.24 177.76L1262.7 178.34C1261.98 179.66 1261.12 181.12 1260.4 182.12L1259.14 181.58C1259.84 180.56 1260.76 178.94 1261.24 177.76ZM1251.02 178.44L1252.28 177.88C1253.14 179 1254.04 180.54 1254.38 181.56L1253.04 182.22C1252.72 181.18 1251.86 179.62 1251.02 178.44ZM1251.58 182.92H1261.18V184.32H1253.06V195.6H1251.58V182.92ZM1260.44 182.92H1261.9V193.72C1261.9 194.56 1261.72 195 1261.12 195.26C1260.52 195.5 1259.52 195.5 1258 195.5C1257.92 195.1 1257.7 194.48 1257.5 194.06C1258.66 194.1 1259.72 194.1 1260.02 194.1C1260.34 194.08 1260.44 193.98 1260.44 193.72V182.92ZM1256.06 177.2H1257.56V183.8H1256.06V177.2ZM1245.7 178.46L1246.58 177.42C1247.82 178.04 1249.32 179 1250.06 179.74L1249.14 180.9C1248.44 180.16 1246.94 179.12 1245.7 178.46ZM1244.76 183.8L1245.62 182.74C1246.86 183.34 1248.42 184.3 1249.2 185.02L1248.3 186.2C1247.54 185.48 1246.02 184.46 1244.76 183.8ZM1245.38 194.44C1246.36 192.88 1247.74 190.24 1248.78 187.94L1249.9 188.84C1248.98 190.98 1247.74 193.5 1246.68 195.4L1245.38 194.44ZM1272.74 179.06H1281.68V180.34H1272.74V179.06ZM1276.36 177.22H1277.86V182.74H1276.36V177.22ZM1273.46 184.96L1274.18 184.22C1275.06 184.7 1276.14 185.44 1276.66 186L1275.92 186.82C1275.4 186.26 1274.36 185.48 1273.46 184.96ZM1272.02 186.78L1272.74 186.02C1273.64 186.5 1274.76 187.28 1275.32 187.86L1274.56 188.72C1274.04 188.14 1272.94 187.32 1272.02 186.78ZM1272 182.14H1281.62V183.44H1272V182.14ZM1281.32 182.14H1281.54L1281.78 182.08L1282.72 182.32C1282.32 183.66 1281.8 185.18 1281.32 186.12L1280.14 185.8C1280.52 184.92 1281.02 183.52 1281.32 182.36V182.14ZM1271.6 189H1282.76V190.32H1271.6V189ZM1276.96 184.24H1278.36V186.64C1278.36 189.58 1277.72 193.22 1272.1 195.64C1271.92 195.32 1271.5 194.8 1271.22 194.54C1276.44 192.34 1276.96 189.14 1276.96 186.6V184.24ZM1277.76 191.9L1278.68 191.08C1280.24 192.12 1282.2 193.66 1283.12 194.7L1282.16 195.66C1281.24 194.6 1279.34 193 1277.76 191.9ZM1265.34 190.36C1265.28 190.08 1265.06 189.44 1264.9 189.08C1265.32 189 1265.76 188.5 1266.36 187.74C1266.98 187 1268.98 184.18 1270.26 181.44L1271.44 182.14C1269.98 184.88 1268.12 187.64 1266.32 189.6V189.64C1266.32 189.64 1265.34 190.08 1265.34 190.36ZM1265.34 190.36L1265.24 189.1L1265.92 188.6L1270.98 187.34C1270.98 187.72 1271.02 188.3 1271.08 188.6C1266.38 189.86 1265.74 190.1 1265.34 190.36ZM1265.22 185.56C1265.14 185.26 1264.92 184.58 1264.74 184.22C1265.1 184.12 1265.44 183.66 1265.88 182.98C1266.34 182.3 1267.8 179.68 1268.6 177.24L1269.92 177.86C1268.9 180.34 1267.48 182.94 1266.08 184.78V184.8C1266.08 184.8 1265.22 185.26 1265.22 185.56ZM1265.22 185.56L1265.18 184.46L1265.88 184.02L1269.34 183.66C1269.26 184.04 1269.22 184.58 1269.22 184.88C1266.08 185.28 1265.54 185.4 1265.22 185.56ZM1264.84 192.86C1266.4 192.36 1268.7 191.52 1270.96 190.7L1271.2 191.94C1269.1 192.76 1266.9 193.6 1265.2 194.26L1264.84 192.86ZM1287.5 181.02H1300.06V179.58H1286.14V178.48H1301.46V182.1H1287.5V181.02ZM1287.18 183.58H1301.68V184.66H1286.88L1287.18 183.58ZM1301.24 183.58H1302.64C1302.64 183.58 1302.62 183.9 1302.62 184.1C1302.48 185.4 1302.34 186.04 1302.02 186.36C1301.76 186.62 1301.46 186.72 1301.04 186.72C1300.7 186.76 1300.02 186.74 1299.3 186.7C1299.28 186.4 1299.16 185.98 1299.02 185.68C1299.64 185.76 1300.18 185.76 1300.4 185.76C1300.62 185.76 1300.76 185.74 1300.86 185.62C1301.02 185.46 1301.12 184.96 1301.24 183.76V183.58ZM1291.1 177.22H1292.48V181.3C1292.48 184.22 1291.68 186.66 1285.9 188.06C1285.78 187.74 1285.42 187.16 1285.16 186.9C1290.46 185.64 1291.1 183.62 1291.1 181.28V177.22ZM1295.68 177.22H1297.1V186.76H1295.68V177.22ZM1287.72 187.26H1300.42V192.7H1298.9V188.52H1289.18V192.82H1287.72V187.26ZM1293.46 189.36H1294.96C1294.22 193.06 1292.18 194.8 1285.5 195.6C1285.4 195.26 1285.1 194.66 1284.86 194.34C1291.14 193.72 1292.82 192.34 1293.46 189.36ZM1294.42 192.86L1295.2 191.84C1297.7 192.48 1301.08 193.6 1302.88 194.42L1302.06 195.6C1300.34 194.78 1296.96 193.58 1294.42 192.86ZM1286.94 181.02H1288.3C1288.14 182.26 1287.92 183.72 1287.72 184.66H1286.32C1286.56 183.68 1286.8 182.22 1286.94 181.02Z" fill="#4559FF"/>
<path d="M486.788 58.041C486.596 57.8239 486.363 57.6467 486.103 57.5196C485.842 57.3925 485.56 57.3178 485.27 57.3C484.981 57.2822 484.691 57.3215 484.417 57.4157C484.143 57.5099 483.891 57.6572 483.673 57.8491C483.456 58.041 483.279 58.2738 483.152 58.5341C483.025 58.7945 482.95 59.0774 482.933 59.3666C482.915 59.6558 482.954 59.9456 483.048 60.2196C483.142 60.4936 483.29 60.7464 483.482 60.9635L491.876 70.4633C492.745 71.4448 493.956 71.9499 495.178 71.9499C495.833 71.9493 496.48 71.8037 497.073 71.5234C497.665 71.2431 498.188 70.8351 498.604 70.3288L512.224 53.5988C512.593 53.1451 512.767 52.5633 512.708 51.9813C512.648 51.3993 512.36 50.8648 511.906 50.4954C511.452 50.126 510.871 49.9519 510.289 50.0115C509.707 50.071 509.172 50.3594 508.803 50.813L495.183 67.5408L486.788 58.041Z" fill="#4559FF"/>
<path d="M498.034 27C486.419 27 469.823 33.6793 465 33.6793V73.2566C465.589 78.1585 470.083 93.1812 498.034 100.019C524.253 93.6113 530.649 76.2226 531 73.2566V33.6792C526.257 33.6792 509.649 27 498.034 27ZM526.109 71.7615C525.86 73.9124 523.754 77.8287 520.154 82.04C516.758 86.0023 510.328 91.7874 498.034 94.7987C486.215 91.912 479.616 87.542 475.733 83.4552C471.453 78.9383 470.163 74.2862 469.891 71.9993V38.1066C474.873 37.8349 487.823 32.05 498.034 32.05C508.234 32.05 521.626 37.8349 526.12 38.1066L526.109 71.7615Z" fill="#4559FF"/>
<path d="M1233.21 62.0695V57.9901H1224V53.1457H1232.13L1224.54 45.4238L1227.9 42L1235.53 49.7583L1243.16 42L1246.53 45.4238L1238.94 53.1457H1247.93V58.0265H1238.01V62.106H1248V66.9868H1238.01V75H1233.21V66.9868H1224V62.106H1233.21V62.0695Z" fill="#4559FF"/>
<path d="M1265.04 74.0422L1259.58 79.5108L1256.99 76.9243L1262.46 71.4556L1257.39 66.3849L1260.04 63.7295L1265.11 68.8002L1270.42 63.4893L1273.01 66.0758L1267.7 71.3867L1272.77 76.4574L1270.12 79.1129L1265.04 74.0422Z" fill="#4559FF"/>
<path d="M1235.18 29.9141C1249.43 29.6957 1261.38 40.252 1263.1 54.0844L1268 53.6476C1266.1 37.4491 1252.28 25 1235.62 25C1221.44 25 1208.86 34.1366 1204.55 47.605C1200.24 61.0734 1205.13 75.743 1216.68 83.9696C1227.47 91.6138 1241.68 91.9778 1252.8 85.1344L1249.91 81.2031C1241.76 86.0809 1231.63 86.4813 1223.04 82.1132C1213.76 77.381 1207.91 67.8804 1207.91 57.5061C1207.88 42.3997 1220.05 30.1325 1235.18 29.9141Z" fill="#4559FF"/>
<g clip-path="url(#clip0_75_9)">
<path d="M866.298 38.921C863.33 38.9206 860.429 39.8003 857.961 41.449C855.493 43.0977 853.569 45.4413 852.433 48.1833C851.297 50.9253 850.999 53.9427 851.578 56.8538C852.157 59.7649 853.586 62.439 855.685 64.5378C857.783 66.6367 860.457 68.0662 863.368 68.6453C866.279 69.2245 869.297 68.9275 872.039 67.7917C874.781 66.656 877.125 64.7326 878.774 62.2647C880.423 59.7969 881.303 56.8955 881.303 53.9274C881.315 51.9534 880.936 49.9967 880.186 48.1706C879.436 46.3445 878.331 44.6854 876.936 43.2895C875.54 41.8936 873.881 40.7887 872.055 40.0388C870.229 39.2889 868.272 38.9089 866.298 38.921ZM866.298 64.6443C864.178 64.6443 862.106 64.0156 860.343 62.8378C858.581 61.66 857.207 59.986 856.395 58.0274C855.584 56.0687 855.372 53.9135 855.786 51.8343C856.199 49.755 857.22 47.8451 858.719 46.346C860.218 44.847 862.128 43.8261 864.207 43.4125C866.287 42.9989 868.442 43.2112 870.4 44.0225C872.359 44.8337 874.033 46.2076 875.211 47.9703C876.389 49.733 877.017 51.8054 877.017 53.9254C877.031 55.3369 876.764 56.737 876.23 58.0438C875.696 59.3506 874.907 60.5378 873.909 61.5359C872.911 62.5341 871.724 63.3231 870.417 63.8568C869.11 64.3906 867.71 64.6583 866.298 64.6443ZM889.878 65.5022C891.677 61.9849 892.631 58.0967 892.665 54.1463C892.642 50.7102 891.941 47.3125 890.602 44.1478C889.264 40.983 887.314 38.1134 884.865 35.7034C882.416 33.2933 879.515 31.3902 876.329 30.103C873.143 28.8158 869.734 28.1698 866.298 28.2021C862.862 28.1698 859.454 28.8158 856.268 30.103C853.082 31.3902 850.181 33.2933 847.732 35.7034C845.283 38.1134 843.333 40.983 841.995 44.1478C840.656 47.3125 839.955 50.7102 839.932 54.1463C839.965 58.0987 840.919 61.989 842.719 65.5081L832 83.7292C832 83.7292 838.859 85.0151 845.719 86.5159C848.757 89.9765 851.829 93.4063 854.937 96.8049L864.798 80.0846H868.227L878.088 96.8049C878.088 96.8049 882.587 91.6555 887.306 86.51C891.867 85.521 896.44 84.5921 901.025 83.7233L889.884 65.5022H889.878ZM854.294 89.0837C854.294 89.0837 851.079 85.8691 847.862 82.8674C843.575 81.5815 839.072 80.3035 839.072 80.3035L845.289 69.7996C848.948 74.5378 854.074 77.9299 859.865 79.4456L854.294 89.0837ZM866.298 75.3632C862.059 75.3632 857.914 74.106 854.389 71.7506C850.864 69.3952 848.117 66.0474 846.494 62.1305C844.872 58.2136 844.447 53.9036 845.275 49.7455C846.102 45.5873 848.143 41.7678 851.141 38.77C854.139 35.7722 857.958 33.7306 862.117 32.9035C866.275 32.0764 870.585 32.5009 874.502 34.1233C878.418 35.7457 881.766 38.4932 884.122 42.0183C886.477 45.5434 887.734 49.6878 887.734 53.9274C887.718 59.6076 885.455 65.0505 881.438 69.067C877.422 73.0835 871.979 75.347 866.298 75.3632ZM884.735 82.8575C881.733 85.8592 878.303 89.0739 878.303 89.0739L872.515 79.4279C878.355 78.0226 883.515 74.6081 887.091 69.7819L893.308 80.2858C893.523 80.2858 889.02 81.5716 884.733 82.8496L884.735 82.8575Z" fill="#4559FF"/>
</g>
<path d="M131.034 24C119.419 24 102.823 30.6793 98 30.6793V70.2566C98.5887 75.1585 103.083 90.1812 131.034 97.0189C157.253 90.6113 163.649 73.2226 164 70.2566V30.6792C159.257 30.6792 142.649 24 131.034 24ZM159.109 68.7615C158.86 70.9124 156.754 74.8287 153.154 79.04C149.758 83.0023 143.328 88.7874 131.034 91.7987C119.215 88.912 112.616 84.542 108.733 80.4552C104.453 75.9383 103.163 71.2862 102.891 68.9993V35.1066C107.873 34.8349 120.823 29.05 131.034 29.05C141.234 29.05 154.626 34.8349 159.12 35.1066L159.109 68.7615Z" fill="#4559FF"/>
<path d="M120.34 69.6308C121.251 70.0867 122.345 70.9073 123.987 71.7735C126.904 73.3235 130.962 73.6427 135.84 73.6427C140.809 73.6427 147.647 73.278 151.978 72.7765C151.522 73.8251 150.884 75.7854 150.838 76.925C147.693 77.1074 140.08 77.4265 135.703 77.4265C130.324 77.4265 126.403 76.8795 123.166 75.1926C121.206 74.0985 119.747 72.8221 118.698 72.8221C117.103 72.8221 114.778 75.3294 112.453 78.0192L109.9 74.4632C112.042 72.4117 114.276 70.6793 116.237 69.8132V56.638H110.538V52.7174H120.34V69.6308ZM118.106 48.0218C116.829 45.9247 113.912 42.8246 111.45 40.5907L114.687 38.3113C117.148 40.3628 120.112 43.3716 121.479 45.4687L118.106 48.0218ZM137.39 63.8866C137.39 65.0263 137.527 66.5763 137.618 67.4425C128.181 69.8587 126.676 70.3146 125.673 70.9528C125.4 69.9955 124.488 68.3087 123.804 67.6249C124.67 67.0778 125.81 66.0293 125.81 64.0234V38.4938H147.1V55.6351L147.419 55.3615L150.656 57.9601C148.468 59.5101 146.006 61.197 143.772 62.4735C146.143 64.5249 148.377 66.5764 149.835 68.2632L146.69 70.7706C144.046 67.4426 138.302 62.3366 133.56 58.9176L136.432 56.7749C137.891 57.7778 139.441 59.0087 141.082 60.2396C143.088 58.9631 145.322 57.1852 146.918 55.8175H129.937V65.619L137.39 63.8866ZM129.937 41.9585V45.4687H143.155V41.9585H129.937ZM143.155 52.3527V48.6599H129.937V52.3527H143.155Z" fill="#4559FF"/>
<defs>
<clipPath id="clip0_75_9">
<rect width="69" height="69" fill="white" transform="translate(832 28)"/>
</clipPath>
</defs>
</svg>
