<svg width="375" height="31" viewBox="0 0 375 31" fill="none" xmlns="http://www.w3.org/2000/svg">
<path d="M54.5067 6.90909C54.5067 6.37547 54.6376 5.88826 54.8994 5.44744C55.1613 5.00663 55.5109 4.65696 55.9484 4.39844C56.3892 4.1366 56.8765 4.00568 57.4101 4.00568C57.8741 4.00568 58.3033 4.10677 58.6977 4.30895C59.0921 4.50781 59.4186 4.78125 59.6771 5.12926C59.9356 5.47727 60.0931 5.86837 60.1494 6.30256H58.8568C58.7971 5.99432 58.6281 5.74242 58.3497 5.54688C58.0746 5.34801 57.7614 5.24858 57.4101 5.24858C57.1051 5.24858 56.8267 5.32315 56.5748 5.4723C56.3229 5.62145 56.1224 5.82197 55.9733 6.07386C55.8241 6.32244 55.7496 6.60085 55.7496 6.90909C55.7496 7.21402 55.8241 7.49242 55.9733 7.74432C56.1224 7.99621 56.3229 8.19673 56.5748 8.34588C56.8267 8.49503 57.1051 8.5696 57.4101 8.5696C57.7614 8.5696 58.0613 8.47183 58.3099 8.27628C58.5585 8.07741 58.7143 7.82386 58.7773 7.51562H60.0699C60.0135 7.94981 59.8627 8.34091 59.6175 8.68892C59.3722 9.03693 59.059 9.31203 58.6778 9.5142C58.2967 9.71307 57.8741 9.8125 57.4101 9.8125C56.8765 9.8125 56.3892 9.68324 55.9484 9.42472C55.5109 9.16288 55.1613 8.81155 54.8994 8.37074C54.6376 7.92992 54.5067 7.44271 54.5067 6.90909ZM57.3653 12.1591C56.6428 12.1591 55.9633 12.0232 55.327 11.7514C54.6939 11.4796 54.1354 11.1035 53.6515 10.6229C53.171 10.139 52.7931 9.58049 52.518 8.94744C52.2462 8.31439 52.112 7.63494 52.1153 6.90909C52.1186 6.18324 52.2562 5.50379 52.528 4.87074C52.8031 4.23769 53.1809 3.68087 53.6615 3.20028C54.1421 2.71638 54.6989 2.33854 55.3319 2.06676C55.965 1.79498 56.6428 1.65909 57.3653 1.65909C58.0912 1.65909 58.7706 1.79498 59.4037 2.06676C60.04 2.33854 60.5969 2.71638 61.0741 3.20028C61.5547 3.68087 61.9309 4.23769 62.2027 4.87074C62.4745 5.50379 62.612 6.18324 62.6153 6.90909C62.6186 7.63494 62.4844 8.31439 62.2126 8.94744C61.9408 9.58049 61.5647 10.139 61.0841 10.6229C60.6035 11.1035 60.045 11.4796 59.4086 11.7514C58.7723 12.0232 58.0912 12.1591 57.3653 12.1591ZM57.3653 10.8366C57.9089 10.8366 58.4193 10.7356 58.8966 10.5334C59.3738 10.3312 59.7915 10.0511 60.1494 9.69318C60.5107 9.33191 60.7924 8.9143 60.9946 8.44034C61.1968 7.96307 61.2962 7.45431 61.2929 6.91406C61.2929 6.3705 61.1901 5.86009 60.9846 5.38281C60.7825 4.90554 60.5007 4.48793 60.1395 4.12997C59.7815 3.7687 59.3656 3.48698 58.8916 3.2848C58.4176 3.08262 57.9089 2.98153 57.3653 2.98153C56.8251 2.98153 56.318 3.08262 55.844 3.2848C55.3701 3.48698 54.9524 3.7687 54.5912 4.12997C54.2332 4.49124 53.9515 4.91051 53.746 5.38778C53.5405 5.86174 53.4378 6.3705 53.4378 6.91406C53.4345 7.45099 53.5339 7.9581 53.7361 8.43537C53.9416 8.90933 54.2233 9.32694 54.5812 9.68821C54.9425 10.0462 55.3601 10.3279 55.8341 10.5334C56.3113 10.7356 56.8218 10.8366 57.3653 10.8366ZM68.4569 12V10.8864L71.9023 7.31676C72.2702 6.92898 72.5734 6.58925 72.8121 6.29759C73.054 6.0026 73.2346 5.72254 73.354 5.45739C73.4733 5.19223 73.5329 4.91051 73.5329 4.61222C73.5329 4.27415 73.4534 3.98248 73.2943 3.73722C73.1352 3.48864 72.9181 3.29806 72.643 3.16548C72.3679 3.02959 72.058 2.96165 71.7133 2.96165C71.3488 2.96165 71.0306 3.03622 70.7588 3.18537C70.487 3.33452 70.2782 3.54498 70.1324 3.81676C69.9865 4.08854 69.9136 4.40672 69.9136 4.77131H68.447C68.447 4.15151 68.5895 3.60961 68.8746 3.1456C69.1596 2.68158 69.5507 2.32197 70.0479 2.06676C70.545 1.80824 71.1101 1.67898 71.7432 1.67898C72.3828 1.67898 72.9463 1.80658 73.4335 2.06179C73.924 2.31368 74.3068 2.65838 74.5819 3.09588C74.857 3.53007 74.9946 4.0206 74.9946 4.56747C74.9946 4.94531 74.9233 5.31487 74.7808 5.67614C74.6416 6.0374 74.398 6.4401 74.05 6.88423C73.702 7.32505 73.2181 7.86032 72.5983 8.49006L70.5748 10.608V10.6825H75.1586V12H68.4569ZM80.5876 12.169C79.8021 12.1657 79.1309 11.9586 78.5741 11.5476C78.0173 11.1366 77.5914 10.5384 77.2964 9.75284C77.0015 8.96733 76.854 8.02107 76.854 6.91406C76.854 5.81037 77.0015 4.86742 77.2964 4.08523C77.5947 3.30303 78.0223 2.70644 78.5791 2.29545C79.1392 1.88447 79.8087 1.67898 80.5876 1.67898C81.3665 1.67898 82.0344 1.88613 82.5912 2.30043C83.148 2.71141 83.5739 3.308 83.8689 4.0902C84.1672 4.86908 84.3163 5.81037 84.3163 6.91406C84.3163 8.02438 84.1688 8.9723 83.8738 9.75781C83.5789 10.54 83.153 11.1383 82.5961 11.5526C82.0393 11.9635 81.3698 12.169 80.5876 12.169ZM80.5876 10.8416C81.277 10.8416 81.8156 10.5052 82.2034 9.83239C82.5945 9.15956 82.79 8.18679 82.79 6.91406C82.79 6.06889 82.7006 5.35464 82.5216 4.77131C82.3459 4.18466 82.0924 3.74053 81.7609 3.43892C81.4328 3.134 81.0417 2.98153 80.5876 2.98153C79.9015 2.98153 79.363 3.3196 78.9719 3.99574C78.5808 4.67187 78.3836 5.64465 78.3802 6.91406C78.3802 7.76255 78.4681 8.48011 78.6437 9.06676C78.8227 9.65009 79.0763 10.0926 79.4044 10.3942C79.7325 10.6925 80.1269 10.8416 80.5876 10.8416ZM86.08 12V10.8864L89.5253 7.31676C89.8932 6.92898 90.1965 6.58925 90.4351 6.29759C90.6771 6.0026 90.8577 5.72254 90.977 5.45739C91.0963 5.19223 91.156 4.91051 91.156 4.61222C91.156 4.27415 91.0764 3.98248 90.9173 3.73722C90.7583 3.48864 90.5412 3.29806 90.2661 3.16548C89.991 3.02959 89.6811 2.96165 89.3364 2.96165C88.9718 2.96165 88.6536 3.03622 88.3818 3.18537C88.1101 3.33452 87.9012 3.54498 87.7554 3.81676C87.6096 4.08854 87.5367 4.40672 87.5367 4.77131H86.07C86.07 4.15151 86.2126 3.60961 86.4976 3.1456C86.7826 2.68158 87.1737 2.32197 87.6709 2.06676C88.1681 1.80824 88.7332 1.67898 89.3662 1.67898C90.0059 1.67898 90.5693 1.80658 91.0566 2.06179C91.5471 2.31368 91.9299 2.65838 92.205 3.09588C92.4801 3.53007 92.6176 4.0206 92.6176 4.56747C92.6176 4.94531 92.5464 5.31487 92.4039 5.67614C92.2646 6.0374 92.021 6.4401 91.673 6.88423C91.325 7.32505 90.8411 7.86032 90.2213 8.49006L88.1979 10.608V10.6825H92.7817V12H86.08ZM94.2334 10.0114V8.76847L98.6333 1.81818H99.6127V3.64773H98.9912L95.8442 8.62926V8.70881H101.875V10.0114H94.2334ZM99.0608 12V9.63352L99.0708 9.06676V1.81818H100.527V12H99.0608ZM110.729 7.366H119.619V8.318H110.729V7.366ZM115.895 1.668H116.875V4.412C116.875 4.72 116.917 4.776 117.281 4.776C117.435 4.776 118.261 4.776 118.471 4.776C118.765 4.776 118.821 4.636 118.849 3.684C119.059 3.838 119.451 3.964 119.717 4.034C119.619 5.308 119.353 5.63 118.583 5.63C118.373 5.63 117.351 5.63 117.155 5.63C116.133 5.63 115.895 5.378 115.895 4.426V1.668ZM110.925 0.87H119.521V3.208H118.555V1.766H111.863V3.446H110.925V0.87ZM114.551 5.784H115.573V13.12H114.551V5.784ZM113.571 1.682H114.565C114.425 4.174 113.865 5.448 111.247 6.148C111.163 5.91 110.897 5.546 110.715 5.364C113.039 4.804 113.459 3.796 113.571 1.682ZM115.993 7.814C116.777 9.312 118.345 10.866 119.843 11.58C119.591 11.776 119.255 12.154 119.087 12.434C117.603 11.566 116.063 9.816 115.223 8.094L115.993 7.814ZM114.229 7.73L115.055 8.01C114.131 9.914 112.437 11.65 110.715 12.532C110.561 12.294 110.267 11.93 110.043 11.734C111.709 10.992 113.375 9.396 114.229 7.73ZM107.523 1.164L108.139 0.407999C109.007 0.8 110.085 1.458 110.617 1.948L109.987 2.802C109.469 2.284 108.419 1.598 107.523 1.164ZM106.879 5.014L107.411 4.202C108.307 4.482 109.427 5 109.987 5.434L109.427 6.358C108.881 5.896 107.775 5.35 106.879 5.014ZM107.243 12.322C107.915 11.258 108.881 9.438 109.595 7.884L110.407 8.5C109.749 9.956 108.895 11.678 108.153 12.966L107.243 12.322ZM129.349 1.332H130.343V11.328H129.349V1.332ZM132.093 0.589999H133.171V12.938H132.093V0.589999ZM126.563 0.659999H127.585V5.42C127.585 8.094 127.417 10.768 125.779 12.938C125.555 12.756 125.107 12.462 124.827 12.336C126.395 10.32 126.563 7.912 126.563 5.42V0.659999ZM121.061 3.67H125.611V4.692H121.061V3.67ZM122.811 0.407999H123.875V9.76H122.811V0.407999ZM120.823 10.194C121.999 9.816 123.791 9.158 125.499 8.514L125.695 9.48C124.127 10.11 122.461 10.782 121.173 11.272L120.823 10.194ZM137.357 4.566H140.983V5.602H137.357V4.566ZM136.741 0.323999H137.819V11.734L136.741 12V0.323999ZM134.865 11.734C136.545 11.412 139.065 10.838 141.417 10.292L141.529 11.3C139.303 11.846 136.937 12.406 135.201 12.812L134.865 11.734ZM146.569 3.306L147.353 4.188C146.065 5.028 144.287 5.854 142.705 6.526C142.635 6.274 142.467 5.91 142.327 5.686C143.853 5.042 145.561 4.104 146.569 3.306ZM142.033 0.323999H143.097V10.908C143.097 11.692 143.223 11.832 143.881 11.832C144.189 11.832 145.673 11.832 146.065 11.832C146.723 11.832 146.807 11.314 146.891 9.284C147.157 9.48 147.591 9.676 147.885 9.746C147.745 12.028 147.465 12.826 146.135 12.826C145.841 12.826 144.049 12.826 143.783 12.826C142.397 12.826 142.033 12.42 142.033 10.894V0.323999ZM151.357 4.566H154.983V5.602H151.357V4.566ZM150.741 0.323999H151.819V11.734L150.741 12V0.323999ZM148.865 11.734C150.545 11.412 153.065 10.838 155.417 10.292L155.529 11.3C153.303 11.846 150.937 12.406 149.201 12.812L148.865 11.734ZM160.569 3.306L161.353 4.188C160.065 5.028 158.287 5.854 156.705 6.526C156.635 6.274 156.467 5.91 156.327 5.686C157.853 5.042 159.561 4.104 160.569 3.306ZM156.033 0.323999H157.097V10.908C157.097 11.692 157.223 11.832 157.881 11.832C158.189 11.832 159.673 11.832 160.065 11.832C160.723 11.832 160.807 11.314 160.891 9.284C161.157 9.48 161.591 9.676 161.885 9.746C161.745 12.028 161.465 12.826 160.135 12.826C159.841 12.826 158.049 12.826 157.783 12.826C156.397 12.826 156.033 12.42 156.033 10.894V0.323999ZM167.807 7.842H175.101V8.808H167.807V7.842ZM166.925 11.762H175.773V12.728H166.925V11.762ZM167.345 1.71H175.647V3.992H174.681V2.62H168.269V4.118H167.345V1.71ZM170.859 0.24H171.881V2.298H170.859V0.24ZM170.845 8.304H171.881V12.266H170.845V8.304ZM172.049 2.508H173.015V5.378C173.015 5.672 173.071 5.714 173.393 5.714C173.533 5.714 174.247 5.714 174.429 5.714C174.723 5.714 174.779 5.574 174.807 4.496C175.003 4.65 175.395 4.804 175.661 4.86C175.563 6.246 175.311 6.596 174.541 6.596C174.331 6.596 173.449 6.596 173.253 6.596C172.273 6.596 172.049 6.33 172.049 5.378V2.508ZM169.753 2.55H170.719C170.607 4.986 170.131 6.33 167.807 7.03C167.723 6.806 167.485 6.47 167.289 6.288C169.319 5.714 169.669 4.636 169.753 2.55ZM162.711 7.506C163.803 7.17 165.441 6.596 167.023 6.036L167.205 6.988C165.735 7.548 164.181 8.108 162.977 8.528L162.711 7.506ZM162.907 3.068H167.107V4.048H162.907V3.068ZM164.671 0.253999H165.651V11.902C165.651 12.49 165.511 12.77 165.161 12.938C164.839 13.106 164.293 13.134 163.411 13.134C163.369 12.882 163.243 12.448 163.103 12.154C163.719 12.168 164.251 12.168 164.419 12.154C164.587 12.154 164.671 12.112 164.671 11.902V0.253999ZM179.301 1.402H180.323V13.092H179.301V1.402ZM176.935 4.188H182.395V5.182H176.935V4.188ZM179.357 4.566L180.015 4.846C179.455 6.82 178.335 9.27 177.257 10.572C177.159 10.278 176.907 9.844 176.725 9.606C177.733 8.486 178.853 6.302 179.357 4.566ZM181.541 0.436L182.185 1.29C180.897 1.794 178.965 2.172 177.369 2.396C177.313 2.158 177.173 1.808 177.061 1.57C178.643 1.318 180.477 0.911999 181.541 0.436ZM180.267 5.364C180.631 5.742 181.975 7.436 182.283 7.856L181.625 8.682C181.289 8.01 180.197 6.344 179.777 5.798L180.267 5.364ZM187.001 0.24H188.037V13.106H187.001V0.24ZM182.227 9.354L189.675 8.15L189.843 9.13L182.381 10.348L182.227 9.354ZM183.361 1.836L184.033 1.22C184.873 1.752 185.867 2.55 186.343 3.138L185.615 3.824C185.167 3.236 184.187 2.396 183.361 1.836ZM182.801 5.476L183.459 4.86C184.369 5.406 185.475 6.246 185.993 6.848L185.293 7.548C184.775 6.932 183.711 6.05 182.801 5.476ZM195.611 2.452H203.325V3.432H195.611V2.452ZM195.905 5.532H202.079V6.498H195.905V5.532ZM198.915 0.24H199.951V6.078H198.915V0.24ZM197.263 6.246C198.313 9.186 200.567 11.37 203.843 12.238C203.605 12.448 203.311 12.868 203.157 13.134C199.797 12.14 197.529 9.816 196.311 6.526L197.263 6.246ZM201.995 5.532H202.191L202.387 5.49L203.045 5.784C201.855 9.802 198.803 12.084 195.373 13.12C195.275 12.84 195.009 12.392 194.813 12.168C198.019 11.342 200.973 9.172 201.995 5.714V5.532ZM190.837 7.66C192.013 7.366 193.749 6.89 195.415 6.414L195.541 7.366C194.015 7.828 192.391 8.304 191.145 8.668L190.837 7.66ZM191.019 3.068H195.415V4.062H191.019V3.068ZM192.825 0.253999H193.861V11.86C193.861 12.448 193.721 12.742 193.343 12.896C192.979 13.064 192.391 13.092 191.425 13.092C191.397 12.826 191.243 12.406 191.103 12.126C191.761 12.14 192.377 12.14 192.559 12.126C192.741 12.126 192.825 12.056 192.825 11.86V0.253999ZM205.215 2.06H217.479V3.054H205.215V2.06ZM208.631 7.058H215.211V7.968H208.631V7.058ZM207.889 4.678H215.043V5.616H208.925V13.12H207.889V4.678ZM214.805 4.678H215.827V11.818C215.827 12.434 215.701 12.756 215.225 12.924C214.777 13.092 213.993 13.092 212.789 13.092C212.747 12.798 212.593 12.364 212.439 12.07C213.377 12.112 214.231 12.098 214.483 12.098C214.721 12.084 214.805 12.014 214.805 11.804V4.678ZM209.793 0.24L210.857 0.492C209.905 3.572 208.225 6.68 205.551 8.556C205.411 8.318 205.089 7.954 204.879 7.744C207.385 6.022 209.037 3.054 209.793 0.24ZM208.631 9.424H215.211V10.334H208.631V9.424ZM225.151 3.516H230.373V4.398H225.151V3.516ZM222.967 11.902C224.255 11.678 226.285 11.272 228.245 10.88L228.315 11.804C226.551 12.21 224.675 12.616 223.317 12.924L222.967 11.902ZM224.549 0.87H225.571V11.986H224.549V0.87ZM225.151 0.87H230.863V7.086H225.151V6.162H229.841V1.794H225.151V0.87ZM227.853 6.484C228.455 9.102 229.729 11.286 231.815 12.21C231.577 12.42 231.269 12.812 231.115 13.078C228.931 11.972 227.629 9.606 226.985 6.652L227.853 6.484ZM230.639 7.408L231.465 8.01C230.681 8.738 229.687 9.522 228.903 10.04L228.245 9.508C229.001 8.962 230.051 8.08 230.639 7.408ZM219.467 0.855999H223.051V1.808H220.461V13.134H219.467V0.855999ZM222.743 0.855999H222.939L223.093 0.814L223.807 1.248C223.359 2.41 222.771 3.852 222.253 4.958C223.387 6.12 223.653 7.114 223.653 7.982C223.653 8.752 223.471 9.326 223.051 9.62C222.841 9.76 222.575 9.844 222.281 9.872C221.959 9.914 221.567 9.914 221.217 9.886C221.203 9.634 221.119 9.214 220.951 8.934C221.315 8.976 221.623 8.976 221.875 8.962C222.057 8.948 222.225 8.906 222.365 8.822C222.603 8.668 222.687 8.304 222.673 7.87C222.673 7.1 222.379 6.176 221.287 5.084C221.847 3.81 222.421 2.116 222.743 1.15V0.855999ZM238.171 5.322L239.403 5.63C238.521 7.744 237.303 10.362 236.267 12.056L235.301 11.748C236.295 10.026 237.513 7.296 238.171 5.322ZM233.579 11.426C236.141 11.342 240.215 11.174 243.967 10.992L243.939 12C240.271 12.21 236.351 12.42 233.719 12.532L233.579 11.426ZM240.859 8.388L241.867 7.926C243.141 9.396 244.583 11.342 245.283 12.616L244.219 13.19C243.561 11.916 242.105 9.872 240.859 8.388ZM236.757 0.659999L237.919 0.981999C236.981 3.236 235.511 5.378 234.027 6.764C233.803 6.554 233.313 6.176 233.019 6.008C234.559 4.748 235.945 2.732 236.757 0.659999ZM241.769 0.645999C242.693 2.48 244.457 4.692 245.745 5.854C245.465 6.078 245.073 6.484 244.863 6.75C243.561 5.42 241.811 3.04 240.733 1.08L241.769 0.645999ZM247.565 1.15H258.121V2.158H247.565V1.15ZM247.649 3.628H256.091V4.566H247.649V3.628ZM257.701 1.15H258.751V11.552C258.751 12.28 258.611 12.644 258.121 12.84C257.631 13.022 256.749 13.036 255.503 13.036C255.447 12.714 255.293 12.196 255.125 11.888C256.105 11.916 257.057 11.916 257.351 11.902C257.617 11.888 257.701 11.818 257.701 11.552V1.15ZM248.545 6.078H249.567V11.594H248.545V6.078ZM249.385 6.078H255.125V10.558H249.385V9.634H254.089V7.016H249.385V6.078ZM271.346 0.87H277.198V1.836H271.346V0.87ZM265.914 4.118H270.17V5.056H265.914V4.118ZM271.374 4.496H276.372V5.476H271.374V4.496ZM267.972 0.211999H268.938V4.678H267.972V0.211999ZM270.814 0.87H271.808V4.902C271.808 7.282 271.626 10.754 270.352 13.106C270.17 12.938 269.736 12.686 269.484 12.602C270.716 10.334 270.814 7.156 270.814 4.902V0.87ZM265.956 7.1H269.33V13.106H268.35V8.038H265.956V7.1ZM265.494 0.533999H266.446V6.078C266.446 8.528 266.292 11.202 265.13 13.148C264.976 12.952 264.626 12.658 264.388 12.518C265.368 10.726 265.494 8.22 265.494 6.092V0.533999ZM276.064 4.496H276.246L276.428 4.468L277.072 4.664C276.414 9.004 274.482 11.734 271.962 13.12C271.822 12.868 271.528 12.476 271.304 12.266C273.6 11.132 275.49 8.458 276.064 4.706V4.496ZM272.83 5.112C273.53 8.458 275.028 11.146 277.646 12.28C277.422 12.476 277.1 12.868 276.918 13.148C274.216 11.804 272.746 8.976 271.976 5.322L272.83 5.112ZM283.946 1.542H290.47V2.55H283.946V1.542ZM290.106 1.542H290.288L290.484 1.486L291.156 1.71C290.274 7.87 287.488 11.44 283.834 13.148C283.68 12.868 283.386 12.448 283.162 12.238C286.592 10.824 289.294 7.282 290.106 1.766V1.542ZM285.458 2.76C286.34 7.422 287.894 10.096 291.646 12.28C291.366 12.476 291.044 12.854 290.89 13.162C287.012 10.74 285.444 7.884 284.506 2.956L285.458 2.76ZM278.738 3.222H284.044V4.202H278.738V3.222ZM281.076 0.24H282.112V13.106H281.076V0.24ZM281.034 3.824L281.818 4.048C281.3 6.344 280.222 9.144 279.06 10.6C278.948 10.306 278.668 9.914 278.472 9.662C279.536 8.332 280.586 5.896 281.034 3.824ZM282.028 5.616C282.448 5.938 283.988 7.338 284.324 7.674L283.75 8.626C283.302 8.024 282.028 6.666 281.538 6.176L282.028 5.616ZM292.892 1.024H298.926V1.99H292.892V1.024ZM299.92 5.014H305.548V6.022H299.92V5.014ZM302.958 5.672H303.994V13.134H302.958V5.672ZM299.514 1.626L300.83 1.976C300.816 2.074 300.746 2.13 300.55 2.158V5.364C300.55 7.632 300.256 10.838 298.156 13.092C298.002 12.868 297.624 12.518 297.372 12.392C299.318 10.32 299.514 7.506 299.514 5.364V1.626ZM293.41 3.446H294.404V7.226C294.404 9.018 294.236 11.496 293.158 13.148C292.99 12.952 292.556 12.63 292.332 12.504C293.312 10.992 293.41 8.836 293.41 7.226V3.446ZM304.344 0.407999L305.268 1.206C303.882 1.878 301.852 2.452 300.102 2.858C300.046 2.62 299.878 2.242 299.738 2.004C301.404 1.612 303.294 1.01 304.344 0.407999ZM293.984 3.446H298.576V7.814H293.984V6.862H297.554V4.412H293.984V3.446ZM306.92 2.06H319.184V3.054H306.92V2.06ZM310.336 7.058H316.916V7.968H310.336V7.058ZM309.594 4.678H316.748V5.616H310.63V13.12H309.594V4.678ZM316.51 4.678H317.532V11.818C317.532 12.434 317.406 12.756 316.93 12.924C316.482 13.092 315.698 13.092 314.494 13.092C314.452 12.798 314.298 12.364 314.144 12.07C315.082 12.112 315.936 12.098 316.188 12.098C316.426 12.084 316.51 12.014 316.51 11.804V4.678ZM311.498 0.24L312.562 0.492C311.61 3.572 309.93 6.68 307.256 8.556C307.116 8.318 306.794 7.954 306.584 7.744C309.09 6.022 310.742 3.054 311.498 0.24ZM310.336 9.424H316.916V10.334H310.336V9.424ZM2.74373 18.962V23.134H10.6677V18.962H2.74373ZM1.80573 18.22H11.6477V23.876H1.80573V18.22ZM3.45773 26.494H10.5977V27.334H3.45773V26.494ZM0.517727 24.716H12.9077V25.528H0.517727V24.716ZM3.27573 20.474H10.1637V21.118H3.27573V20.474ZM10.2617 26.494H11.3117C11.3117 26.494 11.2697 26.802 11.2417 26.956C10.9757 28.678 10.7097 29.462 10.3037 29.812C10.0097 30.036 9.72973 30.106 9.25373 30.134C8.83373 30.134 8.00773 30.134 7.13973 30.078C7.11173 29.826 6.99973 29.448 6.81773 29.196C7.69973 29.28 8.59573 29.294 8.90373 29.294C9.21173 29.294 9.36573 29.28 9.49173 29.168C9.79973 28.93 10.0377 28.23 10.2477 26.62L10.2617 26.494ZM3.38773 25.038H4.45173C4.12973 26.032 3.72373 27.208 3.40173 27.992L2.37973 27.852C2.71573 27.082 3.12173 25.948 3.38773 25.038ZM6.08973 17.198L7.30773 17.352C7.02773 17.842 6.69173 18.304 6.45373 18.64L5.55773 18.444C5.75373 18.066 5.99173 17.548 6.08973 17.198ZM8.74973 19.116L9.43573 19.368C9.12773 19.774 8.79173 20.152 8.52573 20.418L7.99373 20.208C8.24573 19.9 8.58173 19.424 8.74973 19.116ZM6.25773 19.088H7.08373V22.98H6.25773V19.088ZM6.22973 20.796L6.83173 21.048C6.15973 21.804 4.84373 22.532 3.69573 22.868C3.58373 22.686 3.34573 22.42 3.17773 22.266C4.32573 22.028 5.59973 21.426 6.22973 20.796ZM3.97573 19.424L4.61973 19.172C4.91373 19.466 5.22173 19.886 5.37573 20.18L4.71773 20.446C4.57773 20.166 4.25573 19.718 3.97573 19.424ZM6.59373 21.51L7.02773 21.062C8.02173 21.426 9.35173 21.986 10.0657 22.35L9.63173 22.868C8.93173 22.49 7.61573 21.902 6.59373 21.51ZM19.5577 22.322L20.7897 22.63C19.9077 24.744 18.6897 27.362 17.6537 29.056L16.6877 28.748C17.6817 27.026 18.8997 24.296 19.5577 22.322ZM14.9657 28.426C17.5277 28.342 21.6017 28.174 25.3537 27.992L25.3257 29C21.6577 29.21 17.7377 29.42 15.1057 29.532L14.9657 28.426ZM22.2457 25.388L23.2537 24.926C24.5277 26.396 25.9697 28.342 26.6697 29.616L25.6057 30.19C24.9477 28.916 23.4917 26.872 22.2457 25.388ZM18.1437 17.66L19.3057 17.982C18.3677 20.236 16.8977 22.378 15.4137 23.764C15.1897 23.554 14.6997 23.176 14.4057 23.008C15.9457 21.748 17.3317 19.732 18.1437 17.66ZM23.1557 17.646C24.0797 19.48 25.8437 21.692 27.1317 22.854C26.8517 23.078 26.4597 23.484 26.2497 23.75C24.9477 22.42 23.1977 20.04 22.1197 18.08L23.1557 17.646ZM32.7597 18.948L33.7257 18.99C33.5157 23.288 33.0257 26.592 31.2757 28.804C31.1217 28.65 30.6877 28.328 30.4497 28.188C32.1857 26.2 32.6197 22.952 32.7597 18.948ZM36.4697 18.948L37.4497 18.99C37.2817 23.358 36.8197 26.648 34.9857 28.846C34.8457 28.678 34.4117 28.342 34.1737 28.202C35.9657 26.242 36.3577 23.022 36.4697 18.948ZM30.4917 21.846L31.0797 21.23C32.5077 22.532 34.0617 24.338 34.7897 25.528L34.1597 26.27C33.4317 25.038 31.8777 23.176 30.4917 21.846ZM34.3137 21.692L34.9157 21.076C36.4137 22.448 38.0657 24.338 38.8357 25.598L38.2057 26.354C37.4357 25.066 35.7697 23.092 34.3137 21.692ZM28.9517 18.08H40.0817V19.088H29.9597V30.092H28.9517V18.08ZM39.5217 18.08H40.5577V28.776C40.5577 29.406 40.3897 29.728 39.9697 29.91C39.5497 30.064 38.8497 30.092 37.6597 30.092C37.6037 29.812 37.4497 29.35 37.2957 29.07C38.1497 29.112 38.9617 29.098 39.1997 29.084C39.4377 29.084 39.5217 29 39.5217 28.776V18.08ZM48.1317 17.24H49.2377V19.494H48.1317V17.24ZM42.9097 18.724H54.5997V21.748H53.4937V19.718H43.9737V21.748H42.9097V18.724ZM47.5717 20.348L48.6637 20.586C47.6277 22.714 46.1577 25.542 45.1637 27.236L44.0857 26.942C45.1077 25.262 46.6197 22.406 47.5717 20.348ZM51.2817 23.246L52.4437 23.414C51.2957 27.754 48.2997 29.378 43.4697 30.148C43.3577 29.896 43.0357 29.434 42.8397 29.196C47.5857 28.608 50.3717 27.138 51.2817 23.246ZM42.5037 22.616H54.9357V23.61H42.5037V22.616ZM44.8977 26.452L45.6117 25.71C48.5517 26.522 52.3037 28.034 54.2637 29.28L53.4797 30.148C51.6177 28.902 47.9077 27.32 44.8977 26.452ZM60.2697 18.444H66.2757V19.382H60.2697V18.444ZM65.9397 18.444H66.1637L66.3457 18.402L67.0317 18.822C65.0437 21.846 60.5637 23.54 56.6157 24.198C56.5177 23.89 56.3077 23.428 56.1397 23.204C59.9477 22.686 64.2597 21.09 65.9397 18.598V18.444ZM60.2137 19.396C61.9217 21.384 65.4917 22.616 69.3277 23.036C69.1037 23.274 68.8237 23.708 68.6837 24.002C64.8617 23.498 61.2777 22.14 59.3037 19.872L60.2137 19.396ZM58.0997 24.002H67.2837V30.092H66.1497V24.94H59.1777V30.134H58.0997V24.002ZM58.5337 26.34H66.6537V27.194H58.5337V26.34ZM58.5337 28.748H66.6537V29.672H58.5337V28.748ZM62.1457 24.436H63.2377V29.266H62.1457V24.436ZM60.8857 17.212L62.0057 17.436C61.0677 18.934 59.6397 20.418 57.4977 21.552C57.3437 21.286 57.0217 20.936 56.7837 20.768C58.7997 19.816 60.1857 18.416 60.8857 17.212ZM74.1904 27.0114V25.7685L78.5903 18.8182H79.5697V20.6477H78.9482L75.8012 25.6293V25.7088H81.8318V27.0114H74.1904ZM79.0178 29V26.6335L79.0278 26.0668V18.8182H80.4845V29H79.0178ZM83.3506 27.0114V25.7685L87.7504 18.8182H88.7298V20.6477H88.1084L84.9614 25.6293V25.7088H90.9919V27.0114H83.3506ZM88.178 29V26.6335L88.1879 26.0668V18.8182H89.6446V29H88.178ZM96.2693 29.169C95.4838 29.1657 94.8126 28.9586 94.2558 28.5476C93.699 28.1366 93.2731 27.5384 92.9781 26.7528C92.6831 25.9673 92.5356 25.0211 92.5356 23.9141C92.5356 22.8104 92.6831 21.8674 92.9781 21.0852C93.2764 20.303 93.7039 19.7064 94.2607 19.2955C94.8209 18.8845 95.4904 18.679 96.2693 18.679C97.0481 18.679 97.716 18.8861 98.2728 19.3004C98.8296 19.7114 99.2555 20.308 99.5505 21.0902C99.8488 21.8691 99.998 22.8104 99.998 23.9141C99.998 25.0244 99.8505 25.9723 99.5555 26.7578C99.2605 27.54 98.8346 28.1383 98.2778 28.5526C97.721 28.9635 97.0515 29.169 96.2693 29.169ZM96.2693 27.8416C96.9587 27.8416 97.4972 27.5052 97.885 26.8324C98.2761 26.1596 98.4717 25.1868 98.4717 23.9141C98.4717 23.0689 98.3822 22.3546 98.2032 21.7713C98.0276 21.1847 97.774 20.7405 97.4426 20.4389C97.1144 20.134 96.7233 19.9815 96.2693 19.9815C95.5832 19.9815 95.0446 20.3196 94.6535 20.9957C94.2624 21.6719 94.0652 22.6446 94.0619 23.9141C94.0619 24.7625 94.1497 25.4801 94.3254 26.0668C94.5044 26.6501 94.7579 27.0926 95.086 27.3942C95.4142 27.6925 95.8086 27.8416 96.2693 27.8416ZM105.306 29.1392C104.624 29.1392 104.014 29.0215 103.477 28.7862C102.943 28.5509 102.521 28.2244 102.209 27.8068C101.901 27.3859 101.735 26.8987 101.712 26.3452H103.273C103.293 26.6468 103.394 26.9086 103.576 27.1307C103.762 27.3494 104.004 27.5185 104.302 27.6378C104.6 27.7571 104.932 27.8168 105.296 27.8168C105.697 27.8168 106.052 27.7472 106.36 27.608C106.672 27.4687 106.916 27.2749 107.091 27.0263C107.267 26.7744 107.355 26.4844 107.355 26.1562C107.355 25.8149 107.267 25.5149 107.091 25.2564C106.919 24.9946 106.665 24.7891 106.331 24.6399C105.999 24.4908 105.598 24.4162 105.127 24.4162H104.267V23.1634H105.127C105.505 23.1634 105.837 23.0954 106.122 22.9595C106.41 22.8236 106.635 22.6347 106.798 22.3928C106.96 22.1475 107.041 21.8608 107.041 21.5327C107.041 21.2178 106.97 20.9444 106.828 20.7124C106.688 20.477 106.49 20.2931 106.231 20.1605C105.976 20.0279 105.674 19.9616 105.326 19.9616C104.995 19.9616 104.685 20.023 104.397 20.1456C104.112 20.2649 103.88 20.4373 103.701 20.6626C103.522 20.8847 103.425 21.1515 103.412 21.4631H101.926C101.942 20.9129 102.105 20.429 102.413 20.0114C102.724 19.5937 103.135 19.2673 103.646 19.032C104.156 18.7966 104.723 18.679 105.346 18.679C105.999 18.679 106.563 18.8066 107.036 19.0618C107.514 19.3137 107.882 19.6501 108.14 20.071C108.402 20.492 108.531 20.9527 108.528 21.4531C108.531 22.0232 108.372 22.5071 108.051 22.9048C107.733 23.3026 107.308 23.5694 106.778 23.7053V23.7848C107.454 23.8875 107.978 24.156 108.349 24.5902C108.724 25.0244 108.909 25.563 108.906 26.206C108.909 26.7661 108.753 27.2682 108.438 27.7124C108.127 28.1565 107.701 28.5062 107.161 28.7614C106.621 29.0133 106.002 29.1392 105.306 29.1392ZM114.33 29.169C113.544 29.1657 112.873 28.9586 112.316 28.5476C111.759 28.1366 111.334 27.5384 111.039 26.7528C110.744 25.9673 110.596 25.0211 110.596 23.9141C110.596 22.8104 110.744 21.8674 111.039 21.0852C111.337 20.303 111.764 19.7064 112.321 19.2955C112.881 18.8845 113.551 18.679 114.33 18.679C115.109 18.679 115.777 18.8861 116.333 19.3004C116.89 19.7114 117.316 20.308 117.611 21.0902C117.909 21.8691 118.059 22.8104 118.059 23.9141C118.059 25.0244 117.911 25.9723 117.616 26.7578C117.321 27.54 116.895 28.1383 116.338 28.5526C115.782 28.9635 115.112 29.169 114.33 29.169ZM114.33 27.8416C115.019 27.8416 115.558 27.5052 115.946 26.8324C116.337 26.1596 116.532 25.1868 116.532 23.9141C116.532 23.0689 116.443 22.3546 116.264 21.7713C116.088 21.1847 115.835 20.7405 115.503 20.4389C115.175 20.134 114.784 19.9815 114.33 19.9815C113.644 19.9815 113.105 20.3196 112.714 20.9957C112.323 21.6719 112.126 22.6446 112.122 23.9141C112.122 24.7625 112.21 25.4801 112.386 26.0668C112.565 26.6501 112.818 27.0926 113.147 27.3942C113.475 27.6925 113.869 27.8416 114.33 27.8416ZM123.377 29.1392C122.923 29.1326 122.475 29.0497 122.035 28.8906C121.597 28.7315 121.199 28.4664 120.841 28.0952C120.483 27.724 120.197 27.2251 119.981 26.5987C119.769 25.9723 119.663 25.1901 119.663 24.2521C119.663 23.3639 119.751 22.575 119.927 21.8857C120.106 21.1963 120.362 20.6146 120.697 20.1406C121.032 19.6634 121.436 19.3004 121.91 19.0518C122.384 18.8033 122.916 18.679 123.506 18.679C124.113 18.679 124.651 18.7983 125.122 19.0369C125.593 19.2756 125.974 19.6054 126.265 20.0263C126.56 20.4472 126.748 20.9261 126.827 21.4631H125.311C125.208 21.0388 125.004 20.6925 124.699 20.424C124.394 20.1555 123.997 20.0213 123.506 20.0213C122.76 20.0213 122.179 20.3461 121.761 20.9957C121.347 21.6454 121.138 22.5485 121.135 23.7053H121.209C121.385 23.4169 121.6 23.1716 121.856 22.9695C122.114 22.764 122.402 22.6065 122.721 22.4972C123.042 22.3845 123.38 22.3281 123.735 22.3281C124.325 22.3281 124.858 22.4723 125.336 22.7607C125.816 23.0457 126.199 23.4401 126.484 23.9439C126.769 24.4477 126.912 25.0244 126.912 25.674C126.912 26.3236 126.764 26.9119 126.469 27.4389C126.178 27.9659 125.767 28.3835 125.236 28.6918C124.706 28.9967 124.086 29.1458 123.377 29.1392ZM123.372 27.8466C123.763 27.8466 124.113 27.7505 124.421 27.5582C124.729 27.366 124.973 27.1075 125.152 26.7827C125.331 26.4579 125.42 26.0949 125.42 25.6939C125.42 25.3028 125.332 24.9465 125.157 24.625C124.984 24.3035 124.746 24.0483 124.441 23.8594C124.139 23.6705 123.794 23.576 123.407 23.576C123.112 23.576 122.838 23.6323 122.586 23.745C122.338 23.8577 122.119 24.0135 121.93 24.2124C121.741 24.4112 121.592 24.6399 121.483 24.8984C121.377 25.1536 121.324 25.4238 121.324 25.7088C121.324 26.09 121.411 26.4429 121.587 26.7678C121.766 27.0926 122.01 27.3544 122.318 27.5533C122.629 27.7488 122.981 27.8466 123.372 27.8466ZM132.267 29.169C131.482 29.1657 130.811 28.9586 130.254 28.5476C129.697 28.1366 129.271 27.5384 128.976 26.7528C128.681 25.9673 128.534 25.0211 128.534 23.9141C128.534 22.8104 128.681 21.8674 128.976 21.0852C129.274 20.303 129.702 19.7064 130.259 19.2955C130.819 18.8845 131.488 18.679 132.267 18.679C133.046 18.679 133.714 18.8861 134.271 19.3004C134.828 19.7114 135.254 20.308 135.549 21.0902C135.847 21.8691 135.996 22.8104 135.996 23.9141C135.996 25.0244 135.849 25.9723 135.554 26.7578C135.259 27.54 134.833 28.1383 134.276 28.5526C133.719 28.9635 133.05 29.169 132.267 29.169ZM132.267 27.8416C132.957 27.8416 133.495 27.5052 133.883 26.8324C134.274 26.1596 134.47 25.1868 134.47 23.9141C134.47 23.0689 134.38 22.3546 134.201 21.7713C134.026 21.1847 133.772 20.7405 133.441 20.4389C133.112 20.134 132.721 19.9815 132.267 19.9815C131.581 19.9815 131.043 20.3196 130.652 20.9957C130.26 21.6719 130.063 22.6446 130.06 23.9141C130.06 24.7625 130.148 25.4801 130.323 26.0668C130.502 26.6501 130.756 27.0926 131.084 27.3942C131.412 27.6925 131.807 27.8416 132.267 27.8416ZM137.76 29V27.8864L141.205 24.3168C141.573 23.929 141.876 23.5893 142.115 23.2976C142.357 23.0026 142.537 22.7225 142.657 22.4574C142.776 22.1922 142.836 21.9105 142.836 21.6122C142.836 21.2741 142.756 20.9825 142.597 20.7372C142.438 20.4886 142.221 20.2981 141.946 20.1655C141.671 20.0296 141.361 19.9616 141.016 19.9616C140.651 19.9616 140.333 20.0362 140.062 20.1854C139.79 20.3345 139.581 20.545 139.435 20.8168C139.289 21.0885 139.216 21.4067 139.216 21.7713H137.75C137.75 21.1515 137.892 20.6096 138.177 20.1456C138.462 19.6816 138.853 19.322 139.351 19.0668C139.848 18.8082 140.413 18.679 141.046 18.679C141.686 18.679 142.249 18.8066 142.736 19.0618C143.227 19.3137 143.61 19.6584 143.885 20.0959C144.16 20.5301 144.297 21.0206 144.297 21.5675C144.297 21.9453 144.226 22.3149 144.084 22.6761C143.944 23.0374 143.701 23.4401 143.353 23.8842C143.005 24.325 142.521 24.8603 141.901 25.4901L139.878 27.608V27.6825H144.461V29H137.76ZM149.89 29.169C149.105 29.1657 148.434 28.9586 147.877 28.5476C147.32 28.1366 146.894 27.5384 146.599 26.7528C146.304 25.9673 146.157 25.0211 146.157 23.9141C146.157 22.8104 146.304 21.8674 146.599 21.0852C146.897 20.303 147.325 19.7064 147.882 19.2955C148.442 18.8845 149.111 18.679 149.89 18.679C150.669 18.679 151.337 18.8861 151.894 19.3004C152.451 19.7114 152.877 20.308 153.172 21.0902C153.47 21.8691 153.619 22.8104 153.619 23.9141C153.619 25.0244 153.472 25.9723 153.177 26.7578C152.882 27.54 152.456 28.1383 151.899 28.5526C151.342 28.9635 150.673 29.169 149.89 29.169ZM149.89 27.8416C150.58 27.8416 151.118 27.5052 151.506 26.8324C151.897 26.1596 152.093 25.1868 152.093 23.9141C152.093 23.0689 152.003 22.3546 151.824 21.7713C151.649 21.1847 151.395 20.7405 151.064 20.4389C150.736 20.134 150.344 19.9815 149.89 19.9815C149.204 19.9815 148.666 20.3196 148.275 20.9957C147.883 21.6719 147.686 22.6446 147.683 23.9141C147.683 24.7625 147.771 25.4801 147.946 26.0668C148.125 26.6501 148.379 27.0926 148.707 27.3942C149.035 27.6925 149.43 27.8416 149.89 27.8416ZM158.927 29.169C158.142 29.1657 157.471 28.9586 156.914 28.5476C156.357 28.1366 155.931 27.5384 155.636 26.7528C155.341 25.9673 155.194 25.0211 155.194 23.9141C155.194 22.8104 155.341 21.8674 155.636 21.0852C155.935 20.303 156.362 19.7064 156.919 19.2955C157.479 18.8845 158.149 18.679 158.927 18.679C159.706 18.679 160.374 18.8861 160.931 19.3004C161.488 19.7114 161.914 20.308 162.209 21.0902C162.507 21.8691 162.656 22.8104 162.656 23.9141C162.656 25.0244 162.509 25.9723 162.214 26.7578C161.919 27.54 161.493 28.1383 160.936 28.5526C160.379 28.9635 159.71 29.169 158.927 29.169ZM158.927 27.8416C159.617 27.8416 160.155 27.5052 160.543 26.8324C160.934 26.1596 161.13 25.1868 161.13 23.9141C161.13 23.0689 161.04 22.3546 160.861 21.7713C160.686 21.1847 160.432 20.7405 160.101 20.4389C159.773 20.134 159.382 19.9815 158.927 19.9815C158.241 19.9815 157.703 20.3196 157.312 20.9957C156.921 21.6719 156.723 22.6446 156.72 23.9141C156.72 24.7625 156.808 25.4801 156.984 26.0668C157.163 26.6501 157.416 27.0926 157.744 27.3942C158.072 27.6925 158.467 27.8416 158.927 27.8416ZM167.975 29.1392C167.52 29.1326 167.073 29.0497 166.632 28.8906C166.195 28.7315 165.797 28.4664 165.439 28.0952C165.081 27.724 164.794 27.2251 164.579 26.5987C164.367 25.9723 164.261 25.1901 164.261 24.2521C164.261 23.3639 164.349 22.575 164.524 21.8857C164.703 21.1963 164.96 20.6146 165.295 20.1406C165.63 19.6634 166.034 19.3004 166.508 19.0518C166.982 18.8033 167.514 18.679 168.104 18.679C168.71 18.679 169.249 18.7983 169.72 19.0369C170.19 19.2756 170.571 19.6054 170.863 20.0263C171.158 20.4472 171.345 20.9261 171.425 21.4631H169.908C169.806 21.0388 169.602 20.6925 169.297 20.424C168.992 20.1555 168.594 20.0213 168.104 20.0213C167.358 20.0213 166.776 20.3461 166.359 20.9957C165.944 21.6454 165.736 22.5485 165.732 23.7053H165.807C165.983 23.4169 166.198 23.1716 166.453 22.9695C166.712 22.764 167 22.6065 167.318 22.4972C167.64 22.3845 167.978 22.3281 168.332 22.3281C168.922 22.3281 169.456 22.4723 169.933 22.7607C170.414 23.0457 170.797 23.4401 171.082 23.9439C171.367 24.4477 171.509 25.0244 171.509 25.674C171.509 26.3236 171.362 26.9119 171.067 27.4389C170.775 27.9659 170.364 28.3835 169.834 28.6918C169.304 28.9967 168.684 29.1458 167.975 29.1392ZM167.97 27.8466C168.361 27.8466 168.71 27.7505 169.019 27.5582C169.327 27.366 169.57 27.1075 169.749 26.7827C169.928 26.4579 170.018 26.0949 170.018 25.6939C170.018 25.3028 169.93 24.9465 169.754 24.625C169.582 24.3035 169.343 24.0483 169.038 23.8594C168.737 23.6705 168.392 23.576 168.004 23.576C167.709 23.576 167.436 23.6323 167.184 23.745C166.935 23.8577 166.717 24.0135 166.528 24.2124C166.339 24.4112 166.19 24.6399 166.08 24.8984C165.974 25.1536 165.921 25.4238 165.921 25.7088C165.921 26.09 166.009 26.4429 166.185 26.7678C166.364 27.0926 166.607 27.3544 166.916 27.5533C167.227 27.7488 167.578 27.8466 167.97 27.8466ZM173.32 29V27.8864L176.766 24.3168C177.133 23.929 177.437 23.5893 177.675 23.2976C177.917 23.0026 178.098 22.7225 178.217 22.4574C178.337 22.1922 178.396 21.9105 178.396 21.6122C178.396 21.2741 178.317 20.9825 178.158 20.7372C177.998 20.4886 177.781 20.2981 177.506 20.1655C177.231 20.0296 176.921 19.9616 176.577 19.9616C176.212 19.9616 175.894 20.0362 175.622 20.1854C175.35 20.3345 175.141 20.545 174.996 20.8168C174.85 21.0885 174.777 21.4067 174.777 21.7713H173.31C173.31 21.1515 173.453 20.6096 173.738 20.1456C174.023 19.6816 174.414 19.322 174.911 19.0668C175.408 18.8082 175.973 18.679 176.606 18.679C177.246 18.679 177.81 18.8066 178.297 19.0618C178.787 19.3137 179.17 19.6584 179.445 20.0959C179.72 20.5301 179.858 21.0206 179.858 21.5675C179.858 21.9453 179.787 22.3149 179.644 22.6761C179.505 23.0374 179.261 23.4401 178.913 23.8842C178.565 24.325 178.081 24.8603 177.462 25.4901L175.438 27.608V27.6825H180.022V29H173.32ZM185.769 18.8182V29H184.228V20.3594H184.168L181.732 21.9503V20.4787L184.273 18.8182H185.769ZM191.884 29.1392C191.261 29.1392 190.701 29.0199 190.204 28.7812C189.71 28.5393 189.315 28.2079 189.021 27.7869C188.726 27.366 188.568 26.8854 188.548 26.3452H190.04C190.076 26.7827 190.27 27.1423 190.621 27.424C190.973 27.7057 191.394 27.8466 191.884 27.8466C192.275 27.8466 192.622 27.7571 192.923 27.5781C193.228 27.3958 193.467 27.1456 193.639 26.8274C193.815 26.5092 193.903 26.1463 193.903 25.7386C193.903 25.3243 193.813 24.9548 193.634 24.63C193.455 24.3052 193.208 24.05 192.893 23.8643C192.582 23.6787 192.224 23.5843 191.82 23.581C191.511 23.581 191.201 23.634 190.89 23.7401C190.578 23.8461 190.326 23.9853 190.134 24.1577L188.727 23.9489L189.299 18.8182H194.897V20.1357H190.577L190.253 22.9844H190.313C190.512 22.7921 190.775 22.6314 191.104 22.5021C191.435 22.3729 191.79 22.3082 192.168 22.3082C192.787 22.3082 193.339 22.4557 193.823 22.7507C194.31 23.0457 194.693 23.4484 194.972 23.9588C195.253 24.4659 195.392 25.0492 195.389 25.7088C195.392 26.3684 195.243 26.9567 194.942 27.4737C194.643 27.9908 194.229 28.3984 193.699 28.6967C193.172 28.9917 192.567 29.1392 191.884 29.1392ZM199.866 18.752V21.006H206.684V18.752H199.866ZM198.844 17.828H207.762V21.944H198.844V17.828ZM196.898 23.022H209.512V24.002H196.898V23.022ZM199.894 25.234H207.034V26.214H199.894V25.234ZM206.656 25.234H207.776C207.776 25.234 207.748 25.57 207.72 25.724C207.356 28.188 207.02 29.28 206.488 29.742C206.152 30.036 205.816 30.106 205.27 30.134C204.794 30.162 203.87 30.134 202.89 30.078C202.862 29.784 202.722 29.364 202.526 29.084C203.52 29.168 204.542 29.182 204.92 29.182C205.256 29.182 205.438 29.168 205.606 29.056C206.026 28.72 206.348 27.684 206.642 25.388L206.656 25.234ZM200.16 23.288L201.266 23.456C200.888 24.688 200.37 26.214 199.964 27.18L198.844 26.984C199.264 26.018 199.81 24.464 200.16 23.288ZM228.07 18.962V23.134H235.994V18.962H228.07ZM227.132 18.22H236.974V23.876H227.132V18.22ZM228.784 26.494H235.924V27.334H228.784V26.494ZM225.844 24.716H238.234V25.528H225.844V24.716ZM228.602 20.474H235.49V21.118H228.602V20.474ZM235.588 26.494H236.638C236.638 26.494 236.596 26.802 236.568 26.956C236.302 28.678 236.036 29.462 235.63 29.812C235.336 30.036 235.056 30.106 234.58 30.134C234.16 30.134 233.334 30.134 232.466 30.078C232.438 29.826 232.326 29.448 232.144 29.196C233.026 29.28 233.922 29.294 234.23 29.294C234.538 29.294 234.692 29.28 234.818 29.168C235.126 28.93 235.364 28.23 235.574 26.62L235.588 26.494ZM228.714 25.038H229.778C229.456 26.032 229.05 27.208 228.728 27.992L227.706 27.852C228.042 27.082 228.448 25.948 228.714 25.038ZM231.416 17.198L232.634 17.352C232.354 17.842 232.018 18.304 231.78 18.64L230.884 18.444C231.08 18.066 231.318 17.548 231.416 17.198ZM234.076 19.116L234.762 19.368C234.454 19.774 234.118 20.152 233.852 20.418L233.32 20.208C233.572 19.9 233.908 19.424 234.076 19.116ZM231.584 19.088H232.41V22.98H231.584V19.088ZM231.556 20.796L232.158 21.048C231.486 21.804 230.17 22.532 229.022 22.868C228.91 22.686 228.672 22.42 228.504 22.266C229.652 22.028 230.926 21.426 231.556 20.796ZM229.302 19.424L229.946 19.172C230.24 19.466 230.548 19.886 230.702 20.18L230.044 20.446C229.904 20.166 229.582 19.718 229.302 19.424ZM231.92 21.51L232.354 21.062C233.348 21.426 234.678 21.986 235.392 22.35L234.958 22.868C234.258 22.49 232.942 21.902 231.92 21.51ZM241.701 18.8182V29H240.165V18.8182H241.701ZM252.395 22.1293H250.843C250.784 21.7978 250.673 21.5062 250.51 21.2543C250.348 21.0024 250.149 20.7886 249.914 20.6129C249.678 20.4373 249.415 20.3047 249.123 20.2152C248.835 20.1257 248.528 20.081 248.204 20.081C247.617 20.081 247.092 20.2285 246.628 20.5234C246.167 20.8184 245.802 21.2509 245.534 21.821C245.269 22.3911 245.136 23.0871 245.136 23.9091C245.136 24.7377 245.269 25.437 245.534 26.0071C245.802 26.5772 246.169 27.008 246.633 27.2997C247.097 27.5914 247.619 27.7372 248.199 27.7372C248.52 27.7372 248.825 27.6941 249.113 27.608C249.405 27.5185 249.669 27.3875 249.904 27.2152C250.139 27.0429 250.338 26.8324 250.5 26.5838C250.666 26.3319 250.781 26.0436 250.843 25.7188L252.395 25.7237C252.312 26.2242 252.151 26.6849 251.912 27.1058C251.677 27.5234 251.374 27.8847 251.003 28.1896C250.635 28.4912 250.214 28.7249 249.74 28.8906C249.266 29.0563 248.749 29.1392 248.189 29.1392C247.307 29.1392 246.522 28.9304 245.832 28.5128C245.143 28.0919 244.599 27.4903 244.201 26.7081C243.807 25.9259 243.61 24.9929 243.61 23.9091C243.61 22.822 243.809 21.889 244.206 21.1101C244.604 20.3279 245.148 19.728 245.837 19.3104C246.526 18.8894 247.31 18.679 248.189 18.679C248.729 18.679 249.233 18.7569 249.7 18.9126C250.171 19.0651 250.593 19.2905 250.968 19.5888C251.342 19.8838 251.652 20.245 251.897 20.6726C252.143 21.0968 252.308 21.5824 252.395 22.1293ZM254.233 29V18.8182H257.862C258.654 18.8182 259.311 18.9624 259.831 19.2507C260.351 19.5391 260.741 19.9335 260.999 20.4339C261.258 20.9311 261.387 21.4912 261.387 22.1143C261.387 22.7408 261.256 23.3042 260.994 23.8047C260.736 24.3018 260.345 24.6963 259.821 24.9879C259.301 25.2763 258.646 25.4205 257.857 25.4205H255.361V24.1179H257.718C258.218 24.1179 258.624 24.0317 258.936 23.8594C259.248 23.6837 259.476 23.4451 259.622 23.1435C259.768 22.8419 259.841 22.4988 259.841 22.1143C259.841 21.7299 259.768 21.3885 259.622 21.0902C259.476 20.7919 259.246 20.5582 258.931 20.3892C258.619 20.2202 258.208 20.1357 257.698 20.1357H255.769V29H254.233ZM266.619 18.444H272.625V19.382H266.619V18.444ZM272.289 18.444H272.513L272.695 18.402L273.381 18.822C271.393 21.846 266.913 23.54 262.965 24.198C262.867 23.89 262.657 23.428 262.489 23.204C266.297 22.686 270.609 21.09 272.289 18.598V18.444ZM266.563 19.396C268.271 21.384 271.841 22.616 275.677 23.036C275.453 23.274 275.173 23.708 275.033 24.002C271.211 23.498 267.627 22.14 265.653 19.872L266.563 19.396ZM264.449 24.002H273.633V30.092H272.499V24.94H265.527V30.134H264.449V24.002ZM264.883 26.34H273.003V27.194H264.883V26.34ZM264.883 28.748H273.003V29.672H264.883V28.748ZM268.495 24.436H269.587V29.266H268.495V24.436ZM267.235 17.212L268.355 17.436C267.417 18.934 265.989 20.418 263.847 21.552C263.693 21.286 263.371 20.936 263.133 20.768C265.149 19.816 266.535 18.416 267.235 17.212ZM277.049 29V27.8864L280.494 24.3168C280.862 23.929 281.165 23.5893 281.404 23.2976C281.646 23.0026 281.826 22.7225 281.946 22.4574C282.065 22.1922 282.125 21.9105 282.125 21.6122C282.125 21.2741 282.045 20.9825 281.886 20.7372C281.727 20.4886 281.51 20.2981 281.235 20.1655C280.96 20.0296 280.65 19.9616 280.305 19.9616C279.941 19.9616 279.622 20.0362 279.351 20.1854C279.079 20.3345 278.87 20.545 278.724 20.8168C278.578 21.0885 278.505 21.4067 278.505 21.7713H277.039C277.039 21.1515 277.181 20.6096 277.466 20.1456C277.751 19.6816 278.142 19.322 278.64 19.0668C279.137 18.8082 279.702 18.679 280.335 18.679C280.975 18.679 281.538 18.8066 282.025 19.0618C282.516 19.3137 282.899 19.6584 283.174 20.0959C283.449 20.5301 283.586 21.0206 283.586 21.5675C283.586 21.9453 283.515 22.3149 283.373 22.6761C283.233 23.0374 282.99 23.4401 282.642 23.8842C282.294 24.325 281.81 24.8603 281.19 25.4901L279.167 27.608V27.6825H283.75V29H277.049ZM289.179 29.169C288.394 29.1657 287.723 28.9586 287.166 28.5476C286.609 28.1366 286.183 27.5384 285.888 26.7528C285.593 25.9673 285.446 25.0211 285.446 23.9141C285.446 22.8104 285.593 21.8674 285.888 21.0852C286.187 20.303 286.614 19.7064 287.171 19.2955C287.731 18.8845 288.401 18.679 289.179 18.679C289.958 18.679 290.626 18.8861 291.183 19.3004C291.74 19.7114 292.166 20.308 292.461 21.0902C292.759 21.8691 292.908 22.8104 292.908 23.9141C292.908 25.0244 292.761 25.9723 292.466 26.7578C292.171 27.54 291.745 28.1383 291.188 28.5526C290.631 28.9635 289.962 29.169 289.179 29.169ZM289.179 27.8416C289.869 27.8416 290.407 27.5052 290.795 26.8324C291.186 26.1596 291.382 25.1868 291.382 23.9141C291.382 23.0689 291.292 22.3546 291.113 21.7713C290.938 21.1847 290.684 20.7405 290.353 20.4389C290.025 20.134 289.633 19.9815 289.179 19.9815C288.493 19.9815 287.955 20.3196 287.564 20.9957C287.173 21.6719 286.975 22.6446 286.972 23.9141C286.972 24.7625 287.06 25.4801 287.236 26.0668C287.415 26.6501 287.668 27.0926 287.996 27.3942C288.324 27.6925 288.719 27.8416 289.179 27.8416ZM294.672 29V27.8864L298.117 24.3168C298.485 23.929 298.788 23.5893 299.027 23.2976C299.269 23.0026 299.449 22.7225 299.569 22.4574C299.688 22.1922 299.748 21.9105 299.748 21.6122C299.748 21.2741 299.668 20.9825 299.509 20.7372C299.35 20.4886 299.133 20.2981 298.858 20.1655C298.583 20.0296 298.273 19.9616 297.928 19.9616C297.564 19.9616 297.245 20.0362 296.974 20.1854C296.702 20.3345 296.493 20.545 296.347 20.8168C296.201 21.0885 296.128 21.4067 296.128 21.7713H294.662C294.662 21.1515 294.804 20.6096 295.089 20.1456C295.374 19.6816 295.766 19.322 296.263 19.0668C296.76 18.8082 297.325 18.679 297.958 18.679C298.598 18.679 299.161 18.8066 299.648 19.0618C300.139 19.3137 300.522 19.6584 300.797 20.0959C301.072 20.5301 301.209 21.0206 301.209 21.5675C301.209 21.9453 301.138 22.3149 300.996 22.6761C300.856 23.0374 300.613 23.4401 300.265 23.8842C299.917 24.325 299.433 24.8603 298.813 25.4901L296.79 27.608V27.6825H301.373V29H294.672ZM302.825 27.0114V25.7685L307.225 18.8182H308.204V20.6477H307.583L304.436 25.6293V25.7088H310.467V27.0114H302.825ZM307.653 29V26.6335L307.663 26.0668V18.8182H309.119V29H307.653ZM315.925 18.8182V29H314.384V20.3594H314.324L311.888 21.9503V20.4787L314.429 18.8182H315.925ZM322.12 29.1392C321.407 29.1392 320.778 29.0166 320.231 28.7713C319.687 28.526 319.261 28.188 318.953 27.7571C318.645 27.3262 318.492 26.8357 318.496 26.2855C318.492 25.8546 318.58 25.4586 318.759 25.0973C318.941 24.7327 319.188 24.4295 319.5 24.1875C319.811 23.9422 320.159 23.7865 320.544 23.7202V23.6605C320.037 23.5379 319.631 23.2661 319.326 22.8452C319.021 22.4242 318.87 21.9403 318.873 21.3935C318.87 20.8731 319.008 20.4091 319.286 20.0014C319.568 19.5904 319.954 19.2673 320.445 19.032C320.935 18.7966 321.494 18.679 322.12 18.679C322.74 18.679 323.293 18.7983 323.78 19.0369C324.271 19.2723 324.657 19.5954 324.939 20.0064C325.221 20.4141 325.363 20.8764 325.366 21.3935C325.363 21.9403 325.207 22.4242 324.899 22.8452C324.591 23.2661 324.19 23.5379 323.696 23.6605V23.7202C324.077 23.7865 324.42 23.9422 324.725 24.1875C325.033 24.4295 325.279 24.7327 325.461 25.0973C325.646 25.4586 325.741 25.8546 325.744 26.2855C325.741 26.8357 325.585 27.3262 325.277 27.7571C324.969 28.188 324.541 28.526 323.994 28.7713C323.451 29.0166 322.826 29.1392 322.12 29.1392ZM322.12 27.8814C322.541 27.8814 322.905 27.8118 323.214 27.6726C323.522 27.5301 323.761 27.3329 323.93 27.081C324.099 26.8258 324.185 26.5275 324.188 26.1861C324.185 25.8314 324.092 25.5182 323.91 25.2464C323.731 24.9747 323.487 24.7609 323.179 24.6051C322.871 24.4493 322.518 24.3714 322.12 24.3714C321.719 24.3714 321.363 24.4493 321.051 24.6051C320.739 24.7609 320.494 24.9747 320.315 25.2464C320.136 25.5182 320.048 25.8314 320.052 26.1861C320.048 26.5275 320.13 26.8258 320.295 27.081C320.464 27.3329 320.705 27.5301 321.016 27.6726C321.328 27.8118 321.696 27.8814 322.12 27.8814ZM322.12 23.1435C322.458 23.1435 322.758 23.0755 323.02 22.9396C323.282 22.8037 323.487 22.6148 323.636 22.3729C323.789 22.1309 323.867 21.8475 323.87 21.5227C323.867 21.2045 323.79 20.9261 323.641 20.6875C323.495 20.4489 323.292 20.2649 323.03 20.1357C322.768 20.0031 322.465 19.9368 322.12 19.9368C321.769 19.9368 321.46 20.0031 321.195 20.1357C320.933 20.2649 320.73 20.4489 320.584 20.6875C320.438 20.9261 320.367 21.2045 320.37 21.5227C320.367 21.8475 320.44 22.1309 320.589 22.3729C320.738 22.6148 320.943 22.8037 321.205 22.9396C321.47 23.0755 321.775 23.1435 322.12 23.1435ZM330.966 29.1392C330.253 29.1392 329.623 29.0166 329.076 28.7713C328.533 28.526 328.107 28.188 327.799 27.7571C327.491 27.3262 327.338 26.8357 327.341 26.2855C327.338 25.8546 327.426 25.4586 327.605 25.0973C327.787 24.7327 328.034 24.4295 328.346 24.1875C328.657 23.9422 329.005 23.7865 329.39 23.7202V23.6605C328.883 23.5379 328.477 23.2661 328.172 22.8452C327.867 22.4242 327.716 21.9403 327.719 21.3935C327.716 20.8731 327.853 20.4091 328.132 20.0014C328.414 19.5904 328.8 19.2673 329.29 19.032C329.781 18.7966 330.339 18.679 330.966 18.679C331.585 18.679 332.139 18.7983 332.626 19.0369C333.117 19.2723 333.503 19.5954 333.785 20.0064C334.066 20.4141 334.209 20.8764 334.212 21.3935C334.209 21.9403 334.053 22.4242 333.745 22.8452C333.437 23.2661 333.035 23.5379 332.542 23.6605V23.7202C332.923 23.7865 333.266 23.9422 333.571 24.1875C333.879 24.4295 334.124 24.7327 334.307 25.0973C334.492 25.4586 334.587 25.8546 334.59 26.2855C334.587 26.8357 334.431 27.3262 334.123 27.7571C333.814 28.188 333.387 28.526 332.84 28.7713C332.296 29.0166 331.672 29.1392 330.966 29.1392ZM330.966 27.8814C331.387 27.8814 331.751 27.8118 332.059 27.6726C332.368 27.5301 332.606 27.3329 332.775 27.081C332.944 26.8258 333.031 26.5275 333.034 26.1861C333.031 25.8314 332.938 25.5182 332.755 25.2464C332.576 24.9747 332.333 24.7609 332.025 24.6051C331.716 24.4493 331.363 24.3714 330.966 24.3714C330.565 24.3714 330.208 24.4493 329.897 24.6051C329.585 24.7609 329.34 24.9747 329.161 25.2464C328.982 25.5182 328.894 25.8314 328.897 26.1861C328.894 26.5275 328.975 26.8258 329.141 27.081C329.31 27.3329 329.55 27.5301 329.862 27.6726C330.174 27.8118 330.541 27.8814 330.966 27.8814ZM330.966 23.1435C331.304 23.1435 331.604 23.0755 331.866 22.9396C332.127 22.8037 332.333 22.6148 332.482 22.3729C332.634 22.1309 332.712 21.8475 332.716 21.5227C332.712 21.2045 332.636 20.9261 332.487 20.6875C332.341 20.4489 332.137 20.2649 331.875 20.1357C331.614 20.0031 331.31 19.9368 330.966 19.9368C330.614 19.9368 330.306 20.0031 330.041 20.1357C329.779 20.2649 329.575 20.4489 329.429 20.6875C329.284 20.9261 329.212 21.2045 329.216 21.5227C329.212 21.8475 329.285 22.1309 329.434 22.3729C329.584 22.6148 329.789 22.8037 330.051 22.9396C330.316 23.0755 330.621 23.1435 330.966 23.1435ZM336.371 29V27.8864L339.816 24.3168C340.184 23.929 340.487 23.5893 340.726 23.2976C340.968 23.0026 341.149 22.7225 341.268 22.4574C341.387 22.1922 341.447 21.9105 341.447 21.6122C341.447 21.2741 341.367 20.9825 341.208 20.7372C341.049 20.4886 340.832 20.2981 340.557 20.1655C340.282 20.0296 339.972 19.9616 339.627 19.9616C339.263 19.9616 338.945 20.0362 338.673 20.1854C338.401 20.3345 338.192 20.545 338.046 20.8168C337.901 21.0885 337.828 21.4067 337.828 21.7713H336.361C336.361 21.1515 336.504 20.6096 336.789 20.1456C337.074 19.6816 337.465 19.322 337.962 19.0668C338.459 18.8082 339.024 18.679 339.657 18.679C340.297 18.679 340.86 18.8066 341.348 19.0618C341.838 19.3137 342.221 19.6584 342.496 20.0959C342.771 20.5301 342.909 21.0206 342.909 21.5675C342.909 21.9453 342.837 22.3149 342.695 22.6761C342.556 23.0374 342.312 23.4401 341.964 23.8842C341.616 24.325 341.132 24.8603 340.512 25.4901L338.489 27.608V27.6825H343.073V29H336.371ZM348.512 29.1392C348.058 29.1326 347.61 29.0497 347.169 28.8906C346.732 28.7315 346.334 28.4664 345.976 28.0952C345.618 27.724 345.331 27.2251 345.116 26.5987C344.904 25.9723 344.798 25.1901 344.798 24.2521C344.798 23.3639 344.886 22.575 345.061 21.8857C345.24 21.1963 345.497 20.6146 345.832 20.1406C346.167 19.6634 346.571 19.3004 347.045 19.0518C347.519 18.8033 348.051 18.679 348.641 18.679C349.247 18.679 349.786 18.7983 350.257 19.0369C350.727 19.2756 351.108 19.6054 351.4 20.0263C351.695 20.4472 351.882 20.9261 351.962 21.4631H350.446C350.343 21.0388 350.139 20.6925 349.834 20.424C349.529 20.1555 349.131 20.0213 348.641 20.0213C347.895 20.0213 347.313 20.3461 346.896 20.9957C346.482 21.6454 346.273 22.5485 346.269 23.7053H346.344C346.52 23.4169 346.735 23.1716 346.99 22.9695C347.249 22.764 347.537 22.6065 347.855 22.4972C348.177 22.3845 348.515 22.3281 348.87 22.3281C349.46 22.3281 349.993 22.4723 350.47 22.7607C350.951 23.0457 351.334 23.4401 351.619 23.9439C351.904 24.4477 352.046 25.0244 352.046 25.674C352.046 26.3236 351.899 26.9119 351.604 27.4389C351.312 27.9659 350.901 28.3835 350.371 28.6918C349.841 28.9967 349.221 29.1458 348.512 29.1392ZM348.507 27.8466C348.898 27.8466 349.247 27.7505 349.556 27.5582C349.864 27.366 350.108 27.1075 350.286 26.7827C350.465 26.4579 350.555 26.0949 350.555 25.6939C350.555 25.3028 350.467 24.9465 350.291 24.625C350.119 24.3035 349.88 24.0483 349.576 23.8594C349.274 23.6705 348.929 23.576 348.541 23.576C348.246 23.576 347.973 23.6323 347.721 23.745C347.473 23.8577 347.254 24.0135 347.065 24.2124C346.876 24.4112 346.727 24.6399 346.617 24.8984C346.511 25.1536 346.458 25.4238 346.458 25.7088C346.458 26.09 346.546 26.4429 346.722 26.7678C346.901 27.0926 347.144 27.3544 347.453 27.5533C347.764 27.7488 348.116 27.8466 348.507 27.8466ZM354.2 29L358.645 20.2102V20.1357H353.504V18.8182H360.236V20.1804L355.806 29H354.2ZM364.625 18.752V21.006H371.443V18.752H364.625ZM363.603 17.828H372.521V21.944H363.603V17.828ZM361.657 23.022H374.271V24.002H361.657V23.022ZM364.653 25.234H371.793V26.214H364.653V25.234ZM371.415 25.234H372.535C372.535 25.234 372.507 25.57 372.479 25.724C372.115 28.188 371.779 29.28 371.247 29.742C370.911 30.036 370.575 30.106 370.029 30.134C369.553 30.162 368.629 30.134 367.649 30.078C367.621 29.784 367.481 29.364 367.285 29.084C368.279 29.168 369.301 29.182 369.679 29.182C370.015 29.182 370.197 29.168 370.365 29.056C370.785 28.72 371.107 27.684 371.401 25.388L371.415 25.234ZM364.919 23.288L366.025 23.456C365.647 24.688 365.129 26.214 364.723 27.18L363.603 26.984C364.023 26.018 364.569 24.464 364.919 23.288Z" fill="black"/>
</svg>
