<svg t="1718108661589" class="icon" viewBox="0 0 1106 1024" version="1.1" xmlns="http://www.w3.org/2000/svg" p-id="7257" width="200" height="200"><path d="M1021.238317 0.001202a84.160991 84.160991 0 0 1 84.581796 84.581796v64.383158a84.160991 84.160991 0 0 1-84.581796 84.581796H84.586605A84.160991 84.160991 0 0 1 0.004809 148.966156V84.582998A84.160991 84.160991 0 0 1 84.586605 0.001202z m0 395.195967a84.160991 84.160991 0 0 1 84.581796 84.581796v64.383158a84.160991 84.160991 0 0 1-84.581796 84.64191H84.586605A84.160991 84.160991 0 0 1 0.004809 544.222238V479.83908a84.160991 84.160991 0 0 1 84.581796-84.581796z m0 395.195967a84.160991 84.160991 0 0 1 84.581796 84.581795v64.383158a84.160991 84.160991 0 0 1-84.581796 84.581796H84.586605A84.160991 84.160991 0 0 1 0.004809 939.358089v-64.383158a84.160991 84.160991 0 0 1 84.581796-84.581795z" fill="#1D85ED" p-id="7258"></path></svg>