<svg width="195" height="25" viewBox="0 0 195 25" fill="none" xmlns="http://www.w3.org/2000/svg">
<path d="M32.3738 9.42799C33.2246 8.45746 33.962 7.30668 34.5576 5.97566L35.3091 6.32228C35.0255 6.9046 34.7419 7.44533 34.4299 7.94446V13.7677H33.6642V9.1091C33.3522 9.55278 33.0119 9.95485 32.6716 10.3153C32.5865 10.0242 32.4872 9.71915 32.3738 9.42799ZM32.4305 5.85088C33.3806 4.90808 34.1038 3.93754 34.5718 2.95314L35.2808 3.34136C34.6143 4.58919 33.7493 5.71223 32.6999 6.7105C32.629 6.4332 32.5298 6.14204 32.4305 5.85088ZM38.1452 10.1767H36.6421V10.6897C36.6421 12.0207 36.2592 12.9635 35.4935 13.532C35.3659 13.324 35.1957 13.0883 34.983 12.8249C35.5786 12.4367 35.8763 11.7018 35.8763 10.6065V9.42799H38.8968V11.3552C39.2513 11.064 39.6483 10.7174 40.0879 10.3153C40.1588 10.6342 40.2155 10.9254 40.2864 11.175C39.8752 11.4938 39.3931 11.8959 38.8684 12.3673C38.6982 12.5198 38.5564 12.6724 38.4146 12.811L37.8332 12.1039C38.0318 11.9098 38.1452 11.6325 38.1452 11.2997V10.1767ZM35.5218 6.62731V3.90981H36.245V5.87861H37.1809V3.0502H37.9325V5.86475H38.8684V3.89595H39.5916V6.98779H38.8684V6.62731H35.5218ZM35.7487 7.61171H39.3647V8.38813H35.7487V7.61171ZM40.9104 2.89768L41.6761 3.03633C41.5485 3.71571 41.4067 4.36735 41.2507 4.99126H43.7039V5.79542H43.1651C43.0091 7.91673 42.6404 9.59437 42.0732 10.8283C42.5128 11.6602 43.08 12.3535 43.789 12.9496C43.6188 13.2408 43.4628 13.5181 43.3069 13.8093C42.6404 13.1715 42.0874 12.4644 41.6478 11.6602C41.194 12.4367 40.6126 13.1715 39.8894 13.8925C39.7334 13.6845 39.5491 13.4488 39.3364 13.1992C40.1588 12.4366 40.7969 11.6464 41.2507 10.8145C40.8253 9.78848 40.5701 8.6377 40.485 7.36214C40.3573 7.6533 40.2297 7.91673 40.1021 8.19403C39.9461 7.99992 39.7759 7.80581 39.5632 7.61171C40.1872 6.30842 40.6551 4.75556 40.9104 2.89768ZM42.3851 5.78156H41.0238L40.9955 5.89247C41.0096 7.40374 41.2223 8.73475 41.6478 9.87167C41.9739 8.95659 42.215 7.59784 42.3851 5.78156ZM44.0017 8.22176C45.1078 6.61344 45.9444 4.82489 46.5116 2.86995L47.3908 3.11952C47.0647 4.11778 46.696 5.03286 46.3131 5.87861V13.837H45.4906V7.50079C45.1361 8.09697 44.7816 8.6377 44.3846 9.13683L44.0017 8.22176ZM47.2915 4.38121H50.9926C50.7657 4.00687 50.5247 3.61865 50.2836 3.2443L51.0493 2.85609C51.3188 3.25817 51.5882 3.67411 51.8576 4.11778L51.3613 4.36735H55.2893V5.14378H47.2915V4.38121ZM47.9155 6.18364H54.6086V6.93233H47.9155V6.18364ZM47.9155 7.97219H54.6086V8.72089H47.9155V7.97219ZM48.0431 9.77461H54.5094V13.837H53.6302V13.1715H48.9223V13.837H48.0431V9.77461ZM53.6302 10.5233H48.9223V12.4089H53.6302V10.5233ZM55.7856 4.43667H60.9473V2.84222H61.8832V4.43667H66.8037V5.24083H61.8832V6.89074H65.0879V7.66717C64.4073 9.13683 63.443 10.3708 62.1951 11.3552C63.4288 12.0068 65.017 12.4782 66.9597 12.7555C66.6903 13.1299 66.4776 13.4488 66.3074 13.7261C64.152 13.3101 62.4929 12.7139 61.3301 11.9514C60.0964 12.7001 58.409 13.3517 56.2535 13.8925C56.0976 13.5458 55.9416 13.2547 55.7572 13.019C57.8134 12.5614 59.4299 12.0207 60.5786 11.3968C59.4867 10.4817 58.6358 9.24775 58.0261 7.72263H56.9058V6.91847H60.9473V5.2547H55.7856V4.43667ZM63.9677 7.70876H58.9762C59.5292 9.03978 60.3233 10.0935 61.3727 10.8561C62.5496 9.98258 63.4146 8.94273 63.9677 7.70876ZM67.2859 8.1663C68.3352 6.72436 69.2002 4.96353 69.8809 2.86995L70.8168 3.21657C70.5048 4.04846 70.1787 4.81102 69.8525 5.51813V13.7677H68.945V7.27895C68.5196 8.01379 68.0942 8.65157 67.6546 9.22002C67.4986 8.72089 67.3851 8.37427 67.2859 8.1663ZM70.5899 5.39334H75.7941V2.96701H76.7158V5.39334H78.3607V6.23909H76.7158V11.8543C76.7158 13.0051 76.177 13.5874 75.1134 13.6152C74.7589 13.629 74.1917 13.6152 73.4118 13.6013C73.3693 13.3101 73.3125 12.9774 73.2275 12.603C73.9506 12.6585 74.5179 12.6862 74.9149 12.6862C75.2694 12.7001 75.4963 12.6169 75.6239 12.4644C75.7516 12.3257 75.8083 12.0346 75.8083 11.5909V6.23909H70.5899V5.39334ZM71.3273 7.99992L72.093 7.52852C72.561 8.18016 73.0998 9.03978 73.7238 10.0935L72.9013 10.5926C72.3624 9.58051 71.8378 8.70702 71.3273 7.99992ZM41.4918 16.8456L39.9319 22.2945H39.0953L37.975 18.3708C37.9183 18.1905 37.89 18.0103 37.89 17.8023H37.8758C37.8616 17.9964 37.8332 18.1767 37.7765 18.3569L36.6421 22.2945H35.8054L34.1889 16.8456H34.983L36.1174 20.9635C36.1741 21.1437 36.2025 21.3378 36.2025 21.5181H36.2309C36.245 21.3794 36.2876 21.1853 36.3443 20.9635L37.5496 16.8456H38.2586L39.4073 20.9912C39.4498 21.1299 39.4782 21.2962 39.5065 21.5181H39.5207C39.5349 21.3656 39.5632 21.1853 39.62 20.9774L40.7119 16.8456H41.4918ZM45.2638 20.5337H42.4702C42.4844 20.9496 42.5978 21.2685 42.8247 21.4903C43.0516 21.7122 43.3494 21.837 43.7465 21.837C44.186 21.837 44.5973 21.6983 44.9801 21.421V22.0311C44.6256 22.2668 44.1719 22.3916 43.5905 22.3916C43.0091 22.3916 42.5695 22.2113 42.2433 21.8508C41.9172 21.4903 41.7612 21.0051 41.7612 20.3673C41.7612 19.7711 41.9314 19.2858 42.2859 18.8976C42.6404 18.5094 43.08 18.3153 43.6046 18.3153C44.1293 18.3153 44.5264 18.4817 44.8242 18.8006C45.122 19.1195 45.2638 19.5909 45.2638 20.1732V20.5337ZM44.5547 19.9791C44.5547 19.6325 44.4697 19.3552 44.2995 19.1611C44.1293 18.967 43.8883 18.8699 43.5905 18.8699C43.3069 18.8699 43.0658 18.967 42.8673 19.1749C42.6687 19.3829 42.5269 19.6463 42.4844 19.9791H44.5547ZM50.1134 22.0727C49.7022 22.2806 49.1917 22.3916 48.5678 22.3916C47.7737 22.3916 47.1356 22.142 46.6534 21.6429C46.1713 21.1437 45.9302 20.4921 45.9302 19.6741C45.9302 18.8006 46.1997 18.0935 46.7385 17.5528C47.2774 17.012 47.958 16.7486 48.7805 16.7486C49.3193 16.7486 49.7589 16.8179 50.0993 16.9704V17.7053C49.7022 17.4834 49.2626 17.3864 48.7805 17.3864C48.1565 17.3864 47.6461 17.5943 47.2632 17.9964C46.8803 18.3985 46.6818 18.9531 46.6818 19.6325C46.6818 20.2841 46.8661 20.7971 47.2348 21.1853C47.6035 21.5735 48.0715 21.7676 48.667 21.7676C49.2201 21.7676 49.7022 21.6429 50.1134 21.4072V22.0727ZM54.4952 22.3084H53.7862V20.0761C53.7862 19.2859 53.4884 18.8976 52.8928 18.8976C52.595 18.8976 52.3398 19.0086 52.1271 19.2443C51.9143 19.48 51.8293 19.7573 51.8293 20.1039V22.3084H51.1202V16.5406H51.8293V19.0501H51.8434C52.1412 18.5649 52.5808 18.3153 53.148 18.3153C54.0414 18.3153 54.4952 18.8422 54.4952 19.9098V22.3084ZM55.7714 18.6758C56.1685 18.4401 56.6222 18.3153 57.1469 18.3153C58.1112 18.3153 58.5933 18.8144 58.5933 19.7988V22.3084H57.8985V21.7122H57.8843C57.6149 22.1697 57.2036 22.4054 56.6648 22.4054C56.2819 22.4054 55.9699 22.3084 55.7431 22.1004C55.5162 21.8924 55.4027 21.6151 55.4027 21.2685C55.4027 20.5475 55.8423 20.1177 56.7215 19.993L57.8985 19.8266C57.8985 19.1888 57.629 18.8699 57.0902 18.8699C56.6081 18.8699 56.1826 19.0224 55.7856 19.3413V18.6758H55.7714ZM56.9484 20.4644C56.6222 20.5059 56.3953 20.5891 56.2677 20.7001C56.1401 20.811 56.0834 20.9774 56.0834 21.1992C56.0834 21.3794 56.1543 21.5319 56.2819 21.6567C56.4095 21.7815 56.5939 21.837 56.8208 21.837C57.1327 21.837 57.388 21.726 57.5865 21.5181C57.785 21.3101 57.8843 21.0467 57.8843 20.7278V20.3534L56.9484 20.4644ZM61.6563 22.2668C61.5003 22.35 61.3018 22.3916 61.0323 22.3916C60.3233 22.3916 59.9688 22.0033 59.9688 21.2269V18.9808H59.2881V18.4124H59.9688V17.4696L60.6778 17.2477V18.3985H61.6704V18.967H60.6778V21.0883C60.6778 21.3378 60.7204 21.5319 60.8054 21.6429C60.8905 21.7538 61.0465 21.8092 61.245 21.8092C61.401 21.8092 61.5428 21.7676 61.6563 21.6845V22.2668ZM65.485 20.2702V22.3084H64.776V16.8595H66.3642C66.9597 16.8595 67.4277 16.9982 67.768 17.2893C68.1083 17.5805 68.2643 17.9826 68.2643 18.5094C68.2643 19.0501 68.0658 19.48 67.6829 19.8127C67.3001 20.1455 66.8037 20.298 66.2223 20.2841H65.485V20.2702ZM65.485 17.4696V19.6463H66.1514C66.591 19.6463 66.9314 19.5493 67.1582 19.3552C67.3851 19.1611 67.4986 18.8838 67.4986 18.5233C67.4986 17.8162 67.0732 17.4696 66.2223 17.4696H65.485ZM69.0301 18.6758C69.4271 18.4401 69.8809 18.3153 70.4056 18.3153C71.3698 18.3153 71.852 18.8144 71.852 19.7988V22.3084H71.1571V21.7122H71.1429C70.8735 22.1697 70.4623 22.4054 69.9234 22.4054C69.5406 22.4054 69.2286 22.3084 69.0017 22.1004C68.7748 21.8924 68.6614 21.6151 68.6614 21.2685C68.6614 20.5475 69.101 20.1177 69.9801 19.993L71.1571 19.8266C71.1571 19.1888 70.8877 18.8699 70.3488 18.8699C69.8667 18.8699 69.4413 19.0224 69.0442 19.3413V18.6758H69.0301ZM70.207 20.4644C69.8809 20.5059 69.654 20.5891 69.5264 20.7001C69.3988 20.811 69.342 20.9774 69.342 21.1992C69.342 21.3794 69.4129 21.5319 69.5406 21.6567C69.6682 21.7815 69.8525 21.837 70.0794 21.837C70.3914 21.837 70.6466 21.726 70.8451 21.5181C71.0437 21.3101 71.1429 21.0467 71.1429 20.7278V20.3534L70.207 20.4644ZM76.2479 18.4124L74.447 22.8907C74.1066 23.7226 73.6387 24.1385 73.0289 24.1385C72.8588 24.1385 72.7028 24.1247 72.5752 24.0831V23.473C72.717 23.5285 72.8446 23.5562 72.9722 23.5562C73.2984 23.5562 73.5252 23.376 73.6954 23.0016L74.0074 22.2945L72.4475 18.4124H73.2275L74.2626 21.3378L74.3477 21.6567H74.3619C74.3761 21.5874 74.4044 21.4765 74.447 21.3378L75.5389 18.3985H76.2479V18.4124Z" fill="#393738"/>
<path d="M10.3233 15.487C10.1957 15.5563 10.0539 15.584 9.8979 15.584C9.54339 15.584 9.23142 15.3899 9.07544 15.1126L9.01872 14.974L6.43789 9.44191C6.40953 9.38645 6.39535 9.31713 6.39535 9.24781C6.39535 8.99824 6.60805 8.79027 6.8633 8.79027C6.96256 8.79027 7.06183 8.818 7.14691 8.88732L10.1815 10.9948C10.4084 11.1334 10.6636 11.2166 10.9614 11.2166C11.1316 11.2166 11.3018 11.1889 11.4436 11.1334L25.7657 4.89427C23.1991 1.94107 18.9733 0 14.1804 0C6.35281 0 0 5.17156 0 11.5494C0 15.0294 1.91435 18.1629 4.90641 20.2842C5.14748 20.4505 5.30346 20.7278 5.30346 21.0329C5.30346 21.1299 5.2751 21.227 5.24674 21.324C5.00567 22.1975 4.6228 23.584 4.60862 23.6533C4.58026 23.7642 4.53772 23.8751 4.53772 23.9861C4.53772 24.2356 4.75042 24.4436 5.00567 24.4436C5.10493 24.4436 5.19002 24.402 5.2751 24.3604L8.39478 22.6412C8.62167 22.5025 8.87691 22.4332 9.14634 22.4332C9.28814 22.4332 9.42995 22.4609 9.55757 22.4887C11.004 22.8907 12.5638 23.1264 14.1804 23.1264C22.0079 23.1264 28.3607 17.9549 28.3607 11.5771C28.3607 9.64989 27.7794 7.81973 26.7442 6.22529L10.4226 15.4315L10.3233 15.487Z" fill="#00AC1C"/>
<path d="M117.086 13.2776C116.46 13.3385 115.284 13.6086 114.642 14.1635C112.712 15.8006 113.868 18.7949 117.766 18.7949C120.031 18.7949 122.297 17.3814 124.075 15.1213C121.552 13.9165 119.407 13.0544 117.086 13.2787V13.2776ZM131.634 15.3474C135.243 16.5259 136.061 16.5876 136.061 16.5876V3.91914C136.061 3.40449 135.957 2.89487 135.756 2.41938C135.554 1.94389 135.259 1.51184 134.887 1.14791C134.515 0.783981 134.073 0.495293 133.586 0.298334C133.1 0.101374 132.579 -2.03566e-09 132.053 0H115.008C114.482 -2.13824e-09 113.96 0.101374 113.474 0.298334C112.988 0.495293 112.546 0.783981 112.174 1.14791C111.802 1.51184 111.506 1.94389 111.305 2.41938C111.104 2.89487 111 3.40449 111 3.91914V20.5248C111 21.0394 111.104 21.549 111.305 22.0245C111.507 22.4999 111.802 22.9319 112.174 23.2958C112.546 23.6597 112.988 23.9484 113.474 24.1453C113.96 24.3422 114.482 24.4436 115.008 24.4436H132.048C133.111 24.4436 134.131 24.0307 134.882 23.2958C135.634 22.5609 136.056 21.5641 136.056 20.5248V20.3636C136.056 20.3636 129.538 17.7148 126.246 16.1719C124.038 18.8193 121.189 20.4277 118.23 20.4277C113.23 20.4274 111.531 16.1617 113.899 13.3524C114.416 12.7415 115.295 12.1564 116.658 11.8286C118.789 11.3177 122.183 12.1476 125.363 13.1713C125.955 12.103 126.429 10.9756 126.776 9.80848H116.975V8.83933H122.022V7.09733H115.915V6.14058H122.034V3.66223C122.033 3.60655 122.044 3.55128 122.066 3.49977C122.087 3.44827 122.12 3.40161 122.16 3.36263C122.201 3.32365 122.249 3.29317 122.302 3.27304C122.355 3.2529 122.412 3.24354 122.469 3.24552H124.939V6.13987H130.992V7.10796H124.939V8.8496H129.878C129.433 10.6546 128.729 12.3888 127.787 14.0008C129.286 14.5292 130.631 15.0285 131.634 15.358L131.634 15.3474Z" fill="#4477FB"/>
<path d="M182.898 3.0323H191.025V4.60563H193.927V2.74173C193.926 2.73785 193.926 2.73392 193.927 2.73004C193.929 2.53168 193.852 2.34033 193.711 2.19727C193.571 2.05421 193.378 1.97091 193.176 1.96535H188.477V0.49939H185.441V1.96535H179.997V4.60527H182.899L182.898 3.0323ZM163.238 0.634398L160.264 7.51557H162.547V15.7032H165.043V4.84198H164.138L166.019 0.634398H163.238ZM193.348 12.3171C193.319 12.2225 193.261 12.1393 193.181 12.0796C193.101 12.0198 193.003 11.9865 192.902 11.9847H190.482L191.183 14.2982H188.34V9.8178H193.919V8.75226H188.34V6.64316H193.919V5.57656H179.995V6.64351H185.574V8.75262H179.997V9.81958H185.575V14.2986H179.997V15.3655H194.261L194.249 15.3301H194.261L193.348 12.3171ZM169.623 6.27463C169.576 6.18018 169.503 6.10035 169.412 6.04403C169.322 5.98772 169.217 5.95714 169.109 5.95571H166.948L168.631 11.1385H171.188L169.623 6.27463Z" fill="black"/>
<path d="M175.093 0.759002H172.498V3.41098H166.105V4.47758H172.498V14.0061C172.49 14.1108 172.442 14.2088 172.365 14.2822C172.289 14.3555 172.187 14.3992 172.08 14.4051H170.763V15.5096H174.125C174.384 15.4958 174.629 15.3861 174.809 15.2026C174.989 15.0192 175.09 14.7758 175.093 14.5217V4.47616H176.147V3.41098H175.093V0.759002ZM157.197 14.7028C155.202 14.0094 153.286 13.1164 151.479 12.038C153.615 10.4924 155.487 8.39353 156.229 5.58635H151.25V3.84506H157.027V2.75472H151.25V0.542847H148.674C148.606 0.543954 148.539 0.558199 148.476 0.584769C148.413 0.611338 148.357 0.649711 148.309 0.697692C148.262 0.745674 148.225 0.802324 148.2 0.864404C148.175 0.926485 148.162 0.992777 148.164 1.05949V2.75472H142.426V3.84187H148.164V5.58351H143.321V6.67067H152.97C152.97 6.67067 152.436 8.71138 149.791 10.9045C147.415 9.15397 146.627 7.7564 146.627 7.7564H144.035C145.082 9.52817 146.569 10.9495 148.171 12.0795C146.698 13.0136 144.791 13.9151 142.324 14.6362V15.9427C144.953 15.3849 147.478 14.433 149.81 13.121C152.116 14.4124 154.605 15.3613 157.197 15.9366V14.7028ZM145.204 17.9324L142.828 24.2476H144.037L144.482 22.9762H146.857L147.288 24.2476H148.496L146.121 17.9324H145.204ZM144.773 22.1793L145.699 19.5666L146.59 22.1793H144.773ZM154.961 17.9324H153.802V24.2476H157.712V23.3883H154.961V17.9324ZM163.457 17.9324H164.619V24.2476H163.457V17.9324ZM173.323 17.9324H170.814V24.2476H171.973V21.815H173.323C174.575 21.815 175.45 21.0152 175.45 19.8714C175.45 18.7275 174.575 17.9324 173.323 17.9324ZM173.257 20.9525H171.973V18.791H173.257C173.901 18.791 174.288 19.3427 174.288 19.8753C174.288 20.4079 173.925 20.9521 173.259 20.9521L173.257 20.9525ZM182.095 17.9324L179.719 24.2473H180.928L181.373 22.9759H183.748L184.179 24.2473H185.387L183.013 17.9324H182.095ZM181.66 22.1793L182.586 19.5666L183.477 22.1793H181.66ZM191.868 17.9324L190.6 20.6233L189.313 17.9324H188.059L190.014 21.6531V24.2469H191.167V21.6531L191.175 21.6385L193.124 17.9324H191.868Z" fill="black"/>
</svg>
